<svg width="375" height="400" viewBox="0 0 375 400" fill="none" xmlns="http://www.w3.org/2000/svg">
<path d="M417.2 63.8445C453.679 8.76156 504.701 1.99814 504.701 1.99814C504.701 1.99814 506.775 391.72 503.941 354.598C501.106 317.476 465.418 309.839 465.418 309.839C465.418 309.839 460.32 308.453 447.933 308.426L394.741 308.312L280.341 308.065C104.002 309.06 149.911 307.784 79.2307 307.632C49.0282 307.567 32.4264 307.51 21.6665 307.508C4.90731 307.472 -0.921981 307.459 -8.21452 310.193C-34.4656 319.072 -41.0694 340.365 -42.2589 352.734C-43.4484 365.104 -42.1323 293.987 -42.1323 293.987C-42.1323 293.987 47.4735 232.229 105.565 217.948C162.526 203.944 209.857 227.082 257.691 200.59C295.896 179.431 291.062 156.441 323.714 130.827C358.827 103.281 380.721 118.927 417.2 63.8445Z" fill="#9E4ACE"/>
<path d="M407.747 133.527C443.52 93.5743 494.86 90.0605 494.86 90.0605C494.86 90.0605 496.338 402.286 494.278 360.015C492.218 317.745 455.206 312.067 455.206 312.067C455.206 312.067 450.202 311.059 438.045 311.033L385.838 310.92L273.559 310.679C100.489 311.303 145.546 310.403 76.176 310.253C46.5333 310.189 30.2391 310.139 19.6787 310.132C3.2301 310.096 -2.49114 310.084 -9.647 312.064C-41.3522 324.094 -42.4225 351.926 -43.5831 360.902C-44.7438 369.877 -43.8547 300.167 -43.8547 300.167C-43.8547 300.167 44.9658 255.517 101.973 245.185C157.87 235.055 204.337 251.872 251.269 232.673C288.755 217.339 283.998 200.654 316.031 182.083C350.478 162.114 371.974 173.48 407.747 133.527Z" fill="#EF96C3"/>
<path d="M405.691 194.901C441.505 166.817 493.898 164.38 493.898 164.38C493.898 164.38 494.622 384.033 492.531 354.294C490.439 324.555 453.355 320.537 453.355 320.537C453.355 320.537 448.341 319.824 436.16 319.798L383.856 319.685L271.365 319.443C97.9693 319.771 143.111 319.167 73.61 319.017C43.9115 318.953 27.5866 318.907 17.0063 318.895C0.526703 318.86 -5.20529 318.847 -12.3733 320.235C-44.1305 328.679 -45.1848 348.258 -46.3419 354.572C-47.499 360.886 -76.2198 327.622 -46.2542 313.923C-40.3745 311.235 -27.5362 305.168 -18.5403 302.284C19.6672 287.915 70.3634 280.976 99.4137 273.258C149.383 259.98 201.975 278.027 248.983 264.551C286.529 253.787 281.752 242.046 313.834 229.002C348.333 214.975 369.876 222.985 405.691 194.901Z" fill="#EFB33E"/>
<path d="M407.105 231.987C442.655 210.286 494.679 208.426 494.679 208.426C494.679 208.426 496.769 406.841 493.381 369.581C489.994 332.321 454.494 329.169 454.494 329.169C454.494 329.169 449.515 328.616 437.42 328.59L385.482 328.478L273.78 328.237C101.6 328.409 146.424 327.963 77.411 327.814C47.9206 327.751 31.7101 327.707 21.204 327.693C4.83992 327.658 -0.650525 328.234 -7.07378 329.631C-51.3228 339.254 -37.1919 402.452 -42.1766 398.392C-47.1612 394.332 -42.0596 385.651 -42.8115 361.948C-43.27 347.493 -68.1409 326.873 -42.723 320.858C29.6044 303.743 65.0377 300.914 82.8792 297.431C98.451 294.392 123.54 288.61 134.973 288.635C200.349 288.776 220.754 298.347 249.516 291.701C289.445 282.476 284.058 268.388 315.908 258.316C350.158 247.484 371.555 253.689 407.105 231.987Z" fill="#0F24B2"/>
</svg>
