<svg width="375" height="451" viewBox="0 0 375 451" fill="none" xmlns="http://www.w3.org/2000/svg">
<path d="M449.334 71.4923C501.17 9.33073 573.715 1.72753 573.715 1.72753C573.715 1.72753 576.911 441.697 572.857 399.787C568.803 357.877 518.052 349.232 518.052 349.232C518.052 349.232 510.802 347.665 493.189 347.627L417.553 347.464L254.884 347.114C4.14181 348.125 69.4203 346.714 -31.082 346.498C-74.0279 346.405 -97.6347 346.33 -112.935 346.321C-136.765 346.27 -145.054 346.252 -155.422 349.333C-192.743 359.34 -202.12 383.375 -203.804 397.338C-205.487 411.301 -203.661 331.017 -203.661 331.017C-203.661 331.017 -76.2863 261.353 6.30729 245.267C87.2924 229.494 154.609 255.645 222.609 225.768C276.921 201.904 270.033 175.948 316.445 147.052C366.357 115.977 397.497 133.654 449.334 71.4923Z" fill="#9E4ACE"/>
<path d="M435.937 150.153C486.778 105.072 559.778 101.138 559.778 101.138C559.778 101.138 562.078 453.619 559.122 405.897C556.165 358.176 503.534 351.743 503.534 351.743C503.534 351.743 496.418 350.601 479.131 350.564L404.897 350.404L245.242 350.06C-0.851272 350.656 63.2165 349.668 -35.4231 349.455C-77.5731 349.365 -100.742 349.297 -115.759 349.282C-139.147 349.232 -147.283 349.214 -157.457 351.445C-202.532 365.007 -204.036 396.426 -205.681 406.558C-207.325 416.69 -206.105 337.993 -206.105 337.993C-206.105 337.993 -79.8365 287.643 1.21733 276.015C80.6927 264.613 146.776 283.628 213.499 261.984C266.791 244.696 260.016 225.856 305.553 204.912C354.522 182.389 385.095 195.235 435.937 150.153Z" fill="#EF96C3"/>
<path d="M433.051 219.44C483.959 187.757 558.456 185.039 558.456 185.039C558.456 185.039 559.624 433.012 556.632 399.438C553.639 365.863 500.905 361.304 500.905 361.304C500.905 361.304 493.775 360.496 476.455 360.459L402.081 360.298L242.126 359.954C-4.43018 360.215 59.7575 359.561 -39.0679 359.348C-81.2973 359.257 -104.51 359.195 -119.555 359.175C-142.988 359.124 -151.138 359.107 -161.33 360.669C-206.481 370.181 -207.968 392.284 -209.609 399.411C-211.25 406.538 -252.11 368.968 -209.51 353.522C-201.151 350.491 -182.9 343.65 -170.11 340.4C-115.791 324.202 -43.7083 316.401 -2.40566 307.705C68.6396 292.747 143.432 313.154 210.267 297.97C263.648 285.843 256.848 272.584 302.457 257.879C351.504 242.066 382.143 251.122 433.051 219.44Z" fill="#EFB33E"/>
<path d="M435.086 261.308C485.623 236.831 559.596 234.764 559.596 234.764C559.596 234.764 562.692 458.762 557.852 416.697C553.012 374.631 502.532 371.05 502.532 371.05C502.532 371.05 495.452 370.422 478.253 370.384L404.4 370.225L245.567 369.883C0.738876 369.968 64.4762 369.493 -33.6565 369.282C-75.5898 369.191 -98.6401 369.132 -113.579 369.109C-136.848 369.059 -144.654 369.706 -153.787 371.279C-216.7 382.115 -196.567 453.47 -203.657 448.883C-210.748 444.297 -203.499 434.5 -204.583 407.74C-205.244 391.422 -240.622 368.127 -204.483 361.353C-101.649 342.077 -51.2674 338.905 -25.9002 334.985C-3.75998 331.563 31.9117 325.053 48.1686 325.088C141.129 325.288 170.149 336.105 211.043 328.621C267.813 318.232 260.144 302.324 305.426 290.974C354.121 278.767 384.55 285.786 435.086 261.308Z" fill="#0F24B2"/>
</svg>
