<svg width="110" height="525" viewBox="0 0 110 525" fill="none" xmlns="http://www.w3.org/2000/svg">
<ellipse cx="11.5" cy="425" rx="98.5" ry="100" fill="#EFB33E"/>
<path d="M-0.11618 173.825C22.927 173.84 45.0323 164.7 61.3366 148.416C77.641 132.133 86.8089 110.039 86.8236 86.9958C86.8383 63.9526 77.6985 41.8474 61.4148 25.543C45.1312 9.23864 23.0376 0.0707006 -0.00557163 0.0560316L-0.0276979 34.8098C13.7982 34.8186 27.0544 40.3194 36.8246 50.102C46.5947 59.8846 52.0786 73.1478 52.0698 86.9737C52.061 100.8 46.5602 114.056 36.7776 123.826C26.995 133.596 13.7319 139.08 -0.0940613 139.071L-0.11618 173.825Z" fill="#EF96C3"/>
</svg>
