<svg width="375" height="484" viewBox="0 0 375 484" fill="none" xmlns="http://www.w3.org/2000/svg">
<path d="M554.916 76.5021C599.324 9.76096 661.435 1.56665 661.435 1.56665C661.435 1.56665 663.965 473.776 660.514 428.797C657.063 383.818 613.618 374.563 613.618 374.563C613.618 374.563 607.412 372.884 592.332 372.852L527.578 372.712L388.313 372.412C173.646 373.615 229.533 372.07 143.491 371.885C106.724 371.806 86.5132 371.737 73.4146 371.734C53.0128 371.69 45.9164 371.675 37.0389 374.987C5.08216 385.744 -2.95681 411.544 -4.40472 426.532C-5.85264 441.519 -4.25124 355.35 -4.25124 355.35C-4.25124 355.35 104.83 280.522 175.548 263.219C244.889 246.252 302.509 274.288 360.739 242.189C407.248 216.552 401.363 188.696 441.112 157.661C483.857 124.286 510.509 143.243 554.916 76.5021Z" fill="#9E4ACE"/>
<path d="M543.41 160.935C586.957 112.527 649.457 108.27 649.457 108.27C649.457 108.27 651.261 486.58 648.752 435.362C646.243 384.145 601.187 377.265 601.187 377.265C601.187 377.265 595.096 376.044 580.296 376.012L516.742 375.875L380.058 375.58C169.37 376.335 224.221 375.245 139.773 375.063C103.687 374.985 83.8514 374.924 70.9956 374.915C50.9718 374.871 44.0071 374.856 35.2959 377.255C-3.30048 391.832 -4.60299 425.554 -6.0158 436.43C-7.42862 447.305 -6.34714 362.84 -6.34714 362.84C-6.34714 362.84 101.778 308.741 171.176 296.223C239.222 283.949 295.79 304.326 352.923 281.064C398.555 262.485 392.764 242.268 431.759 219.768C473.694 195.572 499.862 209.344 543.41 160.935Z" fill="#EF96C3"/>
<path d="M540.908 235.297C584.507 201.269 648.288 198.317 648.288 198.317C648.288 198.317 649.172 464.461 646.625 428.428C644.079 392.394 598.934 387.525 598.934 387.525C598.934 387.525 592.83 386.662 578.002 386.63L514.329 386.492L377.387 386.197C166.304 386.593 221.257 385.861 136.65 385.679C100.496 385.601 80.6229 385.545 67.7429 385.53C47.6814 385.487 40.7036 385.472 31.9775 387.154C-6.68211 397.384 -7.96538 421.108 -9.37387 428.758C-10.7824 436.408 -45.7462 396.103 -9.26754 379.505C-2.10989 376.249 13.5188 368.897 24.4699 365.403C70.9818 347.993 132.697 339.587 168.061 330.234C228.892 314.147 292.915 336.015 350.14 319.687C395.847 306.646 390.032 292.419 429.086 276.614C471.083 259.619 497.31 269.325 540.908 235.297Z" fill="#EFB33E"/>
<path d="M542.631 280.233C585.908 253.939 649.239 251.686 649.239 251.686C649.239 251.686 651.785 492.097 647.661 446.951C643.537 401.805 600.321 397.985 600.321 397.985C600.321 397.985 594.26 397.314 579.536 397.282L516.309 397.146L380.327 396.853C170.723 397.059 225.291 396.519 141.277 396.338C105.377 396.261 85.6429 396.208 72.8532 396.191C52.9323 396.148 46.2485 396.846 38.4292 398.538C-15.4375 410.197 1.76559 486.772 -4.30256 481.853C-10.3707 476.933 -4.16027 466.416 -5.07594 437.695C-5.6343 420.181 -35.9112 395.195 -4.96865 387.908C83.0792 367.171 126.214 363.744 147.933 359.524C166.89 355.842 197.432 348.837 211.35 348.867C290.936 349.039 315.776 360.635 350.79 352.584C399.397 341.406 392.838 324.336 431.611 312.133C473.306 299.01 499.354 306.528 542.631 280.233Z" fill="#0F24B2"/>
</svg>
