<svg width="375" height="289" viewBox="0 0 375 289" fill="none" xmlns="http://www.w3.org/2000/svg">
<path d="M53.1267 45.0725C27.6484 4.99394 -8.0925 0 -8.0925 0C-8.0925 0 -10.1346 283.156 -8.09225 256.189C-6.04993 229.222 18.9686 223.729 18.9686 223.729C18.9686 223.729 22.5427 222.73 31.2226 222.73H68.4951H148.656C272.217 223.729 240.051 222.73 289.577 222.73C310.74 222.73 322.373 222.714 329.913 222.73C341.656 222.73 345.741 222.73 350.847 224.727C369.228 231.219 373.823 246.701 374.638 255.69C375.453 264.679 374.638 213.006 374.638 213.006C374.638 213.006 311.943 167.994 271.26 157.527C231.368 147.263 198.167 164 164.69 144.677C137.951 129.244 141.373 112.548 118.532 93.8861C93.9695 73.8176 78.605 85.1511 53.1267 45.0725Z" fill="#9E4ACE"/>
<path d="M59.6454 95.7177C34.6393 66.6334 -1.33008 64 -1.33008 64C-1.33008 64 -2.83743 290.851 -1.3299 260.142C0.177643 229.432 26.1204 225.365 26.1204 225.365C26.1204 225.365 29.6282 224.64 38.1472 224.64H74.7289H153.405C274.676 225.365 243.105 224.64 291.713 224.64C312.484 224.64 323.902 224.629 331.302 224.64C342.827 224.64 346.836 224.64 351.848 226.09C374.046 234.881 374.753 255.104 375.553 261.627C376.353 268.151 375.835 217.5 375.835 217.5C375.835 217.5 313.665 184.92 273.735 177.324C234.583 169.876 201.998 182.022 169.141 167.999C142.898 156.799 146.256 144.683 123.838 131.141C99.7311 116.577 84.6514 124.802 59.6454 95.7177Z" fill="#EBDFBB"/>
<path d="M60.9939 140.314C35.9408 119.853 -0.767639 118 -0.767639 118C-0.767639 118 -1.60657 277.593 -0.0961914 255.989C1.41418 234.385 27.4057 231.523 27.4057 231.523C27.4057 231.523 30.9202 231.013 39.4553 231.013H76.1058H154.93C276.429 231.523 244.799 231.013 293.499 231.013C314.309 231.013 325.748 231.006 333.162 231.013C344.709 231.013 348.726 231.013 353.746 232.033C375.986 238.218 376.695 252.445 377.497 257.034C378.298 261.624 398.473 237.5 377.496 227.5C373.381 225.538 364.394 221.109 358.095 219C331.344 208.5 295.831 203.379 275.487 197.725C240.493 188 203.614 201.03 170.695 191.165C144.403 183.286 147.768 174.762 125.308 165.235C101.155 154.989 86.0471 160.775 60.9939 140.314Z" fill="#EFB33E"/>
<path d="M59.9466 167.256C35.0691 151.433 -1.38177 150 -1.38177 150C-1.38177 150 -3.14523 294.16 -0.715515 267.093C1.7142 240.027 26.5939 237.792 26.5939 237.792C26.5939 237.792 30.0837 237.398 38.5589 237.398H74.9526H153.224C273.872 237.792 242.463 237.398 290.822 237.398C311.486 237.398 322.845 237.391 330.207 237.398C341.673 237.398 345.52 237.825 350.018 238.85C381.01 245.911 371.013 291.807 374.512 288.865C378.01 285.923 374.449 279.608 375.011 262.386C375.355 251.885 392.813 236.941 375.011 232.531C324.357 219.983 299.533 217.872 287.036 215.313C276.129 213.081 258.558 208.841 250.547 208.841C204.737 208.841 190.425 215.763 170.281 210.889C142.316 204.124 146.112 193.896 123.81 186.528C99.8266 178.605 84.8242 183.08 59.9466 167.256Z" fill="#0F24B2"/>
</svg>
