<svg width="375" height="275" viewBox="0 0 375 275" fill="none" xmlns="http://www.w3.org/2000/svg">
<path d="M319.018 46.2927C344.505 6.01834 380.258 1 380.258 1C380.258 1 382.301 285.54 380.258 258.441C378.215 231.342 353.188 225.822 353.188 225.822C353.188 225.822 349.613 224.818 340.93 224.818H303.645H223.457C99.8548 225.822 132.032 224.818 82.4895 224.818C61.3192 224.818 49.6821 224.803 42.1401 224.818C30.3928 224.818 26.3068 224.818 21.1993 226.825C2.8122 233.349 -1.78456 248.906 -2.59967 257.939C-3.41477 266.972 -2.59959 215.047 -2.59959 215.047C-2.59959 215.047 60.1156 169.815 100.813 159.296C140.718 148.983 173.93 165.802 207.418 146.384C234.166 130.875 230.743 114.098 253.591 95.3448C278.162 75.1782 293.532 86.5672 319.018 46.2927Z" fill="#EFB33E"/>
<path d="M223.457 224.818C99.8548 225.822 132.032 224.818 82.4895 224.818C61.3192 224.818 49.6821 224.803 42.1401 224.818C30.3928 224.818 26.3068 224.818 21.1993 226.825C2.8122 233.349 -1.78456 248.906 -2.59967 257.939C-3.41477 266.972 -2.59959 215.047 -2.59959 215.047C-2.59959 215.047 60.1156 169.815 100.813 159.296C140.718 148.983 173.93 165.802 207.418 146.384C234.166 130.875 230.743 114.098 253.591 95.3448C278.162 75.1782 293.532 86.5672 319.018 46.2927C344.505 6.01834 380.258 1 380.258 1C380.258 1 382.301 285.54 380.258 258.441C378.215 231.342 353.188 225.822 353.188 225.822C353.188 225.822 349.613 224.818 340.93 224.818C340.93 224.818 322.065 224.818 303.645 224.818M223.457 224.818C257.344 224.543 256.145 224.818 303.645 224.818M223.457 224.818H303.645" stroke="#EFB33E"/>
<path d="M318.614 97.0689C344.034 67.8779 380.598 65.2349 380.598 65.2349C380.598 65.2349 382.131 292.918 380.598 262.096C379.066 231.274 352.694 227.192 352.694 227.192C352.694 227.192 349.128 226.465 340.468 226.465H303.281H223.304C100.027 227.192 132.12 226.465 82.7073 226.465C61.5927 226.465 49.9863 226.453 42.4641 226.465C30.7477 226.465 26.6724 226.465 21.5784 227.919C-0.986831 236.743 -1.70644 257.04 -2.5194 263.587C-3.33236 270.134 -2.80604 219.298 -2.80604 219.298C-2.80604 219.298 60.3923 186.598 100.983 178.974C140.783 171.499 173.907 183.689 207.307 169.615C233.985 158.375 230.571 146.214 253.359 132.622C277.865 118.005 293.194 126.26 318.614 97.0689Z" fill="#EBDFBB"/>
<path d="M317.583 141.189C342.911 121.239 380.022 119.433 380.022 119.433C380.022 119.433 380.871 275.035 379.344 253.971C377.817 232.907 351.54 230.117 351.54 230.117C351.54 230.117 347.987 229.62 339.358 229.62H302.305H222.617C99.7843 230.117 131.761 229.62 82.5271 229.62C61.4887 229.62 49.9241 229.612 42.429 229.62C30.7548 229.62 26.6943 229.62 21.6186 230.614C-0.865249 236.644 -1.58226 250.516 -2.39229 254.99C-3.20232 259.464 -23.5989 235.944 -2.39216 226.194C1.76891 224.281 10.8543 219.963 17.2225 217.907C44.2667 207.669 80.1692 202.677 100.737 197.164C136.115 187.682 173.398 200.386 206.678 190.768C233.259 183.086 229.857 174.775 252.564 165.486C276.981 155.497 292.255 161.138 317.583 141.189Z" fill="#9E4ACE"/>
<path d="M320.808 178.685C346.135 166.688 384.854 165.602 384.854 165.602C384.854 165.602 385.717 284.323 383.244 263.801C380.77 243.28 354.763 232.162 354.763 232.162C354.763 232.162 351.21 231.863 342.582 231.863H305.531H225.846C103.02 232.162 134.996 231.863 85.764 231.863C64.7266 231.863 53.1627 231.859 45.668 231.863C33.9944 231.863 30.9314 232.229 26.817 234.353C-0.161669 248.28 5.35228 276.73 1.79018 274.5C-1.77192 272.269 0.627285 263.866 0.0544505 250.809C-0.294858 242.847 -12.0328 245.758 -1.48 237.879C20.3805 221.558 76.896 217.06 89.6181 215.12C100.722 213.427 118.611 210.213 126.767 210.213C173.403 210.213 187.974 215.461 208.482 211.766C236.951 206.636 233.087 198.882 255.792 193.296C280.208 187.289 295.481 190.682 320.808 178.685Z" fill="#0F24B2"/>
</svg>
