<svg width="375" height="451" viewBox="0 0 375 451" fill="none" xmlns="http://www.w3.org/2000/svg">
<path d="M-130.757 71.1926C-171.939 9.00805 -229.539 1.37265 -229.539 1.37265C-229.539 1.37265 -231.881 441.34 -228.681 399.432C-225.481 357.524 -185.191 348.902 -185.191 348.902C-185.191 348.902 -179.437 347.338 -165.452 347.308L-105.402 347.178L23.7469 346.9C222.821 348.023 170.993 346.583 250.786 346.411C284.882 346.337 303.624 346.273 315.771 346.271C334.691 346.23 341.272 346.216 349.505 349.302C379.14 359.325 386.596 383.364 387.938 397.328C389.281 411.292 387.795 331.007 387.795 331.007C387.795 331.007 286.637 261.286 221.056 245.164C156.752 229.355 103.318 255.476 49.3171 225.568C6.18646 201.681 11.6435 175.728 -25.2182 146.811C-64.8585 115.714 -89.5744 133.377 -130.757 71.1926Z" fill="#9E4ACE"/>
<path d="M-120.085 149.859C-160.47 104.755 -218.43 100.788 -218.43 100.788C-218.43 100.788 -220.099 453.267 -217.773 405.547C-215.447 357.827 -173.664 351.418 -173.664 351.418C-173.664 351.418 -168.015 350.279 -154.29 350.25L-95.3525 350.123L31.4028 349.85C226.786 350.555 175.92 349.538 254.234 349.37C287.698 349.298 306.093 349.241 318.015 349.232C336.584 349.192 343.043 349.178 351.122 351.413C386.914 364.995 388.123 396.415 389.433 406.548C390.743 416.681 389.739 337.983 389.739 337.983C389.739 337.983 289.468 287.577 225.111 275.913C162.007 264.476 109.549 283.461 56.566 261.787C14.2479 244.477 19.6181 225.64 -16.5445 204.675C-55.4329 182.131 -79.7004 194.962 -120.085 149.859Z" fill="#EF96C3"/>
<path d="M-117.763 219.146C-158.195 187.441 -217.343 184.69 -217.343 184.69C-217.343 184.69 -218.16 432.662 -215.799 399.089C-213.438 365.516 -171.572 360.98 -171.572 360.98C-171.572 360.98 -165.912 360.175 -152.161 360.146L-93.1125 360.018L33.8814 359.745C229.632 360.115 178.671 359.433 257.132 359.264C290.659 359.192 309.089 359.14 321.033 359.126C339.638 359.086 346.109 359.072 354.201 360.639C390.052 370.171 391.243 392.275 392.549 399.403C393.855 406.53 426.279 368.978 392.45 353.513C385.812 350.479 371.319 343.629 361.163 340.374C318.029 324.152 260.797 316.319 228.001 307.605C171.589 292.615 112.218 312.989 59.1485 297.776C16.762 285.624 22.1544 272.369 -14.0628 257.644C-53.0098 241.808 -77.3311 250.851 -117.763 219.146Z" fill="#EFB33E"/>
<path d="M-119.361 261.013C-159.494 236.514 -218.225 234.414 -218.225 234.414C-218.225 234.414 -220.584 458.411 -216.76 416.347C-212.936 374.283 -172.86 370.725 -172.86 370.725C-172.86 370.725 -167.239 370.1 -153.584 370.07L-94.9496 369.944L31.1543 369.672C225.533 369.866 174.929 369.363 252.84 369.195C286.132 369.123 304.433 369.074 316.294 369.058C334.767 369.018 340.966 369.669 348.217 371.246C398.171 382.109 382.218 453.455 387.846 448.872C393.473 444.288 387.713 434.489 388.562 407.729C389.08 391.411 417.157 368.132 388.462 361.342C306.81 342.02 266.809 338.826 246.667 334.894C229.087 331.463 200.763 324.937 187.856 324.964C114.052 325.123 91.0162 335.928 58.546 328.426C13.4695 318.011 19.5512 302.107 -16.4051 290.736C-55.0717 278.508 -79.2273 285.513 -119.361 261.013Z" fill="#0F24B2"/>
</svg>
