<svg width="24" height="24" viewBox="0 0 24 24" fill="none" xmlns="http://www.w3.org/2000/svg">
<path d="M18 0C14.7 0 12 2.64166 12 5.87036C12 6.84093 12.383 7.83106 12.875 8.92784C13.396 10.069 13.9802 11.1814 14.625 12.2603C15.4274 13.6065 16.2823 14.9221 17.188 16.2042L18 17.3665L18.813 16.2042C18.813 16.2042 20.102 14.4088 21.375 12.2612C22.0199 11.1821 22.6041 10.0693 23.125 8.92784C23.617 7.83106 24 6.84093 24 5.87036C24 2.64166 21.3 0 18 0ZM7.969 1.89613L0 5.22854V24L8.031 20.6069L16.031 23.5421L24 20.2087V11.6791C23.38 12.8259 22.7128 13.9478 22 15.0418V18.9251L17 21.0042V19.4143L15.531 17.3352C15.375 17.1131 15.191 16.8499 15 16.5701V21.0951L9 18.8938V4.34211L10.094 4.74032C10.1873 4.08864 10.3657 3.45138 10.625 2.84419L7.969 1.89613ZM18 1.95679C20.219 1.95679 22 3.69931 22 5.87036C22 6.249 21.758 7.14227 21.312 8.13339C20.867 9.12254 20.238 10.2467 19.625 11.2819C18.809 12.6575 18.457 13.1467 18 13.8198C17.543 13.1467 17.191 12.6575 16.375 11.2819C15.762 10.2467 15.133 9.12254 14.687 8.13241C14.242 7.14423 14 6.249 14 5.87036C14 3.69931 15.781 1.95679 18 1.95679ZM7 4.40277V18.9261L2 21.0051V6.51219L7 4.40277ZM18 4.40277C17.6022 4.40277 17.2206 4.55739 16.9393 4.83262C16.658 5.10785 16.5 5.48113 16.5 5.87036C16.5 6.25959 16.658 6.63288 16.9393 6.90811C17.2206 7.18333 17.6022 7.33795 18 7.33795C18.3978 7.33795 18.7794 7.18333 19.0607 6.90811C19.342 6.63288 19.5 6.25959 19.5 5.87036C19.5 5.48113 19.342 5.10785 19.0607 4.83262C18.7794 4.55739 18.3978 4.40277 18 4.40277Z" fill="white"/>
</svg>
