<svg width="25" height="25" viewBox="0 0 25 25" fill="none" xmlns="http://www.w3.org/2000/svg">
<circle cx="12.5" cy="12.5" r="12.5" fill="white"/>
<path d="M8.6373 4.53169L9.53396 4.24502C10.3756 3.97669 11.2731 4.41086 11.634 5.25919L12.3498 6.94919C12.6615 7.68502 12.489 8.55086 11.9215 9.08919L10.3431 10.5875C10.4398 11.4842 10.7415 12.3667 11.2465 13.235C11.7263 14.0752 12.3698 14.8105 13.139 15.3975L15.0348 14.7642C15.754 14.525 16.5365 14.8009 16.9765 15.4484L18.004 16.9567C18.5165 17.71 18.4248 18.7484 17.789 19.3867L17.1073 20.0709C16.429 20.7517 15.4598 20.9992 14.564 20.7192C12.4481 20.0592 10.5031 18.1 8.72813 14.8417C6.95063 11.5784 6.32313 8.80836 6.84647 6.53502C7.06647 5.57836 7.7473 4.81586 8.6373 4.53169Z" fill="#0F24B2"/>
</svg>
