<svg width="13" height="18" viewBox="0 0 13 18" fill="none" xmlns="http://www.w3.org/2000/svg">
<path d="M2.88867 3.61111C2.88867 2.65338 3.26913 1.73488 3.94634 1.05767C4.62356 0.380455 5.54206 0 6.49978 0C7.45751 0 8.37601 0.380455 9.05322 1.05767C9.73044 1.73488 10.1109 2.65338 10.1109 3.61111V8.66667C10.1109 9.62439 9.73044 10.5429 9.05322 11.2201C8.37601 11.8973 7.45751 12.2778 6.49978 12.2778C5.54206 12.2778 4.62356 11.8973 3.94634 11.2201C3.26913 10.5429 2.88867 9.62439 2.88867 8.66667V3.61111ZM6.49978 1.44444C5.92515 1.44444 5.37405 1.67272 4.96772 2.07905C4.56139 2.48538 4.33312 3.03648 4.33312 3.61111V8.66667C4.33312 9.2413 4.56139 9.7924 4.96772 10.1987C5.37405 10.6051 5.92515 10.8333 6.49978 10.8333C7.07442 10.8333 7.62552 10.6051 8.03185 10.1987C8.43818 9.7924 8.66645 9.2413 8.66645 8.66667V3.61111C8.66645 3.03648 8.43818 2.48538 8.03185 2.07905C7.62552 1.67272 7.07442 1.44444 6.49978 1.44444Z" fill="#0F24B2"/>
<path d="M0.722222 7.94531C0.913768 7.94531 1.09747 8.0214 1.23291 8.15685C1.36835 8.29229 1.44444 8.47599 1.44444 8.66753C1.44444 10.0084 1.97708 11.2943 2.92518 12.2424C3.87328 13.1905 5.15918 13.7231 6.5 13.7231C7.84082 13.7231 9.12672 13.1905 10.0748 12.2424C11.0229 11.2943 11.5556 10.0084 11.5556 8.66753C11.5556 8.47599 11.6316 8.29229 11.7671 8.15685C11.9025 8.0214 12.0862 7.94531 12.2778 7.94531C12.4693 7.94531 12.653 8.0214 12.7885 8.15685C12.9239 8.29229 13 8.47599 13 8.66753C13.0003 10.2666 12.4112 11.8097 11.3452 13.0017C10.2793 14.1936 8.81139 14.9509 7.22222 15.1285V16.612C7.22222 16.8035 7.14613 16.9872 7.01069 17.1227C6.87525 17.2581 6.69155 17.3342 6.5 17.3342C6.30845 17.3342 6.12475 17.2581 5.98931 17.1227C5.85387 16.9872 5.77778 16.8035 5.77778 16.612V15.1285C4.18861 14.9509 2.7207 14.1936 1.65477 13.0017C0.588839 11.8097 -0.000306914 10.2666 1.19948e-07 8.66753C1.19948e-07 8.47599 0.0760913 8.29229 0.211534 8.15685C0.346977 8.0214 0.530677 7.94531 0.722222 7.94531Z" fill="#0F24B2"/>
</svg>
