<svg width="337" height="251" viewBox="0 0 337 251" fill="none" xmlns="http://www.w3.org/2000/svg">
<path d="M56.8157 39.7687C34.6734 5.1487 0.91888 0.994614 0.91888 0.994614C0.91888 0.994614 1.08321 245.826 2.8019 222.496C4.52059 199.166 27.563 194.368 27.563 194.368C27.563 194.368 30.6568 193.497 38.1748 193.481L70.4579 193.411L139.889 193.262C246.912 193.895 219.049 193.091 261.945 192.999C280.276 192.959 290.352 192.924 296.882 192.924L296.882 192.924C307.053 192.902 310.591 192.894 315.017 194.612C330.95 200.194 334.959 213.576 335.681 221.35C336.404 229.124 336 184.498 336 184.498C336 184.498 281.216 145.611 245.958 136.633C211.388 127.83 182.663 142.369 153.63 125.717C130.442 112.418 133.375 97.9695 113.557 81.8699C92.2448 64.5567 78.9581 74.3886 56.8157 39.7687Z" fill="#9E4ACE"/>
<path d="M62.5277 83.5668C40.893 58.4561 1.00772 55.9984 1.00772 55.9984C1.00772 55.9984 1.25177 252.561 2.49557 225.995C3.73936 199.43 33.8368 195.771 33.8368 195.771C33.8368 195.771 36.8627 195.137 44.2147 195.121L75.7852 195.053L143.683 194.907C248.343 195.309 221.096 194.74 263.045 194.65C280.971 194.611 290.824 194.58 297.21 194.576C307.157 194.555 310.617 194.547 314.944 195.792C334.118 203.355 334.767 220.846 335.469 226.487C336.171 232.128 335.999 188.498 335.999 188.498C335.999 188.498 281.916 160.252 247.442 153.756C213.639 147.386 185.54 157.953 157.158 145.885C134.489 136.246 137.365 125.76 117.993 114.087C97.161 101.535 84.1624 108.677 62.5277 83.5668Z" fill="#EF96C3"/>
<path d="M61.6985 121.72C40.6288 103.997 1.12518 101.998 1.12518 101.998C1.12518 101.998 0.87147 246.253 2.09896 227.489C3.32646 208.726 33.6728 200.985 33.6728 200.985C33.6728 200.985 36.6221 200.536 43.7871 200.52L74.5542 200.454L140.724 200.311C242.721 200.535 216.167 200.149 257.049 200.061C274.519 200.023 284.122 199.996 290.345 199.989C300.039 199.968 303.411 199.961 307.627 200.838C326.309 206.168 328.319 202.015 329 205.999C329.681 209.982 345.184 205.504 327.557 196.858C324.098 195.162 316.545 191.332 311.253 189.512C288.777 180.442 258.956 176.06 241.867 171.187C212.472 162.805 181.538 174.187 153.885 165.68C131.798 158.885 134.607 151.477 115.735 143.244C95.44 134.391 82.7682 139.443 61.6985 121.72Z" fill="#EFB33E"/>
<path d="M61.7294 145.447C40.663 131.805 1.06607 130.497 1.06607 130.497C1.06607 130.497 0.495899 257.417 2.50008 234C4.50427 210.583 33.6572 206.52 33.6572 206.52C33.6572 206.52 36.6075 206.172 43.7743 206.157L74.5494 206.091L140.737 205.948C242.76 206.069 216.199 205.786 257.092 205.697C274.566 205.66 284.172 205.634 290.397 205.626C300.093 205.605 303.346 205.967 307.153 206.846C333.372 212.897 329.047 252.551 332 250C334.953 247.449 336 223.5 336 223.5L336 205C336 205 264.422 188.792 253.85 186.602C244.623 184.691 229.756 181.055 222.982 181.07C184.244 181.153 172.154 187.167 155.111 182.988C131.452 177.187 134.642 168.333 115.769 162.001C95.4739 155.191 82.7958 159.089 61.7294 145.447Z" fill="#0F24B2"/>
</svg>
