<svg width="375" height="780" viewBox="0 0 375 780" fill="none" xmlns="http://www.w3.org/2000/svg">
<path fill-rule="evenodd" clip-rule="evenodd" d="M171.724 248.779L334.773 87.1361L334.876 87.1213L334.865 87.0451L388.173 34.1966L378.317 24.2543L332.38 69.7953L326.732 30.5969L438.118 13.8449L436.036 0.000577927L324.735 16.7397L321.576 -5.18945L307.719 -3.19293L310.891 18.8219L219.523 32.5632L213.697 -1.73683L208.515 -0.856682L214.325 33.345L86.0144 52.6424L77.8072 -4.31999L63.9503 -2.32347L72.1698 54.7246L-120 83.6261L-117.918 97.4705L74.1664 68.5817L87.8547 163.585L-61 189.65L-60.0935 194.827L88.6045 168.79L102.196 263.125L-3.56323 281.643L-2.65673 286.82L102.946 268.329L106.592 293.635L-21 420.127L-11.1435 430.069L40.7271 378.646L87.6739 428.858L23.2491 492.047L-93.2972 380.001L-103 390.093L13.2499 501.854L-5.55615 520.299L-1.87594 524.051L17.0403 505.498L50.5147 537.68L-8.89307 595.948L-5.21285 599.7L54.3051 541.324L97.8184 583.157L-30 709.873L-20.1435 719.815L107.914 592.863L146.785 630.233L90.5866 685.353L66.9883 659.07L66.9999 659.001L66.9133 658.986L55.1682 645.904L54.3908 646.602L66.3806 659.956L62.1073 685.507C62.0839 685.505 62.0605 685.504 62.0372 685.502L61.9775 685.497L61.9185 685.507C35.1961 689.927 20.9211 701.669 13.9843 714.627C7.0609 727.56 7.49163 741.623 10.0186 750.635L10.121 751.001H10.5001H89.5H89.7564L89.906 750.792L101.406 734.792L101.472 734.7L101.492 734.588C101.527 734.393 101.561 734.198 101.593 734.005L176.352 658.658L233.682 713.775L184.473 762.56L194.329 772.502L243.777 723.48L302.347 779.788L312.05 769.696L253.723 713.621L373.259 595.115L462.949 687.848L473.012 678.115L383.202 585.258L386.821 581.671L376.965 571.728L373.469 575.194L333.777 534.156L460.614 409.753L456.934 406.001L330.123 530.378L294.087 493.119L345.104 443.081L376.565 474.736L386.495 464.866L355.099 433.277L384.645 404.298L380.965 400.546L351.394 429.55L312.312 390.228L344.49 358.327L376.891 391.393L383.253 385.158L350.816 352.056L412.921 290.486L403.065 280.544L341.017 342.056L297.204 297.345L380.616 212.035L376.859 208.361L293.524 293.59L282.732 282.577C281.011 280.82 278.191 280.792 276.434 282.513C274.677 284.235 274.649 287.055 276.37 288.812L287.295 299.961L255.21 332.776L218.007 295.345L405.948 111.009L402.268 107.257L214.302 291.617L171.724 248.779ZM100.549 734.175L100.012 734.717L100.138 734.843L89.2436 750.001H10.8811C8.49837 741.168 8.18201 727.585 14.8659 715.099C21.624 702.475 35.5832 690.891 62.0225 686.504C68.6813 687.009 77.8882 689.368 85.7207 694.698L67.6477 712.646L67.6153 712.678L67.5893 712.715C64.3703 717.351 64.1264 722.125 65.7922 726.063C67.4509 729.983 70.9855 733.034 75.2551 734.293C79.5353 735.554 84.5535 735.014 89.1727 731.761C93.512 728.705 97.466 723.28 100.158 714.782C101.566 720.229 101.859 726.646 100.549 734.175ZM101.761 732.955L117.595 716.996C117.584 716.986 117.573 716.975 117.563 716.964L66.7679 660.388L62.5606 685.544C69.4594 686.145 78.8522 688.651 86.7872 694.219C92.8441 698.47 98.0596 704.512 100.649 712.852C102.396 718.479 102.94 725.131 101.761 732.955ZM363.526 585.051L323.782 543.96L251.014 615.332C250.941 615.408 250.865 615.483 250.787 615.555L250.575 615.762L250.564 615.751C250.468 615.831 250.369 615.907 250.27 615.98C249.757 616.354 249.304 616.811 248.931 617.338C248.063 618.562 247.691 620.07 247.891 621.558C248.091 623.046 248.848 624.402 250.009 625.354C250.508 625.763 251.066 626.084 251.659 626.309C252.968 626.807 254.22 627.817 254.31 629.215C254.399 630.612 253.326 631.848 251.945 631.616C250.068 631.301 248.29 630.501 246.795 629.276C244.641 627.511 243.237 624.994 242.865 622.234C242.494 619.474 243.184 616.676 244.795 614.404C245.416 613.528 246.156 612.756 246.988 612.105L246.895 612.01L320.128 540.182L284.092 502.922L160.575 624.07L243.627 703.915L363.526 585.051ZM156.784 620.426L117.859 583.003L242.262 459.673L280.438 499.145L156.784 620.426ZM290.433 489.341L252.205 449.816L302.369 400.084L341.399 439.353L290.433 489.341ZM242.471 439.752L292.5 390.155L251.001 348.401L201.283 397.166L242.471 439.752ZM334.691 348.328L302.442 380.298L258.915 336.504L290.975 303.715L334.691 348.328ZM171.157 510.451L232.528 449.609L191.288 406.97L130.317 466.771L148.792 486.531L181.742 453.321C182.043 453.018 182.531 453.017 182.833 453.317C183.136 453.617 183.138 454.105 182.838 454.407L149.846 487.658L171.157 510.451ZM107.764 573.298L167.423 514.153L126.563 470.452L64.3043 531.517L107.764 573.298ZM118.33 716.255L94.1012 689.268L150.576 633.877L175.904 658.228L118.33 716.255ZM269.933 131.703L320.003 82.0652L312.887 32.6791L221.868 46.368L237.333 137.411L269.933 131.703ZM118.969 281.365L138.376 262.125L116.743 265.913L118.969 281.365ZM115.993 260.709L144.913 255.645L263.397 138.183L102.401 166.374L115.993 260.709ZM101.651 161.17L232.156 138.318L216.67 47.1498L88.011 66.4996L101.651 161.17ZM126.726 462.931L187.634 403.192L103.604 316.311L44.4611 374.944L126.726 462.931ZM122.973 466.612L91.2644 432.698L27.0395 495.691L60.5139 527.873L122.973 466.612ZM247.296 344.674L208.012 305.149L158.886 353.331L197.629 393.388L247.296 344.674ZM204.307 301.421L161.782 258.635L113.547 306.454L155.232 349.553L204.307 301.421ZM68.3849 713.323L86.5538 695.28C92.2822 699.388 97.1713 705.143 99.6495 713.007C97.0018 722.223 92.9471 727.88 88.5969 730.943C84.2304 734.018 79.529 734.51 75.5378 733.333C71.5359 732.154 68.2473 729.299 66.7132 725.673C65.1905 722.074 65.3786 717.675 68.3849 713.323Z" fill="white"/>
</svg>
