<svg width="49" height="19" viewBox="0 0 49 19" fill="none" xmlns="http://www.w3.org/2000/svg">
<path d="M3.70041 5.87526C3.60394 5.87526 3.58097 5.82779 3.62844 5.75583L4.13069 5.10964C4.17816 5.03767 4.28994 4.9902 4.38641 4.9902H12.9048C13.0012 4.9902 13.0242 5.06217 12.9767 5.13414L12.5694 5.75583C12.5418 5.79508 12.5062 5.82814 12.4651 5.85292C12.424 5.8777 12.3782 5.89365 12.3305 5.89976L3.70041 5.87526ZM0.0958452 8.06954C-0.000623543 8.06954 -0.0235923 8.02207 0.0238765 7.95011L0.526126 7.30392C0.573595 7.23961 0.693033 7.19214 0.789501 7.19214H11.6675C11.764 7.19214 11.8114 7.26411 11.7869 7.33607L11.5955 7.90264C11.571 7.99911 11.4761 8.04658 11.3796 8.04658L0.0958452 8.06954ZM5.86866 10.2623C5.77219 10.2623 5.74922 10.1903 5.79669 10.126L6.13203 9.52729C6.1795 9.45532 6.27597 9.38336 6.37091 9.38336H11.1408C11.2372 9.38336 11.2847 9.45533 11.2847 9.55026L11.2372 10.1245C11.2372 10.221 11.1408 10.2914 11.0703 10.2914L5.86866 10.2623ZM30.632 5.44498C29.1329 5.82779 28.1039 6.11567 26.6202 6.49848C26.2618 6.59495 26.245 6.61792 25.9265 6.25961C25.5758 5.85229 25.3125 5.58892 24.8102 5.35004C23.3035 4.61657 21.8518 4.82329 20.4952 5.70836C18.8674 6.76186 18.039 8.30842 18.062 10.2378C18.0773 12.1519 19.3942 13.7229 21.2761 13.9863C22.9038 14.2022 24.259 13.628 25.3354 12.4152C25.5513 12.1519 25.7428 11.8655 25.9816 11.5302H21.3726C20.878 11.5302 20.7509 11.2193 20.9178 10.812C21.2929 9.9308 21.7 9.06354 22.1382 8.21195C22.1911 8.09767 22.2755 8.00091 22.3816 7.93308C22.4877 7.86525 22.611 7.82918 22.7369 7.82914H31.4222C31.3747 8.47533 31.3747 9.12151 31.2782 9.7677C31.0289 11.466 30.3541 13.0736 29.3167 14.4411C27.6017 16.7058 25.3615 18.1176 22.521 18.4928C20.1843 18.8036 18.0069 18.3488 16.1005 16.9217C14.338 15.5895 13.3335 13.8194 13.0701 11.6266C12.7669 9.02658 13.5249 6.68989 15.1036 4.63189C16.7941 2.41464 19.0359 1.01048 21.7783 0.508232C24.0201 0.100919 26.173 0.364295 28.1024 1.67198C29.3703 2.50958 30.2722 3.65801 30.8694 5.03767C31.0133 5.25358 30.9168 5.37301 30.6305 5.44498H30.632ZM38.5272 18.6444C36.3574 18.5892 34.3805 17.9737 32.7053 16.5389C31.3177 15.3678 30.4025 13.7327 30.1298 11.9375C29.6995 9.24248 30.4406 6.85679 32.0592 4.72836C33.8063 2.43914 35.9026 1.25089 38.7431 0.748637C41.1762 0.318356 43.4639 0.557231 45.5464 1.96904C47.4283 3.25376 48.6013 4.99173 48.9044 7.28095C49.3118 10.5027 48.3853 13.1273 46.1604 15.3751C44.5894 16.9707 42.66 17.9752 40.4336 18.4223C39.795 18.5494 39.1488 18.5663 38.5272 18.6459V18.6444ZM44.2066 9.00207C44.1821 8.69123 44.1821 8.45236 44.1346 8.21195C43.7043 5.85076 41.5345 4.52011 39.2698 5.03767C37.0526 5.53992 35.6178 6.95173 35.091 9.19348C34.6684 11.0524 35.5703 12.942 37.293 13.6999C38.6007 14.2742 39.9175 14.2022 41.1762 13.556C43.0658 12.5745 44.0871 11.0524 44.2066 9.00207Z" fill="white"/>
</svg>
