<svg width="160" height="123" viewBox="0 0 160 123" fill="none" xmlns="http://www.w3.org/2000/svg">
<path fill-rule="evenodd" clip-rule="evenodd" d="M39.8416 14.268C41.812 15.4552 43.7482 16.0288 44.657 15.7947C46.9358 15.2075 47.1455 6.87406 45.3822 3.58874C43.6188 0.303455 34.554 -1.1285 34.0972 5.38072C33.9386 7.63987 34.8875 9.65602 36.2896 11.3012L33.7754 23.0145H41.0784L39.8416 14.268Z" fill="#B28B67"/>
<path fill-rule="evenodd" clip-rule="evenodd" d="M44.4155 2.46543C44.5784 2.52007 44.4155 1.82046 44.0265 1.5646C42.8335 0.779984 39.282 -0.381248 36.8534 0.122664C35.2268 0.460232 33.1977 1.30761 31.8984 2.38777C30.7267 3.36155 29.6611 5.07827 29.2461 6.58647C28.8107 8.17011 28.6463 10.3737 29.2461 11.7553C29.961 13.4008 32.4921 15.1742 32.559 15.4097C32.6352 15.6784 32.3362 16.7284 32.1171 17.8348C31.8984 18.9412 31.998 21.7581 32.1171 22.2175C32.3078 22.9516 33.3303 23.3129 33.7759 23.3658C36.241 23.6595 38.0277 26.7181 38.7712 27.5007C38.7712 27.5007 43.7362 32.4832 45.7013 31.8346C46.0462 31.7207 45.5293 27.5933 45.1844 25.8241C44.8395 24.055 41.4577 20.898 41.2413 19.8577C41.1137 19.2449 41.0924 18.178 41.0789 18.1293C40.76 15.9314 40.8149 15.7527 40.3497 14.857C39.8845 13.9614 39.5238 13.9088 39.6357 13.6479C40.1818 12.3731 41.939 8.47269 42.3376 7.19727C42.8128 5.67718 42.5882 6.17648 43.0779 4.66153C43.2949 3.99069 43.5709 2.18171 44.4155 2.46543Z" fill="#89C5CC"/>
<mask id="mask0" mask-type="alpha" maskUnits="userSpaceOnUse" x="28" y="0" width="18" height="32">
<path fill-rule="evenodd" clip-rule="evenodd" d="M44.4155 2.46543C44.5784 2.52007 44.4155 1.82046 44.0265 1.5646C42.8335 0.779984 39.282 -0.381248 36.8534 0.122664C35.2268 0.460232 33.1977 1.30761 31.8984 2.38777C30.7267 3.36155 29.6611 5.07827 29.2461 6.58647C28.8107 8.17011 28.6463 10.3737 29.2461 11.7553C29.961 13.4008 32.4921 15.1742 32.559 15.4097C32.6352 15.6784 32.3362 16.7284 32.1171 17.8348C31.8984 18.9412 31.998 21.7581 32.1171 22.2175C32.3078 22.9516 33.3303 23.3129 33.7759 23.3658C36.241 23.6595 38.0277 26.7181 38.7712 27.5007C38.7712 27.5007 43.7362 32.4832 45.7013 31.8346C46.0462 31.7207 45.5293 27.5933 45.1844 25.8241C44.8395 24.055 41.4577 20.898 41.2413 19.8577C41.1137 19.2449 41.0924 18.178 41.0789 18.1293C40.76 15.9314 40.8149 15.7527 40.3497 14.857C39.8845 13.9614 39.5238 13.9088 39.6357 13.6479C40.1818 12.3731 41.939 8.47269 42.3376 7.19727C42.8128 5.67718 42.5882 6.17648 43.0779 4.66153C43.2949 3.99069 43.5709 2.18171 44.4155 2.46543Z" fill="white"/>
</mask>
<g mask="url(#mask0)">
<path fill-rule="evenodd" clip-rule="evenodd" d="M37.5983 7.54461C37.4836 5.23143 37.5983 4.32771 38.1322 2.63477H37.8031C37.2827 3.30663 36.8475 5.36165 37.3367 7.54461H37.5983ZM31.1481 7.43562V7.43556C31.0906 7.29512 31.0319 7.15135 30.9711 7.00387L30.7617 7.10436C31.422 9.51817 32.2251 11.3815 34.9826 12.9437L35.1972 12.7936C32.589 10.9606 32.03 9.59267 31.1481 7.43562ZM35.0582 4.54864C35.0856 4.758 35.1122 4.96188 35.1379 5.16102C35.5342 8.21901 35.7857 10.1582 37.9955 13.6752L37.7449 13.7517C35.3228 10.4901 34.9388 7.82809 34.8243 4.56745L35.0582 4.54864ZM32.6725 14.4608L32.4582 14.7211C33.5314 14.9456 34.2609 15.7345 35.0976 16.6389C35.9825 17.5958 36.9871 18.682 38.6447 19.3658L38.9522 19.1795C37.1431 18.2392 36.3017 17.3047 35.5666 16.4887C34.8059 15.644 34.1596 14.9263 32.6725 14.4608Z" fill="black" fill-opacity="0.2"/>
</g>
<path fill-rule="evenodd" clip-rule="evenodd" d="M27.8867 48.2598C28.4352 55.745 63.7812 77.7828 63.9874 78.4011C64.1249 78.8134 52.9857 104.462 52.9857 104.462L56.0755 105.663C56.0755 105.663 73.1612 78.4983 72.2836 75.6039C71.0272 71.4599 44.8591 48.3392 44.8591 48.3392L27.8867 48.2598Z" fill="#B28B67"/>
<path fill-rule="evenodd" clip-rule="evenodd" d="M53.7992 100.6L58.8439 102.436C69.4808 90.4387 73.6503 80.54 72.8901 75.4968C72.1299 70.4533 45.5602 48.2773 45.5602 48.2773H27.5254C28.1407 65.6125 60.9019 78.4665 61.3402 79.2051C61.7783 79.944 57.4661 87.1789 53.7992 100.6Z" fill="#2F3676"/>
<path fill-rule="evenodd" clip-rule="evenodd" d="M52.7384 103.823C52.4919 103.586 52.095 103.59 51.8751 103.852C51.4572 104.35 50.8504 105.123 50.6713 105.614C50.3898 106.388 50.1074 107.964 50.1074 107.964C51.0049 108.291 66.235 113.832 66.235 113.832C66.235 113.832 67.6198 111.983 66.3258 111.325C65.0318 110.667 64.1846 110.207 64.1846 110.207L57.8958 104.131C57.7775 104.017 57.5883 104.022 57.4773 104.144L56.5615 105.146C56.5615 105.146 55.0949 105.275 54.3107 104.99C53.8265 104.813 53.1697 104.238 52.7384 103.823Z" fill="#E4E4E4"/>
<path fill-rule="evenodd" clip-rule="evenodd" d="M31.9498 48.2598L16.2041 86.0449L0.728516 117.989H4.3797L44.3264 48.2598H31.9498Z" fill="#997659"/>
<path fill-rule="evenodd" clip-rule="evenodd" d="M1.32959 116.164C1.01691 116.025 0.645113 116.164 0.528093 116.486C0.305648 117.096 0 118.03 0 118.553C0 119.376 0.274254 120.955 0.274254 120.955C1.22907 120.955 17.4366 120.955 17.4366 120.955C17.4366 120.955 18.1056 118.744 16.6643 118.568C15.223 118.391 14.2696 118.249 14.2696 118.249L6.28111 114.69C6.13085 114.622 5.95496 114.693 5.89226 114.845L5.37471 116.1C5.37471 116.1 4.04041 116.722 3.20618 116.722C2.69073 116.722 1.87652 116.406 1.32959 116.164Z" fill="#E4E4E4"/>
<path fill-rule="evenodd" clip-rule="evenodd" d="M2.12695 111.353L10.2399 112.874C16.5129 103.655 42.7652 65.856 45.6435 48.2598H27.5824C17.9701 60.9801 8.10636 101.982 2.12695 111.353Z" fill="#5C63AB"/>
<path fill-rule="evenodd" clip-rule="evenodd" d="M68.878 13.5738L57.3445 17.0347L60.2891 21.9383L69.2568 16.6629C73.4428 16.4138 75.4208 16.0011 75.1904 15.4249C74.9962 14.939 74.5339 14.8562 74.1081 14.78C73.7766 14.7206 73.4671 14.6652 73.3234 14.4262C72.9957 13.8806 74.1443 12.4603 75.292 11.159C76.4395 9.8577 75.5213 9.79708 74.9664 9.90145C73.0591 10.6755 71.0297 11.8996 68.878 13.5738ZM66.0315 44.4857L56.3253 37.3611L54.1797 42.6631L63.7913 46.6471C66.5098 49.839 68.0296 51.1696 68.3514 50.6389C68.6228 50.1915 68.4107 49.7727 68.2154 49.3867C68.0632 49.0862 67.9213 48.8058 68.0258 48.5474C68.2644 47.9574 70.0905 48.0196 71.8209 48.1525C73.5512 48.2857 73.0468 47.5162 72.6298 47.1359C70.8636 46.0793 68.6639 45.1956 66.0315 44.4857Z" fill="#B28B67"/>
<path fill-rule="evenodd" clip-rule="evenodd" d="M41.2495 18.1741C46.5354 28.0258 54.1786 35.5779 65.2594 43.4285L61.0637 48.1572C48.6918 43.5613 42.1618 40.7884 38.9552 31.4806C38.1507 29.1446 37.5882 21.6976 37.1055 17.7793L41.2495 18.1741Z" fill="#2026A2"/>
<path fill-rule="evenodd" clip-rule="evenodd" d="M26.4727 50.9968H49.9029C49.9029 50.9968 41.9419 26.7272 41.7693 17.6823C41.7635 17.3749 41.1955 16.8332 40.944 16.9042C38.1878 17.6823 35.0449 16.3223 35.0449 16.3223C29.4903 25.2521 27.5696 36.2462 26.4727 50.9968Z" fill="#F2F2F2"/>
<path fill-rule="evenodd" clip-rule="evenodd" d="M40.922 29.9472C44.5816 45.6378 44.4128 58.4823 36.3338 58.4823H23.8407C21.8566 45.1531 27.0715 26.672 31.9059 17.3504C32.0905 16.9945 32.4836 16.3234 33.4093 16.3234H37.0394C37.0411 16.3282 37.0426 16.333 37.0443 16.3378C38.1366 16.3468 39.3398 16.3867 40.6423 16.4299C47.3492 16.6525 56.7009 16.9628 67.2236 13.5859L68.4642 19.7828C58.9665 25.8887 49.3491 30.6189 40.922 29.9472Z" fill="#1F28CF"/>
<path fill-rule="evenodd" clip-rule="evenodd" d="M118.944 15.1269C116.733 15.7653 114.714 15.819 113.897 15.3573C111.848 14.1995 113.805 6.08435 116.36 3.36284C118.915 0.641335 128.042 1.60238 126.796 8.017C126.364 10.2433 124.924 11.9479 123.144 13.1764L122.536 25.1573L115.482 23.2672L118.944 15.1269Z" fill="#915B3C"/>
<path fill-rule="evenodd" clip-rule="evenodd" d="M115.312 4.61145C115.492 4.21825 115.785 3.80656 116.027 3.45378C116.34 2.99898 116.73 2.61805 117.14 2.27041C117.913 1.61592 118.775 1.06916 119.674 0.664457C121.317 -0.0748092 123.202 -0.249828 124.834 0.408281C125.657 0.740533 126.397 1.28729 126.956 2.01712C127.46 2.67654 127.879 3.56034 128.689 3.83267C129.569 4.12894 130.603 3.55748 131.452 3.26118C132.41 2.92717 133.379 2.7565 134.368 2.8541C136.024 3.01767 137.37 3.95325 138.114 5.54866C138.905 7.24639 139.206 9.50563 137.95 11.1375C137.717 11.4409 137.457 11.6797 137.131 11.848C136.832 12.0023 136.403 12.1367 136.211 12.4601C136.008 12.8039 136.189 13.366 136.219 13.7334C136.262 14.2597 136.268 14.8017 136.078 15.3103C135.766 16.1455 135.009 16.8197 134.289 17.2309C133.557 17.6494 132.757 17.7876 131.957 17.7353C131.422 17.7005 130.888 17.6173 130.382 17.4412C130.131 17.3536 129.924 17.2218 129.691 17.0987C129.465 16.9789 129.313 17.0069 129.072 17.0846C127.956 17.4453 126.87 17.4094 125.796 17.0235C124.89 16.6979 123.882 16.1867 123.296 15.3484C122.645 14.4174 122.923 13.4482 123.399 12.461C123.162 12.5087 122.566 12.4178 123.023 12.0966C123.204 11.9694 123.481 11.9721 123.683 11.9228C123.917 11.8654 124.164 11.776 124.372 11.6355C125.213 11.068 124.967 9.3892 124.227 8.92488C123.126 8.23506 122.403 9.86099 121.429 10.0708C120.869 10.1914 120.446 9.70825 120.172 9.25699C119.804 8.6525 119.635 7.93683 119.515 7.22248C119.416 6.63416 119.336 6.04293 119.231 5.45599C119.183 5.18191 118.973 4.38769 119.245 4.16539C118.432 3.76375 117.379 3.8647 116.514 4.13507C116.156 4.24686 115.866 4.398 115.611 4.69628C115.556 4.76021 115.422 4.95766 115.324 4.94098C115.142 4.90997 115.266 4.71024 115.312 4.61145Z" fill="#191847"/>
<path fill-rule="evenodd" clip-rule="evenodd" d="M130.309 79.4488C130.309 79.4488 119.359 82.5143 111.415 82.5143C103.471 82.5143 96.6567 77.7932 96.6567 77.7932C96.6567 77.7932 107.372 74.6465 114.305 74.6465C121.239 74.6465 130.309 79.4488 130.309 79.4488Z" fill="#1F28CF"/>
<path fill-rule="evenodd" clip-rule="evenodd" d="M105.095 85.4612C105.165 85.3552 105.225 85.2398 105.272 85.1151C106.248 82.532 121.876 54.6669 123.434 49.5723L105.838 49.5723C104.654 53.4456 99.3255 77.7534 98.5759 82.6033C96.2098 90.2532 91.3386 115.029 90.7168 116.745C90.0626 118.55 93.7435 120.431 94.7242 118.212C96.2851 114.68 100.004 104.907 101.659 98.9393C103.212 93.3451 104.476 88.3121 105.095 85.4612Z" fill="#784931"/>
<path fill-rule="evenodd" clip-rule="evenodd" d="M119.491 88.8631C126.636 90.6709 152.772 93.9391 154.566 94.4516C156.411 94.979 158.028 91.172 155.748 90.3476C152.119 89.0354 142.12 86.0038 136.058 84.7664C131.182 83.7714 126.733 82.9593 123.745 82.4838C123.998 74.0842 125.155 53.926 124.397 49.5723L108.828 49.5723C109.555 53.7472 115.702 84.2101 116.844 87.2595C117.207 88.348 118.289 88.8293 119.491 88.8631Z" fill="#915B3C"/>
<path fill-rule="evenodd" clip-rule="evenodd" d="M155.094 90.0782C155.013 89.7461 155.214 89.4044 155.55 89.3449C156.191 89.2315 157.164 89.0928 157.68 89.1836C158.491 89.3267 159.998 89.8717 159.998 89.8717C159.832 90.8129 157.018 106.79 157.018 106.79C157.018 106.79 154.724 107.065 154.8 105.614C154.877 104.162 154.902 103.198 154.902 103.198L152.782 94.7035C152.743 94.5437 152.842 94.3828 153.003 94.3475L154.329 94.0554C154.329 94.0554 155.174 92.8484 155.319 92.0261C155.409 91.5176 155.238 90.6593 155.094 90.0782Z" fill="#E4E4E4"/>
<path fill-rule="evenodd" clip-rule="evenodd" d="M95.0216 117.572C95.3344 117.434 95.7064 117.573 95.8236 117.894C96.0461 118.506 96.3516 119.441 96.3516 119.965C96.3516 120.789 96.0773 122.37 96.0773 122.37C95.1227 122.37 78.9151 122.37 78.9151 122.37C78.9151 122.37 78.246 120.156 79.6873 119.979C81.1288 119.803 82.082 119.661 82.082 119.661L90.0704 116.096C90.2208 116.029 90.3966 116.099 90.4594 116.251L90.9769 117.508C90.9769 117.508 92.3112 118.131 93.1456 118.131C93.6607 118.131 94.4746 117.814 95.0216 117.572Z" fill="#E4E4E4"/>
<path fill-rule="evenodd" clip-rule="evenodd" d="M124.347 49.5716C124.347 49.5716 114.056 46.6244 104.873 49.5716C102.743 59.2997 97.5671 63.1607 96.6568 78.0755C107.003 83.2212 119.783 74.4054 130.433 79.4235C133.476 72.4044 129.216 55.5003 124.347 49.5716Z" fill="#2B44FF"/>
<path fill-rule="evenodd" clip-rule="evenodd" d="M98.7192 21.9804L108.115 29.517L103.546 32.9666L97.2099 24.7069C93.4222 22.9064 91.7433 21.7818 92.1728 21.3332C92.535 20.9547 92.9946 21.0511 93.4181 21.1399C93.7478 21.2091 94.0556 21.2737 94.2782 21.1057C94.7866 20.722 94.2542 18.9724 93.678 17.3341C93.1021 15.6957 93.9762 15.9836 94.4513 16.2884C95.9296 17.7219 97.3522 19.6193 98.7192 21.9804ZM86.8504 28.1377L90.9764 31.4559L89.9069 35.9997C89.9069 35.9997 87.3247 33.3401 84.9043 32.1804C81.818 30.7021 80.6268 29.7787 79.3973 27.476C78.7394 26.2439 78.4026 23.9408 79.3357 23.3746C79.6935 23.1573 80.7349 24.003 81.7973 24.866C82.6071 25.5237 83.4292 26.1916 83.9704 26.4062C84.6987 26.6953 84.7831 25.6989 84.8506 24.9028C84.899 24.3313 84.9388 23.8632 85.2013 24.0468C86.5347 24.3056 86.8504 28.1377 86.8504 28.1377Z" fill="#915B3C"/>
<path fill-rule="evenodd" clip-rule="evenodd" d="M113.404 29.1407C109.768 28.4599 105.046 26.833 100.442 22.625L97.6053 26.8108C100.555 30.9934 105.068 34.7983 109.486 35.4499C112.967 35.9633 115.478 32.0809 113.404 29.1407Z" fill="#2026A2"/>
<path fill-rule="evenodd" clip-rule="evenodd" d="M117.741 62.0072C121.284 62.1657 124.54 62.3115 126.36 63.0159C129.689 56.5098 128.696 51.8685 127.779 47.5842C127.226 45.002 126.701 42.5495 127.167 39.896C128.523 32.1696 124.423 19.1855 123.512 19.0246L123.25 18.9785L116.024 17.7043L115.197 17.5586C113.982 22.2738 111.483 27.1702 108.967 32.098C108.38 33.249 107.792 34.4013 107.219 35.5537C100.934 35.8612 88.3588 28.7159 88.3588 28.7159C88.3588 28.7159 83.7347 35.1335 83.4634 38.1657C90.5535 43.6265 96.9264 46.6275 102.42 47.7203C101.667 50.9649 101.516 54.1519 102.352 57.2358C103.472 61.3679 111.11 61.7102 117.741 62.0072Z" fill="#1F28CF"/>
</svg>
