<svg width="18" height="18" viewBox="0 0 18 18" fill="none" xmlns="http://www.w3.org/2000/svg">
<path d="M3.66619 17.4277H2.64103L3.25613 16.5564C3.66619 15.9573 3.92248 15.1948 4.07626 14.269C1.51335 13.0163 0.078125 10.6745 0.078125 7.62464C0.078125 2.94093 3.4099 0 8.792 0C14.1741 0 17.5059 2.94093 17.5059 7.62464C17.5059 12.4173 14.2254 15.2493 8.792 15.2493H8.43319C7.61306 16.284 6.17784 17.4277 3.66619 17.4277ZM8.792 1.08923C3.97374 1.08923 1.10329 3.54001 1.10329 7.62464C1.10329 11.1102 3.10235 12.744 4.79387 13.452L5.15267 13.6154L5.10142 14.0511C4.9989 14.9225 4.84513 15.685 4.53758 16.3385C6.22909 16.1207 7.203 15.1948 7.76684 14.4324L7.92061 14.2145H8.792C15.7118 14.2145 16.4807 9.63972 16.4807 7.6791C16.4807 3.54001 13.6103 1.08923 8.792 1.08923Z" fill="#A29393"/>
</svg>
