<svg width="20" height="18" viewBox="0 0 20 18" fill="none" xmlns="http://www.w3.org/2000/svg">
<path d="M10.2305 17.3828C10.0993 17.3824 9.97188 17.3389 9.86822 17.2591C6.56644 14.7147 4.29201 12.5237 2.70051 10.3621C0.669556 7.5998 0.206356 5.0495 1.32279 2.78192C2.11854 1.16221 4.40484 -0.163 7.07715 0.608569C8.35127 0.973584 9.46291 1.75637 10.2305 2.82904C10.998 1.75637 12.1097 0.973584 13.3838 0.608569C16.0502 -0.15122 18.3424 1.16221 19.1382 2.78192C20.2546 5.0495 19.7914 7.5998 17.7604 10.3621C16.1689 12.5237 13.8945 14.7147 10.5927 17.2591C10.4891 17.3389 10.3617 17.3824 10.2305 17.3828ZM5.5569 1.56861C4.92105 1.54407 4.29045 1.69174 3.73282 1.99577C3.17518 2.2998 2.71155 2.74872 2.39171 3.29433C1.47125 5.1673 1.88694 7.2523 3.66254 9.66124C5.54952 12.0752 7.75913 14.2232 10.2305 16.0458C12.7014 14.225 14.911 12.079 16.7984 9.66713C18.5799 7.2523 18.9897 5.1673 18.0692 3.30022C17.4754 2.12226 15.6938 1.18577 13.7104 1.73942C13.0744 1.92583 12.4848 2.24224 11.9796 2.66829C11.4743 3.09433 11.0646 3.62058 10.7768 4.21315C10.7321 4.32117 10.656 4.41357 10.5581 4.47859C10.4603 4.54362 10.3452 4.57834 10.2275 4.57834C10.1098 4.57834 9.99466 4.54362 9.89685 4.47859C9.79904 4.41357 9.72293 4.32117 9.67819 4.21315C9.39254 3.61909 8.98353 3.09162 8.47797 2.66531C7.9724 2.239 7.38171 1.92347 6.7446 1.73942C6.35858 1.62822 5.95887 1.57073 5.5569 1.56861Z" fill="#A29393"/>
</svg>
