<svg width="262" height="30" viewBox="0 0 262 30" fill="none" xmlns="http://www.w3.org/2000/svg">
<rect width="262" height="30" fill="black"/>
<path d="M24.5645 20L24.6426 15.7617H24.0762L23.5098 17.5977C23.2363 18.4701 22.8457 19.0299 22.3379 19.2773C22.0384 19.4076 21.6934 19.4727 21.3027 19.4727H19.291V8.80859H20.9512V8.28125H14.9941V8.80859H16.5566V19.4727H14.9941V20H24.5645ZM37.2793 20C37.2793 19.6875 37.1947 19.5182 37.0254 19.4922C36.9603 19.4792 36.8887 19.4727 36.8105 19.4727H36.2246L31.6152 8.28125H30.1699L25.8926 19.4727H24.6426V20H28.2363C28.2363 19.6875 28.1517 19.5182 27.9824 19.4922C27.9173 19.4792 27.8457 19.4727 27.7676 19.4727H26.6738L28.0801 15.7227H31.9668L33.4316 19.4727H32.0449V20H37.2793ZM31.7324 15.1367H28.3145L29.9941 10.6445L31.7324 15.1367ZM53.8223 20L57.5527 8.80859H58.5293V8.28125H55.3066V8.80859H56.8691L54.1152 17.168L51.0879 8.78906L52.6504 8.80859V8.28125H48.1191L49.6035 12.1289L47.6895 17.3438L44.623 8.80859H46.1855V8.28125H40.8926V8.80859H41.8691L45.6191 18.4961C45.9316 19.2904 46.2051 19.7526 46.4395 19.8828C46.5827 19.9609 46.765 20 46.9863 20H47.377L49.9551 13.0078L52.0645 18.4961C52.377 19.2904 52.6504 19.7526 52.8848 19.8828C53.028 19.9609 53.2103 20 53.4316 20H53.8223ZM65.4629 8.08594C63.7311 8.08594 62.2663 8.63281 61.0684 9.72656C59.8314 10.8594 59.2129 12.3177 59.2129 14.1016C59.2129 16.1458 59.9486 17.7409 61.4199 18.8867C62.5527 19.7591 63.8809 20.1953 65.4043 20.1953C67.1361 20.1953 68.5944 19.6484 69.7793 18.5547C70.9902 17.4089 71.5957 15.9505 71.5957 14.1797C71.5957 12.0312 70.834 10.3971 69.3105 9.27734C68.2168 8.48307 66.9342 8.08594 65.4629 8.08594ZM65.4629 19.6289C64.1348 19.6289 63.2363 19.0234 62.7676 17.8125C62.4421 16.9531 62.2793 15.7422 62.2793 14.1797C62.2793 11.1979 62.9238 9.43359 64.2129 8.88672C64.5645 8.73047 64.9616 8.65234 65.4043 8.65234C66.8757 8.65234 67.8197 9.47917 68.2363 11.1328C68.4316 11.9271 68.5293 12.9102 68.5293 14.082C68.5293 16.8555 68.0085 18.5742 66.9668 19.2383C66.5632 19.4987 66.0618 19.6289 65.4629 19.6289ZM81.2051 8.80859H82.7676V16.3672L75.873 8.28125H72.5723V8.80859H74.1348V19.4727H72.5723V20H76.6152C76.5371 19.6745 76.3613 19.4987 76.0879 19.4727H74.9551V11.3281L82.4746 20.0977L83.5879 19.9023V8.80859H85.1504V8.28125H81.2051V8.80859ZM85.6387 8.28125V8.80859H87.2012V19.4727H85.6387V20H91.459C93.2689 20 94.7598 19.4531 95.9316 18.3594C97.0775 17.2786 97.6504 15.8854 97.6504 14.1797C97.6504 12.0052 96.8301 10.3841 95.1895 9.31641C94.1087 8.6263 92.8457 8.28125 91.4004 8.28125H85.6387ZM91.459 8.80859C92.8262 8.80859 93.7376 9.47917 94.1934 10.8203C94.4538 11.6406 94.584 12.7279 94.584 14.082C94.584 16.7904 94.0436 18.4635 92.9629 19.1016C92.5462 19.349 92.0319 19.4727 91.4199 19.4727H89.9355V8.80859H91.459ZM108.568 12.0312L108.49 8.28125H98.7246V8.80859H100.287V19.4727H98.7246V20H108.49L108.568 16.25H108.002L107.553 17.5977C107.214 18.6003 106.674 19.1992 105.932 19.3945C105.71 19.4466 105.476 19.4727 105.229 19.4727H103.021V14.2578H106.771V13.6719H103.021V8.80859H105.229C106.296 8.80859 107.032 9.31641 107.436 10.332C107.488 10.4492 107.533 10.5664 107.572 10.6836L108.002 12.0312H108.568ZM115.697 20V19.4727H114.135V14.6484H115.092L118.002 20.0195L121.439 20C121.439 19.7135 121.335 19.5508 121.127 19.5117C121.062 19.4987 120.997 19.4922 120.932 19.4922H120.678L117.67 14.4141C119.037 14.0365 119.877 13.2943 120.189 12.1875C120.268 11.9141 120.307 11.6341 120.307 11.3477C120.307 10.3841 119.877 9.60938 119.018 9.02344C118.288 8.52865 117.403 8.28125 116.361 8.28125H109.838V8.80859H111.4V19.4727H109.838V20H115.697ZM115.189 8.80859C116.257 8.80859 116.947 9.33594 117.26 10.3906C117.351 10.7292 117.396 11.0807 117.396 11.4453C117.396 12.5651 117.058 13.3398 116.381 13.7695C116.081 13.9648 115.736 14.0625 115.346 14.0625H114.135V8.80859H115.189ZM131.537 16.7383C131.537 15.6576 130.945 14.7331 129.76 13.9648C129.59 13.8737 128.907 13.5091 127.709 12.8711C126.615 12.2982 125.932 11.7318 125.658 11.1719C125.528 10.8984 125.463 10.612 125.463 10.3125C125.463 9.54427 125.834 9.03646 126.576 8.78906C126.824 8.71094 127.084 8.67188 127.357 8.67188C128.425 8.67188 129.226 9.07552 129.76 9.88281C130.085 10.3906 130.255 10.9961 130.268 11.6992H131.029V8.16406C130.665 8.16406 130.45 8.28776 130.385 8.53516C130.372 8.6263 130.365 8.73047 130.365 8.84766C129.285 8.33984 128.145 8.08594 126.947 8.08594C125.372 8.08594 124.187 8.49609 123.393 9.31641C122.885 9.85026 122.631 10.4818 122.631 11.2109C122.631 12.2917 123.249 13.2161 124.486 13.9844C124.643 14.0885 125.346 14.4596 126.596 15.0977C127.715 15.6836 128.412 16.25 128.686 16.7969C128.803 17.0573 128.861 17.3242 128.861 17.5977C128.861 18.5352 128.445 19.1602 127.611 19.4727C127.312 19.5768 126.98 19.6289 126.615 19.6289C125.235 19.6289 124.265 18.9974 123.705 17.7344C123.471 17.2005 123.327 16.5885 123.275 15.8984H122.514V20.0391C122.865 20.0391 123.074 19.9349 123.139 19.7266C123.165 19.5964 123.178 19.4206 123.178 19.1992C124.18 19.8633 125.391 20.1953 126.811 20.1953C128.464 20.1953 129.734 19.7721 130.619 18.9258C131.231 18.3268 131.537 17.5977 131.537 16.7383ZM146.791 19.2383C146.778 19.7331 146.889 20.0065 147.123 20.0586C147.214 20.0846 147.331 20.0977 147.475 20.0977V16.25H146.83C146.348 18.0599 145.495 19.1341 144.271 19.4727C143.933 19.5638 143.555 19.6094 143.139 19.6094C141.485 19.6094 140.45 18.6719 140.033 16.7969C139.877 16.0547 139.799 15.1367 139.799 14.043C139.812 10.4753 140.977 8.6849 143.295 8.67188C144.519 8.67188 145.424 9.17318 146.01 10.1758C146.283 10.6576 146.524 11.276 146.732 12.0312H147.416L147.357 8.18359C147.019 8.18359 146.817 8.28776 146.752 8.49609C146.726 8.6263 146.719 8.79557 146.732 9.00391C145.6 8.39193 144.35 8.08594 142.982 8.08594C140.795 8.08594 139.122 8.84766 137.963 10.3711C137.143 11.4648 136.732 12.7214 136.732 14.1406C136.732 15.8203 137.273 17.2331 138.354 18.3789C139.512 19.5898 141.036 20.1953 142.924 20.1953C144.265 20.1953 145.554 19.8763 146.791 19.2383ZM154.799 8.08594C153.067 8.08594 151.602 8.63281 150.404 9.72656C149.167 10.8594 148.549 12.3177 148.549 14.1016C148.549 16.1458 149.285 17.7409 150.756 18.8867C151.889 19.7591 153.217 20.1953 154.74 20.1953C156.472 20.1953 157.93 19.6484 159.115 18.5547C160.326 17.4089 160.932 15.9505 160.932 14.1797C160.932 12.0312 160.17 10.3971 158.646 9.27734C157.553 8.48307 156.27 8.08594 154.799 8.08594ZM154.799 19.6289C153.471 19.6289 152.572 19.0234 152.104 17.8125C151.778 16.9531 151.615 15.7422 151.615 14.1797C151.615 11.1979 152.26 9.43359 153.549 8.88672C153.9 8.73047 154.298 8.65234 154.74 8.65234C156.212 8.65234 157.156 9.47917 157.572 11.1328C157.768 11.9271 157.865 12.9102 157.865 14.082C157.865 16.8555 157.344 18.5742 156.303 19.2383C155.899 19.4987 155.398 19.6289 154.799 19.6289ZM177.104 8.28125H172.904L169.408 16.6797L165.307 8.28125H161.811V8.80859H163.373V19.4727H161.811V20H165.756C165.678 19.6745 165.502 19.4987 165.229 19.4727H164.193V12.1094L168.354 20.1953H168.705L172.904 10.1953V19.4727H171.342V20H177.104C177.025 19.6745 176.85 19.4987 176.576 19.4727H175.541V8.80859H177.104V8.28125ZM192.787 8.28125H188.588L185.092 16.6797L180.99 8.28125H177.494V8.80859H179.057V19.4727H177.494V20H181.439C181.361 19.6745 181.186 19.4987 180.912 19.4727H179.877V12.1094L184.037 20.1953H184.389L188.588 10.1953V19.4727H187.025V20H192.787C192.709 19.6745 192.533 19.4987 192.26 19.4727H191.225V8.80859H192.787V8.28125ZM193.178 8.80859H194.74V15.7031C194.766 18.6849 196.413 20.1823 199.682 20.1953C201.778 20.1953 203.1 19.3945 203.646 17.793C203.855 17.1419 203.959 16.3542 203.959 15.4297V8.80859H205.521V8.28125H201.674V8.80859H203.236V15.5469C203.223 18.2422 202.175 19.5964 200.092 19.6094C198.777 19.6094 197.963 18.8932 197.65 17.4609C197.533 16.9271 197.475 16.2891 197.475 15.5469V8.80859H199.037V8.28125H193.178V8.80859ZM214.545 8.80859H216.107V16.3672L209.213 8.28125H205.912V8.80859H207.475V19.4727H205.912V20H209.955C209.877 19.6745 209.701 19.4987 209.428 19.4727H208.295V11.3281L215.814 20.0977L216.928 19.9023V8.80859H218.49V8.28125H214.545V8.80859ZM224.838 20C224.76 19.6745 224.584 19.4987 224.311 19.4727H223.275V8.80859H224.838V8.28125H218.979V8.80859H220.541V19.4727H218.979V20H224.838ZM233.881 20C233.803 19.6745 233.627 19.4987 233.354 19.4727H232.025V8.80859H232.357C233.295 8.80859 233.959 9.22526 234.35 10.0586C234.428 10.2409 234.512 10.4557 234.604 10.7031L235.209 12.4609H235.795L235.717 8.28125H225.6L225.521 12.4609H226.107L226.713 10.7031C226.999 9.86979 227.37 9.32292 227.826 9.0625C228.139 8.89323 228.516 8.80859 228.959 8.80859H229.291V19.4727H227.436V20H233.881ZM244.896 20C244.818 19.6745 244.643 19.4987 244.369 19.4727H243.236V14.9023L245.893 9.35547C246.14 9.00391 246.465 8.82161 246.869 8.80859C247.195 8.73047 247.37 8.55469 247.396 8.28125H243.959V8.80859H245.521L242.885 14.2188L240.033 8.80859H241.518V8.28125H236.049V8.80859H236.967L240.502 15.0391V19.4727H238.842V20H244.896Z" fill="white"/>
</svg>
