<svg width="220" height="27" viewBox="0 0 220 27" fill="none" xmlns="http://www.w3.org/2000/svg">
<rect x="0.832031" y="0.111328" width="219" height="26.2913" fill="black"/>
<path d="M19.2773 18.1621L19.3555 13.9238H18.7891L18.2227 15.7598C17.9492 16.6322 17.5586 17.1921 17.0508 17.4395C16.7513 17.5697 16.4062 17.6348 16.0156 17.6348H14.0039V6.9707H15.6641V6.44336H9.70703V6.9707H11.2695V17.6348H9.70703V18.1621H19.2773ZM24.3164 9.97852C25.1497 10.0046 25.5729 10.7142 25.5859 12.1074C25.5859 12.7194 25.4036 13.097 25.0391 13.2402C24.7786 13.3314 24.388 13.3639 23.8672 13.3379L22.6172 13.2793C22.7083 11.1178 23.2747 10.0176 24.3164 9.97852ZM27.9688 16.1504L27.5 15.9941C27.1354 16.7884 26.5625 17.3288 25.7812 17.6152C25.4688 17.7324 25.1497 17.791 24.8242 17.791C23.7826 17.791 23.112 17.127 22.8125 15.7988C22.6953 15.252 22.6302 14.6009 22.6172 13.8457L24.4141 13.9043C26.5104 13.9694 27.7279 13.6374 28.0664 12.9082C28.1445 12.7259 28.1836 12.5241 28.1836 12.3027C28.1836 11.196 27.6172 10.3887 26.4844 9.88086C25.8464 9.60742 25.1237 9.4707 24.3164 9.4707C22.8451 9.4707 21.6992 9.97201 20.8789 10.9746C20.2539 11.7559 19.9414 12.7259 19.9414 13.8848C19.9414 15.7728 20.651 17.0879 22.0703 17.8301C22.7474 18.1816 23.5156 18.3574 24.375 18.3574C25.8984 18.3574 26.9922 17.8236 27.6562 16.7559C27.7865 16.5605 27.8906 16.3587 27.9688 16.1504ZM32.4805 17.8105C33.3529 17.8105 33.8542 17.498 33.9844 16.873C33.9974 16.7819 34.0039 16.6973 34.0039 16.6191C34.0039 15.9551 33.5872 15.4017 32.7539 14.959C32.5716 14.8548 32.2786 14.7181 31.875 14.5488C30.8984 14.1191 30.2539 13.722 29.9414 13.3574C29.6029 12.9668 29.4336 12.5046 29.4336 11.9707C29.4336 10.8639 30.0391 10.1152 31.25 9.72461C31.7578 9.55534 32.3242 9.4707 32.9492 9.4707C33.9648 9.4707 34.7591 9.65299 35.332 10.0176C35.332 9.62695 35.4492 9.41211 35.6836 9.37305C35.7357 9.36003 35.7878 9.35352 35.8398 9.35352V11.7949H35.2148C35.1628 10.61 34.5182 10.0111 33.2812 9.99805C32.4479 9.99805 31.9336 10.2715 31.7383 10.8184C31.6992 10.9486 31.6797 11.0788 31.6797 11.209C31.6797 11.7689 32.0703 12.2441 32.8516 12.6348C33.0078 12.7259 33.2682 12.8496 33.6328 13.0059C34.6484 13.4616 35.3255 13.8783 35.6641 14.2559C36.0547 14.6986 36.25 15.2259 36.25 15.8379C36.25 16.9707 35.6641 17.7324 34.4922 18.123C34.0104 18.2793 33.4701 18.3574 32.8711 18.3574C31.7253 18.3574 30.7617 18.1556 29.9805 17.752C29.9805 18.0905 29.8958 18.2858 29.7266 18.3379C29.6484 18.3509 29.5573 18.3574 29.4531 18.3574V15.3887H30.1172C30.1432 16.9902 30.931 17.7975 32.4805 17.8105ZM45.2539 10.2715V9.76367H40.7422V10.2715H41.5625L43.8281 16.834C44.1016 17.6152 44.375 18.0645 44.6484 18.1816C44.7786 18.2337 44.9414 18.2598 45.1367 18.2598H45.7812L47.5977 12.6152L49.043 16.834C49.3034 17.5762 49.5182 18.0059 49.6875 18.123C49.8307 18.2142 50.0326 18.2598 50.293 18.2598H50.9375L53.3789 10.8379C53.6133 10.4863 53.8607 10.2975 54.1211 10.2715C54.3555 10.2715 54.4792 10.1673 54.4922 9.95898C54.5052 9.89388 54.5117 9.82878 54.5117 9.76367H51.7383V10.2715H52.9492L51.1328 15.9746L49.2188 10.2715H50.3906V9.76367H46.6016L47.2656 11.7168L45.9766 15.9551L44.082 10.2715H45.2539ZM57.7734 13.9238C57.7734 12.1009 57.9948 10.9355 58.4375 10.4277C58.7109 10.1283 59.0951 9.97852 59.5898 9.97852C60.4232 9.97852 60.957 10.4017 61.1914 11.248C61.3477 11.7949 61.4258 12.6608 61.4258 13.8457C61.4258 15.7467 61.1784 16.9447 60.6836 17.4395C60.3971 17.7129 60.026 17.8496 59.5703 17.8496C58.763 17.8496 58.2422 17.4329 58.0078 16.5996C57.8516 16.0397 57.7734 15.1478 57.7734 13.9238ZM59.6875 9.4707C58.0859 9.4707 56.8555 10.0176 55.9961 11.1113C55.3971 11.8926 55.0977 12.804 55.0977 13.8457C55.0977 15.3171 55.6055 16.4824 56.6211 17.3418C57.4284 18.0189 58.3919 18.3574 59.5117 18.3574C61.0482 18.3574 62.2526 17.804 63.125 16.6973C63.776 15.8639 64.1016 14.9004 64.1016 13.8066C64.1016 12.3483 63.5872 11.209 62.5586 10.3887C61.7643 9.77669 60.8073 9.4707 59.6875 9.4707ZM69.1797 17.6543H68.6914L68.7109 12.6543C68.8021 11.6257 69.1797 10.9486 69.8438 10.623C70.026 10.5319 70.2148 10.4863 70.4102 10.4863C71.1523 10.4863 71.5885 10.9225 71.7188 11.7949C71.7448 11.9642 71.7578 12.14 71.7578 12.3223V16.6387C71.7578 17.1855 71.6146 17.5046 71.3281 17.5957C71.1979 17.6348 71.0417 17.6543 70.8594 17.6543V18.1621H75.3711C75.3711 17.8626 75.2865 17.6999 75.1172 17.6738C75.0391 17.6608 74.9609 17.6543 74.8828 17.6543H74.2383V12.6543C74.2383 11.0397 73.6654 10.0306 72.5195 9.62695C72.207 9.52279 71.8815 9.4707 71.543 9.4707C70.5924 9.4707 69.7852 9.84831 69.1211 10.6035C68.9258 10.8249 68.7695 11.0527 68.6523 11.2871L68.5547 9.76367H65.0781V10.2715H66.2109V16.6387C66.2109 17.2376 65.931 17.5697 65.3711 17.6348C65.2799 17.6478 65.1823 17.6543 65.0781 17.6543V18.1621H69.6484C69.6484 17.8626 69.5638 17.6999 69.3945 17.6738C69.3294 17.6608 69.2578 17.6543 69.1797 17.6543ZM83.0273 18.1621H86.5234C86.5234 17.8626 86.4453 17.6934 86.2891 17.6543C86.224 17.6413 86.1458 17.6348 86.0547 17.6348H85.1562V5.4668H80.8984V5.97461H82.6758V10.3105C82.0117 9.73763 81.2174 9.45117 80.293 9.45117C79.056 9.45117 78.0469 9.92643 77.2656 10.877C76.5885 11.7363 76.25 12.8171 76.25 14.1191C76.25 15.7337 76.7773 16.9251 77.832 17.6934C78.431 18.1361 79.0951 18.3574 79.8242 18.3574C81.0352 18.3574 81.9336 17.8431 82.5195 16.8145C82.6107 16.6582 82.6888 16.4954 82.7539 16.3262L83.0273 18.1621ZM78.9258 13.8848C78.9258 11.9837 79.3359 10.7858 80.1562 10.291C80.3906 10.1608 80.638 10.0957 80.8984 10.0957C81.8359 10.0957 82.4154 10.8184 82.6367 12.2637C82.6888 12.6543 82.7148 13.071 82.7148 13.5137C82.7148 15.4668 82.3047 16.7103 81.4844 17.2441C81.25 17.3874 80.9961 17.459 80.7227 17.459C79.8112 17.459 79.2448 16.7168 79.0234 15.2324C78.9583 14.8288 78.9258 14.3796 78.9258 13.8848ZM91.7773 9.97852C92.6107 10.0046 93.0339 10.7142 93.0469 12.1074C93.0469 12.7194 92.8646 13.097 92.5 13.2402C92.2396 13.3314 91.849 13.3639 91.3281 13.3379L90.0781 13.2793C90.1693 11.1178 90.7357 10.0176 91.7773 9.97852ZM95.4297 16.1504L94.9609 15.9941C94.5964 16.7884 94.0234 17.3288 93.2422 17.6152C92.9297 17.7324 92.6107 17.791 92.2852 17.791C91.2435 17.791 90.5729 17.127 90.2734 15.7988C90.1562 15.252 90.0911 14.6009 90.0781 13.8457L91.875 13.9043C93.9714 13.9694 95.1888 13.6374 95.5273 12.9082C95.6055 12.7259 95.6445 12.5241 95.6445 12.3027C95.6445 11.196 95.0781 10.3887 93.9453 9.88086C93.3073 9.60742 92.5846 9.4707 91.7773 9.4707C90.306 9.4707 89.1602 9.97201 88.3398 10.9746C87.7148 11.7559 87.4023 12.7259 87.4023 13.8848C87.4023 15.7728 88.112 17.0879 89.5312 17.8301C90.2083 18.1816 90.9766 18.3574 91.8359 18.3574C93.3594 18.3574 94.4531 17.8236 95.1172 16.7559C95.2474 16.5605 95.3516 16.3587 95.4297 16.1504ZM101.562 17.6543H100.117V13.4355C100.208 12.0684 100.54 11.235 101.113 10.9355C101.204 10.8965 101.289 10.877 101.367 10.877C101.51 10.877 101.667 11.0267 101.836 11.3262C102.07 11.7428 102.324 12.0033 102.598 12.1074C102.728 12.1465 102.871 12.166 103.027 12.166C103.548 12.166 103.919 11.9186 104.141 11.4238C104.219 11.2546 104.258 11.0788 104.258 10.8965C104.258 10.2454 103.939 9.83529 103.301 9.66602C103.145 9.62695 102.982 9.60742 102.812 9.60742C102.005 9.60742 101.296 9.92643 100.684 10.5645C100.41 10.877 100.202 11.2155 100.059 11.5801L99.9219 9.76367H96.5039V10.2715H97.6367V16.6387C97.6367 17.2116 97.4089 17.5371 96.9531 17.6152C96.8229 17.6413 96.6732 17.6543 96.5039 17.6543V18.1621H102.031C102.031 17.8626 101.947 17.6999 101.777 17.6738C101.712 17.6608 101.641 17.6543 101.562 17.6543ZM108.184 17.8105C109.056 17.8105 109.557 17.498 109.688 16.873C109.701 16.7819 109.707 16.6973 109.707 16.6191C109.707 15.9551 109.29 15.4017 108.457 14.959C108.275 14.8548 107.982 14.7181 107.578 14.5488C106.602 14.1191 105.957 13.722 105.645 13.3574C105.306 12.9668 105.137 12.5046 105.137 11.9707C105.137 10.8639 105.742 10.1152 106.953 9.72461C107.461 9.55534 108.027 9.4707 108.652 9.4707C109.668 9.4707 110.462 9.65299 111.035 10.0176C111.035 9.62695 111.152 9.41211 111.387 9.37305C111.439 9.36003 111.491 9.35352 111.543 9.35352V11.7949H110.918C110.866 10.61 110.221 10.0111 108.984 9.99805C108.151 9.99805 107.637 10.2715 107.441 10.8184C107.402 10.9486 107.383 11.0788 107.383 11.209C107.383 11.7689 107.773 12.2441 108.555 12.6348C108.711 12.7259 108.971 12.8496 109.336 13.0059C110.352 13.4616 111.029 13.8783 111.367 14.2559C111.758 14.6986 111.953 15.2259 111.953 15.8379C111.953 16.9707 111.367 17.7324 110.195 18.123C109.714 18.2793 109.173 18.3574 108.574 18.3574C107.428 18.3574 106.465 18.1556 105.684 17.752C105.684 18.0905 105.599 18.2858 105.43 18.3379C105.352 18.3509 105.26 18.3574 105.156 18.3574V15.3887H105.82C105.846 16.9902 106.634 17.7975 108.184 17.8105ZM123.711 18.1621H127.207C127.207 17.8626 127.129 17.6934 126.973 17.6543C126.908 17.6413 126.829 17.6348 126.738 17.6348H125.84V5.4668H121.582V5.97461H123.359V10.3105C122.695 9.73763 121.901 9.45117 120.977 9.45117C119.74 9.45117 118.73 9.92643 117.949 10.877C117.272 11.7363 116.934 12.8171 116.934 14.1191C116.934 15.7337 117.461 16.9251 118.516 17.6934C119.115 18.1361 119.779 18.3574 120.508 18.3574C121.719 18.3574 122.617 17.8431 123.203 16.8145C123.294 16.6582 123.372 16.4954 123.438 16.3262L123.711 18.1621ZM119.609 13.8848C119.609 11.9837 120.02 10.7858 120.84 10.291C121.074 10.1608 121.322 10.0957 121.582 10.0957C122.52 10.0957 123.099 10.8184 123.32 12.2637C123.372 12.6543 123.398 13.071 123.398 13.5137C123.398 15.4668 122.988 16.7103 122.168 17.2441C121.934 17.3874 121.68 17.459 121.406 17.459C120.495 17.459 119.928 16.7168 119.707 15.2324C119.642 14.8288 119.609 14.3796 119.609 13.8848ZM137.617 17.6543H136.953V9.76367H133.516V10.2715H134.473L134.453 15.1934C134.362 16.209 133.991 16.8796 133.34 17.2051C133.145 17.2962 132.949 17.3418 132.754 17.3418C132.012 17.3418 131.576 16.9056 131.445 16.0332C131.419 15.8639 131.406 15.6882 131.406 15.5059V9.76367H127.793V10.2715H128.926V15.1738C128.952 17.2832 129.883 18.3444 131.719 18.3574C132.891 18.3574 133.783 17.8366 134.395 16.7949C134.434 16.7168 134.473 16.6387 134.512 16.5605L134.609 18.1621H138.086C138.086 17.8757 138.008 17.7129 137.852 17.6738C137.786 17.6608 137.708 17.6543 137.617 17.6543ZM146.641 17.6543H146.289L146.309 12.6152C146.387 11.5866 146.725 10.916 147.324 10.6035C147.493 10.5124 147.663 10.4668 147.832 10.4668C148.314 10.4668 148.659 10.7663 148.867 11.3652C148.958 11.6517 149.004 11.9707 149.004 12.3223V16.6387C149.004 17.1725 148.88 17.4915 148.633 17.5957C148.516 17.6348 148.353 17.6543 148.145 17.6543V18.1621H152.285C152.285 17.8626 152.201 17.6999 152.031 17.6738C151.953 17.6608 151.875 17.6543 151.797 17.6543H151.465V12.6543V12.5176C151.556 11.4368 151.908 10.7663 152.52 10.5059C152.65 10.4538 152.78 10.4277 152.91 10.4277C153.47 10.4277 153.854 10.7598 154.062 11.4238C154.141 11.6973 154.18 11.9967 154.18 12.3223V16.6387C154.18 17.1725 154.056 17.4915 153.809 17.5957C153.691 17.6348 153.529 17.6543 153.32 17.6543V18.1621H157.773C157.773 17.8626 157.689 17.6999 157.52 17.6738C157.441 17.6608 157.363 17.6543 157.285 17.6543H156.641V12.5566C156.641 11.2806 156.217 10.3757 155.371 9.8418C154.98 9.5944 154.557 9.4707 154.102 9.4707C152.839 9.48372 151.895 10.0892 151.27 11.2871C150.957 10.3626 150.404 9.7832 149.609 9.54883C149.401 9.49674 149.193 9.4707 148.984 9.4707C147.734 9.48372 146.823 10.0566 146.25 11.1895L146.152 9.76367H142.676V10.2715H143.809V16.6387C143.809 17.2376 143.529 17.5697 142.969 17.6348C142.878 17.6478 142.78 17.6543 142.676 17.6543V18.1621H147.109C147.109 17.8626 147.025 17.6999 146.855 17.6738C146.79 17.6608 146.719 17.6543 146.641 17.6543ZM161.328 13.9238C161.328 12.1009 161.549 10.9355 161.992 10.4277C162.266 10.1283 162.65 9.97852 163.145 9.97852C163.978 9.97852 164.512 10.4017 164.746 11.248C164.902 11.7949 164.98 12.6608 164.98 13.8457C164.98 15.7467 164.733 16.9447 164.238 17.4395C163.952 17.7129 163.581 17.8496 163.125 17.8496C162.318 17.8496 161.797 17.4329 161.562 16.5996C161.406 16.0397 161.328 15.1478 161.328 13.9238ZM163.242 9.4707C161.641 9.4707 160.41 10.0176 159.551 11.1113C158.952 11.8926 158.652 12.804 158.652 13.8457C158.652 15.3171 159.16 16.4824 160.176 17.3418C160.983 18.0189 161.947 18.3574 163.066 18.3574C164.603 18.3574 165.807 17.804 166.68 16.6973C167.331 15.8639 167.656 14.9004 167.656 13.8066C167.656 12.3483 167.142 11.209 166.113 10.3887C165.319 9.77669 164.362 9.4707 163.242 9.4707ZM172.598 17.6543H172.246L172.266 12.6152C172.344 11.5866 172.682 10.916 173.281 10.6035C173.451 10.5124 173.62 10.4668 173.789 10.4668C174.271 10.4668 174.616 10.7663 174.824 11.3652C174.915 11.6517 174.961 11.9707 174.961 12.3223V16.6387C174.961 17.1725 174.837 17.4915 174.59 17.5957C174.473 17.6348 174.31 17.6543 174.102 17.6543V18.1621H178.242C178.242 17.8626 178.158 17.6999 177.988 17.6738C177.91 17.6608 177.832 17.6543 177.754 17.6543H177.422V12.6543V12.5176C177.513 11.4368 177.865 10.7663 178.477 10.5059C178.607 10.4538 178.737 10.4277 178.867 10.4277C179.427 10.4277 179.811 10.7598 180.02 11.4238C180.098 11.6973 180.137 11.9967 180.137 12.3223V16.6387C180.137 17.1725 180.013 17.4915 179.766 17.5957C179.648 17.6348 179.486 17.6543 179.277 17.6543V18.1621H183.73C183.73 17.8626 183.646 17.6999 183.477 17.6738C183.398 17.6608 183.32 17.6543 183.242 17.6543H182.598V12.5566C182.598 11.2806 182.174 10.3757 181.328 9.8418C180.938 9.5944 180.514 9.4707 180.059 9.4707C178.796 9.48372 177.852 10.0892 177.227 11.2871C176.914 10.3626 176.361 9.7832 175.566 9.54883C175.358 9.49674 175.15 9.4707 174.941 9.4707C173.691 9.48372 172.78 10.0566 172.207 11.1895L172.109 9.76367H168.633V10.2715H169.766V16.6387C169.766 17.2376 169.486 17.5697 168.926 17.6348C168.835 17.6478 168.737 17.6543 168.633 17.6543V18.1621H173.066C173.066 17.8626 172.982 17.6999 172.812 17.6738C172.747 17.6608 172.676 17.6543 172.598 17.6543ZM188.984 9.97852C189.818 10.0046 190.241 10.7142 190.254 12.1074C190.254 12.7194 190.072 13.097 189.707 13.2402C189.447 13.3314 189.056 13.3639 188.535 13.3379L187.285 13.2793C187.376 11.1178 187.943 10.0176 188.984 9.97852ZM192.637 16.1504L192.168 15.9941C191.803 16.7884 191.23 17.3288 190.449 17.6152C190.137 17.7324 189.818 17.791 189.492 17.791C188.451 17.791 187.78 17.127 187.48 15.7988C187.363 15.252 187.298 14.6009 187.285 13.8457L189.082 13.9043C191.178 13.9694 192.396 13.6374 192.734 12.9082C192.812 12.7259 192.852 12.5241 192.852 12.3027C192.852 11.196 192.285 10.3887 191.152 9.88086C190.514 9.60742 189.792 9.4707 188.984 9.4707C187.513 9.4707 186.367 9.97201 185.547 10.9746C184.922 11.7559 184.609 12.7259 184.609 13.8848C184.609 15.7728 185.319 17.0879 186.738 17.8301C187.415 18.1816 188.184 18.3574 189.043 18.3574C190.566 18.3574 191.66 17.8236 192.324 16.7559C192.454 16.5605 192.559 16.3587 192.637 16.1504ZM197.812 17.6543H197.324L197.344 12.6543C197.435 11.6257 197.812 10.9486 198.477 10.623C198.659 10.5319 198.848 10.4863 199.043 10.4863C199.785 10.4863 200.221 10.9225 200.352 11.7949C200.378 11.9642 200.391 12.14 200.391 12.3223V16.6387C200.391 17.1855 200.247 17.5046 199.961 17.5957C199.831 17.6348 199.674 17.6543 199.492 17.6543V18.1621H204.004C204.004 17.8626 203.919 17.6999 203.75 17.6738C203.672 17.6608 203.594 17.6543 203.516 17.6543H202.871V12.6543C202.871 11.0397 202.298 10.0306 201.152 9.62695C200.84 9.52279 200.514 9.4707 200.176 9.4707C199.225 9.4707 198.418 9.84831 197.754 10.6035C197.559 10.8249 197.402 11.0527 197.285 11.2871L197.188 9.76367H193.711V10.2715H194.844V16.6387C194.844 17.2376 194.564 17.5697 194.004 17.6348C193.913 17.6478 193.815 17.6543 193.711 17.6543V18.1621H198.281C198.281 17.8626 198.197 17.6999 198.027 17.6738C197.962 17.6608 197.891 17.6543 197.812 17.6543ZM204.59 10.3691H205.938V15.252C205.938 17.14 206.719 18.1751 208.281 18.3574C208.438 18.3704 208.594 18.377 208.75 18.377C209.753 18.377 210.443 18.0514 210.82 17.4004C211.003 17.0749 211.146 16.6452 211.25 16.1113L210.723 16.0332C210.462 17.0879 210.078 17.6673 209.57 17.7715C209.492 17.7845 209.414 17.791 209.336 17.791C208.854 17.791 208.561 17.4525 208.457 16.7754C208.431 16.6191 208.418 16.4564 208.418 16.2871V10.3691H210.996V9.86133H208.418V7.5957L205.938 8.00586V9.86133H204.59V10.3691Z" fill="white"/>
</svg>
