<svg width="26" height="26" viewBox="0 0 26 26" fill="none" xmlns="http://www.w3.org/2000/svg">
<path d="M23.5223 11.3528L21.1029 10.6306C20.9356 10.0465 20.7055 9.4823 20.4168 8.94779L21.6012 6.73057C21.6456 6.64688 21.6619 6.55109 21.6476 6.45741C21.6333 6.36374 21.5892 6.27718 21.5218 6.21057L19.7956 4.47724C19.729 4.40983 19.6425 4.3657 19.5488 4.35139C19.4551 4.33708 19.3593 4.35335 19.2756 4.39779L17.0729 5.57502C16.5331 5.27216 15.9615 5.02994 15.3684 4.85279L14.6462 2.46224C14.6157 2.37414 14.5579 2.298 14.4814 2.24479C14.4048 2.19158 14.3133 2.16404 14.2201 2.16613H11.779C11.6852 2.16656 11.594 2.19692 11.5186 2.25277C11.4433 2.30863 11.3878 2.38707 11.3601 2.47668L10.6379 4.86002C10.0399 5.03622 9.46336 5.27845 8.91898 5.58224L6.75231 4.41224C6.66862 4.36779 6.57282 4.35152 6.47915 4.36583C6.38548 4.38014 6.29891 4.42428 6.23231 4.49168L4.47731 6.20335C4.4099 6.26995 4.36577 6.35652 4.35146 6.45019C4.33715 6.54386 4.35342 6.63966 4.39786 6.72335L5.56786 8.89002C5.26457 9.43211 5.02235 10.0062 4.84564 10.6017L2.45509 11.3239C2.36548 11.3516 2.28703 11.4071 2.23118 11.4825C2.17532 11.5578 2.14497 11.649 2.14453 11.7428V14.1839C2.14497 14.2777 2.17532 14.3689 2.23118 14.4442C2.28703 14.5196 2.36548 14.5751 2.45509 14.6028L4.86009 15.325C5.03873 15.9106 5.28091 16.4749 5.58231 17.0078L4.39786 19.2756C4.35342 19.3593 4.33715 19.4551 4.35146 19.5487C4.36577 19.6424 4.4099 19.729 4.47731 19.7956L6.20342 21.5217C6.27002 21.5891 6.35659 21.6332 6.45026 21.6475C6.54394 21.6618 6.63973 21.6456 6.72342 21.6011L8.95509 20.4095C9.48301 20.6943 10.0399 20.9219 10.6162 21.0884L11.3384 23.5222C11.3661 23.6118 11.4216 23.6903 11.497 23.7461C11.5723 23.802 11.6635 23.8324 11.7573 23.8328H14.1984C14.2922 23.8324 14.3834 23.802 14.4587 23.7461C14.5341 23.6903 14.5896 23.6118 14.6173 23.5222L15.3395 21.0811C15.9109 20.9138 16.4629 20.6863 16.9862 20.4022L19.2323 21.6011C19.316 21.6456 19.4118 21.6618 19.5055 21.6475C19.5991 21.6332 19.6857 21.5891 19.7523 21.5217L21.4784 19.7956C21.5458 19.729 21.59 19.6424 21.6043 19.5487C21.6186 19.4551 21.6023 19.3593 21.5579 19.2756L20.359 17.0367C20.646 16.5114 20.876 15.957 21.0451 15.3828L23.479 14.6606C23.5686 14.6329 23.647 14.5773 23.7029 14.502C23.7587 14.4267 23.7891 14.3355 23.7895 14.2417V11.7789C23.7938 11.6891 23.7705 11.6001 23.7227 11.524C23.6749 11.4478 23.605 11.3881 23.5223 11.3528ZM12.9995 16.9717C12.2139 16.9717 11.4459 16.7387 10.7927 16.3022C10.1395 15.8658 9.63032 15.2454 9.32968 14.5196C9.02903 13.7937 8.95037 12.9951 9.10363 12.2245C9.2569 11.454 9.63522 10.7462 10.1907 10.1907C10.7463 9.63515 11.4541 9.25683 12.2246 9.10356C12.9951 8.95029 13.7938 9.02896 14.5196 9.32961C15.2455 9.63025 15.8658 10.1394 16.3023 10.7926C16.7388 11.4458 16.9718 12.2138 16.9718 12.9995C16.9718 14.053 16.5533 15.0633 15.8083 15.8082C15.0634 16.5532 14.053 16.9717 12.9995 16.9717Z" fill="white"/>
</svg>
