<svg width="20" height="20" viewBox="0 0 20 20" fill="none" xmlns="http://www.w3.org/2000/svg">
<path d="M0 6.2583C0.00200664 7.1698 0.381002 8.04972 1.06667 8.7348C1.75234 9.41989 2.69813 9.86364 3.72857 9.98372C4.019 11.132 4.7115 12.1719 5.7092 12.958C6.70689 13.7441 7.95987 14.2371 9.29286 14.368V16.242H6.44C5.68224 16.242 4.95551 16.506 4.41969 16.9758C3.88388 17.4456 3.58286 18.0829 3.58286 18.7473V19.3737C3.58286 19.5398 3.65811 19.6991 3.79207 19.8166C3.92602 19.934 4.1077 20 4.29714 20H15.7257C15.9152 20 16.0968 19.934 16.2308 19.8166C16.3647 19.6991 16.44 19.5398 16.44 19.3737V18.7473C16.44 18.0829 16.139 17.4456 15.6032 16.9758C15.0673 16.506 14.3406 16.242 13.5829 16.242H10.7214V14.3693C12.054 14.2382 13.3065 13.7453 14.3039 12.9594C15.3013 12.1736 15.9937 11.1341 16.2843 9.98622C17.3127 9.86629 18.2563 9.42291 18.9398 8.73857C19.6233 8.05422 20.0001 7.17549 20 6.26581V4.38181C20 3.88347 19.7742 3.40554 19.3724 3.05316C18.9705 2.70078 18.4255 2.50282 17.8571 2.50282H16.4357C16.435 1.8388 16.1336 1.2022 15.5979 0.732906C15.0621 0.263608 14.3358 -3.32009e-07 13.5786 0H6.43571C5.67845 -3.32009e-07 4.95215 0.263608 4.41642 0.732906C3.88068 1.2022 3.57933 1.8388 3.57857 2.50282H2.14286C1.57454 2.50282 1.02949 2.70078 0.627628 3.05316C0.225765 3.40554 0 3.88347 0 4.38181V6.2583ZM2.14286 3.75548H3.57857V8.68345C2.96479 8.54464 2.42081 8.2313 2.03177 7.79248C1.64274 7.35366 1.4306 6.81412 1.42857 6.2583V4.38181C1.42857 4.2157 1.50383 4.05639 1.63778 3.93893C1.77174 3.82147 1.95342 3.75548 2.14286 3.75548ZM16.4357 3.75548H17.8571C18.0466 3.75548 18.2283 3.82147 18.3622 3.93893C18.4962 4.05639 18.5714 4.2157 18.5714 4.38181V6.26707C18.5714 7.43079 17.6643 8.40912 16.4357 8.68721V3.75548ZM15.0071 2.50532V8.76613C15.0115 9.9145 14.5018 11.0185 13.5877 11.8409C12.6735 12.6632 11.4279 13.1383 10.1186 13.1639C8.8093 13.1895 7.54079 12.7636 6.58577 11.9778C5.63075 11.192 5.06547 10.1089 5.01143 8.96154V2.50282H5.00714C5.0079 2.17103 5.15874 1.85305 5.42657 1.61867C5.6944 1.38429 6.05733 1.25266 6.43571 1.25266H13.5786C13.9575 1.25266 14.3208 1.38464 14.5887 1.61956C14.8566 1.85448 15.0071 2.1731 15.0071 2.50532ZM5.01143 18.7473C5.01143 18.4151 5.16194 18.0965 5.42985 17.8616C5.69776 17.6267 6.06112 17.4947 6.44 17.4947H13.5829C13.9617 17.4947 14.3251 17.6267 14.593 17.8616C14.8609 18.0965 15.0114 18.4151 15.0114 18.7473H5.01143Z" fill="black"/>
</svg>
