<svg width="16" height="15" viewBox="0 0 16 15" fill="none" xmlns="http://www.w3.org/2000/svg">
<path d="M14.4 3.75H13.4328C13.5501 3.38534 13.6065 3.00584 13.6 2.625C13.6 1.1775 12.344 0 10.8 0C9.5024 0 8.636 1.1115 8.0768 2.31375C7.5256 1.1775 6.6152 0 5.2 0C3.656 0 2.4 1.1775 2.4 2.625C2.4 3.072 2.4632 3.44175 2.5672 3.75H1.6C0.7176 3.75 0 4.42275 0 5.25V6.75C0 7.57725 0.7176 8.25 1.6 8.25V13.5C1.6 14.3273 2.3176 15 3.2 15H12.8C13.6824 15 14.4 14.3273 14.4 13.5V8.25C15.2824 8.25 16 7.57725 16 6.75V5.25C16 4.42275 15.2824 3.75 14.4 3.75ZM10.8 1.5C11.4616 1.5 12 2.00475 12 2.625C12 3.75 11.4992 3.75 11.2 3.75H9.2176C9.6264 2.568 10.22 1.5 10.8 1.5ZM4 2.625C4 2.00475 4.5384 1.5 5.2 1.5C5.9104 1.5 6.5712 2.64375 6.9584 3.75H4.8C4.5008 3.75 4 3.75 4 2.625ZM1.6 5.25H7.2V6.75H1.6V5.25ZM3.2 13.5V8.25H7.2V13.5H3.2ZM12.8 13.5H8.8V8.25H12.8V13.5ZM8.8 6.75V5.31375L8.8136 5.25H14.4L14.4008 6.75H8.8Z" fill="white"/>
</svg>
