<svg width="40" height="38" viewBox="0 0 40 38" fill="none" xmlns="http://www.w3.org/2000/svg">
<path d="M16.125 34.0417H23.2917C23.2917 34.992 22.9142 35.9035 22.2422 36.5755C21.5702 37.2475 20.6587 37.625 19.7084 37.625C18.758 37.625 17.8466 37.2475 17.1746 36.5755C16.5026 35.9035 16.125 34.992 16.125 34.0417ZM35.8334 30.4583V32.25H3.58337V30.4583L7.1667 26.875V16.125C7.1667 10.5708 10.8038 5.67958 16.125 4.10292V3.58333C16.125 2.63297 16.5026 1.72154 17.1746 1.04953C17.8466 0.377529 18.758 0 19.7084 0C20.6587 0 21.5702 0.377529 22.2422 1.04953C22.9142 1.72154 23.2917 2.63297 23.2917 3.58333V4.10292C28.613 5.67958 32.25 10.5708 32.25 16.125V26.875L35.8334 30.4583ZM28.6667 16.125C28.6667 13.7491 27.7229 11.4705 26.0429 9.7905C24.3629 8.11049 22.0843 7.16667 19.7084 7.16667C17.3325 7.16667 15.0539 8.11049 13.3739 9.7905C11.6939 11.4705 10.75 13.7491 10.75 16.125V28.6667H28.6667V16.125ZM33.5938 2.13208L31.0496 4.67625C32.565 6.17304 33.7681 7.95576 34.5893 9.92104C35.4104 11.8863 35.8333 13.9951 35.8334 16.125H39.4167C39.4167 10.8754 37.3384 5.82292 33.5938 2.13208ZM3.40348e-05 16.125H3.58337C3.58337 11.825 5.30337 7.70417 8.36712 4.67625L5.82295 2.13208C3.97374 3.9624 2.5067 6.14196 1.50708 8.54412C0.507461 10.9463 -0.00480997 13.5232 3.40348e-05 16.125V16.125Z" fill="white"/>
</svg>
