<svg width="12" height="12" viewBox="0 0 12 12" fill="none" xmlns="http://www.w3.org/2000/svg">
<path d="M8.88471 3.2068C9.02558 3.07269 9.21303 2.99855 9.40753 3.00002C9.60202 3.00149 9.78833 3.07846 9.92716 3.21469C10.066 3.35092 10.1464 3.53575 10.1516 3.73018C10.1567 3.92461 10.0861 4.11343 9.95471 4.2568L5.96471 9.2468C5.8961 9.3207 5.81329 9.38001 5.72124 9.42117C5.62919 9.46233 5.52978 9.48451 5.42896 9.48638C5.32814 9.48825 5.22798 9.46976 5.13447 9.43204C5.04095 9.39431 4.95601 9.33811 4.88471 9.2668L2.23871 6.6208C2.16502 6.55214 2.10592 6.46934 2.06493 6.37734C2.02394 6.28534 2.00189 6.18603 2.00012 6.08533C1.99834 5.98462 2.01686 5.88459 2.05459 5.79121C2.09231 5.69782 2.14845 5.61298 2.21967 5.54176C2.29089 5.47055 2.37572 5.4144 2.46911 5.37668C2.5625 5.33896 2.66253 5.32043 2.76323 5.32221C2.86393 5.32399 2.96325 5.34603 3.05525 5.38702C3.14725 5.42801 3.23005 5.48712 3.29871 5.5608L5.39271 7.6538L8.86571 3.2288C8.87196 3.2211 8.87864 3.21376 8.88571 3.2068H8.88471Z" fill="white"/>
<rect x="0.5" y="0.5" width="11" height="11" rx="1.5" stroke="white"/>
</svg>
