<svg width="18" height="16" viewBox="0 0 18 16" fill="none" xmlns="http://www.w3.org/2000/svg">
<path d="M8.99982 2.16667C5.22315 2.16667 2.33315 4.8675 2.33315 8C2.33315 9.04333 2.64565 10.025 3.20148 10.8792C3.2676 10.9807 3.31079 11.0953 3.32806 11.2152C3.34533 11.3351 3.33626 11.4573 3.30148 11.5733L2.68315 13.625L5.52898 13.1517C5.68924 13.1251 5.85376 13.146 6.00232 13.2117C6.94731 13.6253 7.96827 13.837 8.99982 13.8333C12.7765 13.8333 15.6665 11.1317 15.6665 8C15.6665 4.8675 12.7765 2.16667 8.99982 2.16667ZM0.666483 8C0.666483 3.76833 4.49232 0.5 8.99982 0.5C13.5073 0.5 17.3331 3.76833 17.3331 8C17.3331 12.2317 13.5073 15.5 8.99982 15.5C7.77815 15.5 6.61398 15.2633 5.56398 14.8358L1.63648 15.4892C1.49676 15.5125 1.3534 15.4998 1.21994 15.4523C1.08648 15.4048 0.967337 15.3241 0.873754 15.2177C0.780172 15.1114 0.715243 14.9829 0.6851 14.8445C0.654958 14.7061 0.660596 14.5623 0.701483 14.4267L1.59815 11.45C0.989284 10.4021 0.667897 9.21197 0.666483 8V8Z" fill="black"/>
</svg>
