<svg width="25" height="28" viewBox="0 0 25 28" fill="none" xmlns="http://www.w3.org/2000/svg">
<g clip-path="url(#clip0)">
<path fill-rule="evenodd" clip-rule="evenodd" d="M5.4681 23.1H23.6973C24.0426 23.1 24.3738 23.2352 24.618 23.4759C24.8622 23.7166 24.9993 24.043 24.9993 24.3833C24.9993 24.7237 24.8622 25.0501 24.618 25.2908C24.3738 25.5315 24.0426 25.6667 23.6973 25.6667H5.4681C5.12276 25.6667 4.79158 25.5315 4.54739 25.2908C4.3032 25.0501 4.16602 24.7237 4.16602 24.3833C4.16602 24.043 4.3032 23.7166 4.54739 23.4759C4.79158 23.2352 5.12276 23.1 5.4681 23.1ZM4.16602 16.6833L17.1868 3.85L21.0931 7.7L8.07227 20.5333H4.16602V16.6833ZM18.4889 2.56667L21.0931 0L24.9993 3.85L22.3939 6.41795L18.4889 2.56667Z" fill="white"/>
</g>
<defs>
<clipPath id="clip0">
<rect width="25" height="28" fill="white"/>
</clipPath>
</defs>
</svg>
