<svg width="92" height="16" viewBox="0 0 92 16" fill="none" xmlns="http://www.w3.org/2000/svg">
<g clip-path="url(#clip0)">
<path d="M16.609 6.1362C16.4994 5.81222 16.2003 5.58285 15.8478 5.55221L11.0406 5.13289L9.14074 0.859384C9.00047 0.545414 8.68131 0.342773 8.32606 0.342773C7.97082 0.342773 7.65153 0.545414 7.51215 0.859384L5.6123 5.13289L0.804287 5.55221C0.451837 5.58346 0.153385 5.81283 0.0431016 6.1362C-0.0665467 6.46018 0.034716 6.81554 0.301277 7.04015L3.93517 10.1016L2.86372 14.6356C2.78533 14.969 2.92001 15.3137 3.20791 15.5137C3.36266 15.6217 3.54448 15.6757 3.72693 15.6757C3.88372 15.6757 4.04063 15.6356 4.18077 15.5551L8.32606 13.1737L12.4706 15.5551C12.7746 15.7296 13.1569 15.7136 13.4442 15.5137C13.7321 15.3137 13.8668 14.969 13.7884 14.6356L12.717 10.1016L16.3508 7.04015C16.6173 6.81554 16.7187 6.46092 16.609 6.1362Z" fill="#EFB33E"/>
</g>
<g clip-path="url(#clip1)">
<path d="M72.5661 6.1362C72.4564 5.81222 72.1573 5.58285 71.8049 5.55221L66.9976 5.13289L65.0978 0.859384C64.9575 0.545414 64.6383 0.342773 64.2831 0.342773C63.9278 0.342773 63.6086 0.545414 63.4692 0.859384L61.5693 5.13289L56.7613 5.55221C56.4089 5.58346 56.1104 5.81283 56.0001 6.1362C55.8905 6.46018 55.9917 6.81554 56.2583 7.04015L59.8922 10.1016L58.8208 14.6356C58.7424 14.969 58.877 15.3137 59.1649 15.5137C59.3197 15.6217 59.5015 15.6757 59.684 15.6757C59.8407 15.6757 59.9977 15.6356 60.1378 15.5551L64.2831 13.1737L68.4276 15.5551C68.7317 15.7296 69.114 15.7136 69.4012 15.5137C69.6892 15.3137 69.8238 14.969 69.7454 14.6356L68.674 10.1016L72.3079 7.04015C72.5743 6.81554 72.6757 6.46092 72.5661 6.1362Z" fill="#EFB33E"/>
</g>
<g clip-path="url(#clip2)">
<path d="M35.2614 6.1362C35.1517 5.81222 34.8526 5.58285 34.5002 5.55221L29.6929 5.13289L27.7931 0.859384C27.6528 0.545414 27.3337 0.342773 26.9784 0.342773C26.6232 0.342773 26.3039 0.545414 26.1645 0.859384L24.2646 5.13289L19.4566 5.55221C19.1042 5.58346 18.8057 5.81283 18.6954 6.1362C18.5858 6.46018 18.6871 6.81554 18.9536 7.04015L22.5875 10.1016L21.5161 14.6356C21.4377 14.969 21.5723 15.3137 21.8603 15.5137C22.015 15.6217 22.1968 15.6757 22.3793 15.6757C22.5361 15.6757 22.693 15.6356 22.8331 15.5551L26.9784 13.1737L31.1229 15.5551C31.427 15.7296 31.8093 15.7136 32.0966 15.5137C32.3845 15.3137 32.5191 14.969 32.4408 14.6356L31.3693 10.1016L35.0032 7.04015C35.2696 6.81554 35.371 6.46092 35.2614 6.1362Z" fill="#EFB33E"/>
</g>
<g clip-path="url(#clip3)">
<path d="M91.2184 6.1362C91.1088 5.81222 90.8097 5.58285 90.4572 5.55221L85.65 5.13289L83.7501 0.859384C83.6098 0.545414 83.2907 0.342773 82.9354 0.342773C82.5802 0.342773 82.2609 0.545414 82.1215 0.859384L80.2217 5.13289L75.4137 5.55221C75.0612 5.58346 74.7628 5.81283 74.6525 6.1362C74.5428 6.46018 74.6441 6.81554 74.9107 7.04015L78.5445 10.1016L77.4731 14.6356C77.3947 14.969 77.5294 15.3137 77.8173 15.5137C77.972 15.6217 78.1539 15.6757 78.3363 15.6757C78.4931 15.6757 78.65 15.6356 78.7901 15.5551L82.9354 13.1737L87.08 15.5551C87.384 15.7296 87.7663 15.7136 88.0536 15.5137C88.3415 15.3137 88.4762 14.969 88.3978 14.6356L87.3263 10.1016L90.9602 7.04015C91.2267 6.81554 91.328 6.46092 91.2184 6.1362Z" fill="#C4C4C4"/>
</g>
<g clip-path="url(#clip4)">
<path d="M53.9137 6.1362C53.8041 5.81222 53.505 5.58285 53.1525 5.55221L48.3453 5.13289L46.4454 0.859384C46.3052 0.545414 45.986 0.342773 45.6308 0.342773C45.2755 0.342773 44.9562 0.545414 44.8168 0.859384L42.917 5.13289L38.109 5.55221C37.7565 5.58346 37.4581 5.81283 37.3478 6.1362C37.2381 6.46018 37.3394 6.81554 37.606 7.04015L41.2399 10.1016L40.1684 14.6356C40.09 14.969 40.2247 15.3137 40.5126 15.5137C40.6674 15.6217 40.8492 15.6757 41.0316 15.6757C41.1884 15.6757 41.3453 15.6356 41.4855 15.5551L45.6308 13.1737L49.7753 15.5551C50.0793 15.7296 50.4616 15.7136 50.7489 15.5137C51.0368 15.3137 51.1715 14.969 51.0931 14.6356L50.0216 10.1016L53.6555 7.04015C53.922 6.81554 54.0234 6.46092 53.9137 6.1362Z" fill="#EFB33E"/>
</g>
<defs>
<clipPath id="clip0">
<rect width="16.6531" height="16" fill="white"/>
</clipPath>
<clipPath id="clip1">
<rect width="16.6531" height="16" fill="white" transform="translate(55.957)"/>
</clipPath>
<clipPath id="clip2">
<rect width="16.6531" height="16" fill="white" transform="translate(18.6523)"/>
</clipPath>
<clipPath id="clip3">
<rect width="16.6531" height="16" fill="white" transform="translate(74.6094)"/>
</clipPath>
<clipPath id="clip4">
<rect width="16.6531" height="16" fill="white" transform="translate(37.3047)"/>
</clipPath>
</defs>
</svg>
