<svg width="14" height="13" viewBox="0 0 14 13" fill="none" xmlns="http://www.w3.org/2000/svg">
<path d="M13.6398 4.54688H9.63984C9.57109 4.54688 9.51484 4.60312 9.51484 4.67188V5.42188C9.51484 5.49062 9.57109 5.54688 9.63984 5.54688H13.6398C13.7086 5.54688 13.7648 5.49062 13.7648 5.42188V4.67188C13.7648 4.60312 13.7086 4.54688 13.6398 4.54688ZM11.5461 6.67188H9.63984C9.57109 6.67188 9.51484 6.72813 9.51484 6.79688V7.54688C9.51484 7.61562 9.57109 7.67188 9.63984 7.67188H11.5461C11.6148 7.67188 11.6711 7.61562 11.6711 7.54688V6.79688C11.6711 6.72813 11.6148 6.67188 11.5461 6.67188ZM6.33203 3.14844H5.65547C5.55859 3.14844 5.48047 3.22656 5.48047 3.32344V7.19844C5.48047 7.25469 5.50703 7.30625 5.55234 7.33906L7.87891 9.03594C7.95703 9.09219 8.06641 9.07656 8.12266 8.99844L8.52422 8.45V8.44844C8.58047 8.37031 8.56328 8.26094 8.48516 8.20469L6.50547 6.77344V3.32344C6.50703 3.22656 6.42734 3.14844 6.33203 3.14844Z" fill="black"/>
<path d="M11.45 8.63798H10.5469C10.4594 8.63798 10.3766 8.68329 10.3297 8.75829C10.1313 9.07235 9.90001 9.36298 9.63439 9.6286C9.17657 10.0864 8.64376 10.4458 8.05157 10.6958C7.43751 10.9552 6.78595 11.0864 6.11407 11.0864C5.44064 11.0864 4.78907 10.9552 4.17657 10.6958C3.58439 10.4458 3.05157 10.0864 2.59376 9.6286C2.13595 9.17079 1.77657 8.63798 1.52657 8.04579C1.2672 7.43329 1.13595 6.78173 1.13595 6.10829C1.13595 5.43485 1.2672 4.78485 1.52657 4.17079C1.77657 3.5786 2.13595 3.04579 2.59376 2.58798C3.05157 2.13016 3.58439 1.77079 4.17657 1.52079C4.78907 1.26141 5.4422 1.13016 6.11407 1.13016C6.78751 1.13016 7.43907 1.26141 8.05157 1.52079C8.64376 1.77079 9.17657 2.13016 9.63439 2.58798C9.90001 2.8536 10.1313 3.14423 10.3297 3.45829C10.3766 3.53329 10.4594 3.5786 10.5469 3.5786H11.45C11.5578 3.5786 11.6266 3.4661 11.5781 3.37079C10.5594 1.34423 8.49376 0.0270391 6.18751 0.000476604C2.81095 -0.0417109 0.00626067 2.72235 1.06747e-05 6.09579C-0.00623933 9.47548 2.73282 12.2177 6.11251 12.2177C8.44845 12.2177 10.5484 10.8958 11.5781 8.84579C11.6266 8.75048 11.5563 8.63798 11.45 8.63798Z" fill="black"/>
</svg>
