<svg width="10" height="13" viewBox="0 0 10 13" fill="none" xmlns="http://www.w3.org/2000/svg">
<path d="M5 6.5C4.3125 6.5 3.75 5.915 3.75 5.2C3.75 4.485 4.3125 3.9 5 3.9C5.6875 3.9 6.25 4.485 6.25 5.2C6.25 5.915 5.6875 6.5 5 6.5ZM8.75 5.33C8.75 2.9705 7.09375 1.3 5 1.3C2.90625 1.3 1.25 2.9705 1.25 5.33C1.25 6.851 2.46875 8.866 5 11.271C7.53125 8.866 8.75 6.851 8.75 5.33ZM5 0C7.625 0 10 2.093 10 5.33C10 7.488 8.33125 10.0425 5 13C1.66875 10.0425 0 7.488 0 5.33C0 2.093 2.375 0 5 0Z" fill="black"/>
</svg>
