<svg width="23" height="22" viewBox="0 0 23 22" fill="none" xmlns="http://www.w3.org/2000/svg">
<path d="M1.82967 8.34097C1.34441 8.34097 0.879026 8.14821 0.535897 7.80508C0.192768 7.46195 0 6.99657 0 6.51131C0 6.02605 0.192768 5.56067 0.535897 5.21754C0.879026 4.87441 1.34441 4.68164 1.82967 4.68164C2.31492 4.68164 2.78031 4.87441 3.12344 5.21754C3.46657 5.56067 3.65933 6.02605 3.65933 6.51131C3.65933 6.99657 3.46657 7.46195 3.12344 7.80508C2.78031 8.14821 2.31492 8.34097 1.82967 8.34097Z" fill="white"/>
<path d="M1.2349 2.89667C1.88952 2.78983 2.56084 2.8614 3.17823 3.10383C3.42676 2.71412 3.76958 2.39338 4.17495 2.1713C4.58033 1.94923 5.03517 1.83298 5.4974 1.83333H18.3307C19.0601 1.83333 19.7595 2.12306 20.2753 2.63879C20.791 3.15451 21.0807 3.85399 21.0807 4.58333V17.4167C21.0807 18.146 20.791 18.8455 20.2753 19.3612C19.7595 19.8769 19.0601 20.1667 18.3307 20.1667H5.4974C4.76805 20.1667 4.06858 19.8769 3.55285 19.3612C3.03713 18.8455 2.7474 18.146 2.7474 17.4167V10.0595C2.14612 10.2146 1.51533 10.2146 0.914062 10.0595V17.4167C0.914062 18.6322 1.39695 19.798 2.25649 20.6576C3.11603 21.5171 4.28182 22 5.4974 22H18.3307C19.5463 22 20.7121 21.5171 21.5716 20.6576C22.4312 19.798 22.9141 18.6322 22.9141 17.4167V4.58333C22.9141 3.36776 22.4312 2.20197 21.5716 1.34243C20.7121 0.482886 19.5463 6.95791e-08 18.3307 6.95791e-08H5.4974C4.57839 -0.000160025 3.68056 0.275953 2.92046 0.792496C2.16036 1.30904 1.57309 2.04215 1.2349 2.89667Z" fill="white"/>
<path d="M8.24674 7.33398C8.00363 7.33398 7.77047 7.43056 7.59856 7.60247C7.42666 7.77438 7.33008 8.00754 7.33008 8.25065C7.33008 8.49377 7.42666 8.72692 7.59856 8.89883C7.77047 9.07074 8.00363 9.16732 8.24674 9.16732H15.5801C15.8232 9.16732 16.0564 9.07074 16.2283 8.89883C16.4002 8.72692 16.4967 8.49377 16.4967 8.25065C16.4967 8.00754 16.4002 7.77438 16.2283 7.60247C16.0564 7.43056 15.8232 7.33398 15.5801 7.33398H8.24674Z" fill="white"/>
<path d="M8.24674 12.834C8.00363 12.834 7.77047 12.9306 7.59856 13.1025C7.42666 13.2744 7.33008 13.5075 7.33008 13.7507C7.33008 13.9938 7.42666 14.2269 7.59856 14.3988C7.77047 14.5707 8.00363 14.6673 8.24674 14.6673H13.0391C13.2822 14.6673 13.5154 14.5707 13.6873 14.3988C13.8592 14.2269 13.9557 13.9938 13.9557 13.7507C13.9557 13.5075 13.8592 13.2744 13.6873 13.1025C13.5154 12.9306 13.2822 12.834 13.0391 12.834H8.24674Z" fill="white"/>
</svg>
