<svg width="45" height="50" viewBox="0 0 45 50" fill="none" xmlns="http://www.w3.org/2000/svg">
<path d="M22.5 7.14286C18.0499 7.14286 13.6998 8.39962 9.99968 10.7542C6.29957 13.1088 3.41569 16.4555 1.71272 20.3711C0.00974898 24.2866 -0.435826 28.5952 0.432341 32.7519C1.30051 36.9087 3.44343 40.7269 6.59011 43.7237C9.73679 46.7205 13.7459 48.7614 18.1105 49.5882C22.475 50.4151 26.999 49.9907 31.1104 48.3688C35.2217 46.747 38.7357 44.0004 41.2081 40.4765C43.6804 36.9526 45 32.8096 45 28.5714C44.9932 22.8902 42.6205 17.4435 38.4024 13.4262C34.1843 9.40901 28.4653 7.1493 22.5 7.14286ZM22.5 46.4286C18.7916 46.4286 15.1665 45.3813 12.0831 43.4191C8.99965 41.4569 6.59641 38.668 5.17727 35.4051C3.75813 32.1421 3.38681 28.5516 4.11029 25.0877C4.83376 21.6237 6.61952 18.4419 9.24176 15.9445C11.864 13.4472 15.2049 11.7464 18.8421 11.0574C22.4792 10.3684 26.2492 10.722 29.6753 12.0736C33.1014 13.4251 36.0298 15.7139 38.0901 18.6505C40.1503 21.5871 41.25 25.0396 41.25 28.5714C41.2444 33.3058 39.2672 37.8447 35.7521 41.1925C32.237 44.5402 27.4711 46.4232 22.5 46.4286ZM33.1066 18.4699C33.2808 18.6357 33.4189 18.8325 33.5131 19.0492C33.6074 19.2659 33.6559 19.4981 33.6559 19.7326C33.6559 19.9671 33.6074 20.1993 33.5131 20.416C33.4189 20.6326 33.2808 20.8295 33.1066 20.9953L23.8259 29.8341C23.4742 30.169 22.9973 30.3572 22.5 30.3572C22.0027 30.3572 21.5258 30.169 21.1741 29.8341C20.8225 29.4993 20.625 29.045 20.625 28.5714C20.625 28.0978 20.8225 27.6436 21.1741 27.3087L30.4549 18.4699C30.629 18.304 30.8357 18.1725 31.0632 18.0827C31.2907 17.993 31.5345 17.9468 31.7808 17.9468C32.027 17.9468 32.2708 17.993 32.4983 18.0827C32.7258 18.1725 32.9325 18.304 33.1066 18.4699ZM15 1.78571C15 1.31211 15.1976 0.85791 15.5492 0.523024C15.9008 0.188137 16.3777 0 16.875 0L28.125 0C28.6223 0 29.0992 0.188137 29.4508 0.523024C29.8025 0.85791 30 1.31211 30 1.78571C30 2.25931 29.8025 2.71352 29.4508 3.0484C29.0992 3.38329 28.6223 3.57143 28.125 3.57143H16.875C16.3777 3.57143 15.9008 3.38329 15.5492 3.0484C15.1976 2.71352 15 2.25931 15 1.78571Z" fill="#0F24B2"/>
</svg>
