<svg width="72" height="72" viewBox="0 0 72 72" fill="none" xmlns="http://www.w3.org/2000/svg">
<path d="M72 36C72 55.8823 55.8823 72 36 72C16.1177 72 0 55.8823 0 36C0 16.1177 16.1177 0 36 0C55.8823 0 72 16.1177 72 36ZM7.2 36C7.2 51.9058 20.0942 64.8 36 64.8C51.9058 64.8 64.8 51.9058 64.8 36C64.8 20.0942 51.9058 7.2 36 7.2C20.0942 7.2 7.2 20.0942 7.2 36Z" fill="white"/>
<path d="M36 68.4C36 70.3882 37.6158 72.0187 39.5941 71.8203C47.8219 70.995 55.557 67.3546 61.4558 61.4558C68.2072 54.7045 72 45.5478 72 36C72 26.4522 68.2072 17.2955 61.4558 10.5442C55.557 4.64536 47.8219 1.00504 39.5941 0.179751C37.6158 -0.0186832 36 1.61178 36 3.6C36 5.58822 37.618 7.17676 39.5908 7.42461C45.905 8.21792 51.817 11.0876 56.3647 15.6353C61.7657 21.0364 64.8 28.3618 64.8 36C64.8 43.6382 61.7657 50.9636 56.3647 56.3647C51.817 60.9124 45.905 63.7821 39.5908 64.5754C37.618 64.8232 36 66.4118 36 68.4Z" fill="#0F24B2"/>
</svg>
