<svg width="23" height="24" viewBox="0 0 23 24" fill="none" xmlns="http://www.w3.org/2000/svg">
<path d="M11.5001 17L12.4584 15V9.858C14.1077 9.411 15.3334 7.858 15.3334 6C15.3334 3.794 13.6142 2 11.5001 2C9.386 2 7.66675 3.794 7.66675 6C7.66675 7.858 8.89246 9.411 10.5417 9.858V15L11.5001 17ZM9.58341 6C9.58341 4.897 10.443 4 11.5001 4C12.5571 4 13.4167 4.897 13.4167 6C13.4167 7.103 12.5571 8 11.5001 8C10.443 8 9.58341 7.103 9.58341 6Z" fill="white"/>
<path d="M15.5893 10.563L15.0785 12.491C17.5615 13.207 19.1667 14.584 19.1667 16C19.1667 17.892 16.0186 20 11.5001 20C6.98154 20 3.83341 17.892 3.83341 16C3.83341 14.584 5.43862 13.207 7.92262 12.49L7.41183 10.562C4.02221 11.54 1.91675 13.623 1.91675 16C1.91675 19.364 6.12671 22 11.5001 22C16.8735 22 21.0834 19.364 21.0834 16C21.0834 13.623 18.978 11.54 15.5893 10.563Z" fill="white"/>
</svg>
