<svg width="22" height="24" viewBox="0 0 22 24" fill="none" xmlns="http://www.w3.org/2000/svg">
<path d="M16.6203 4.09228L16.6203 4.09228L16.6249 4.24628L16.625 4.25H16.6249V4.87408L18.1041 4.875L16.6203 4.09228ZM16.6203 4.09228L16.6201 4.08815M16.6203 4.09228L16.6201 4.08815M16.6201 4.08815C16.5825 3.49086 16.3385 2.92934 15.9344 2.51779C15.53 2.10594 14.9952 1.87493 14.4374 1.875C14.4374 1.875 14.4374 1.875 14.4374 1.875H7.56242V1.87492L7.55799 1.87508L7.41683 1.88008L7.41682 1.87998L7.41192 1.88035C6.85558 1.92199 6.33698 2.19234 5.95987 2.63297C5.58302 3.0733 5.37485 3.65135 5.37492 4.25C5.37492 4.25 5.37492 4.25001 5.37492 4.25001V4.87408L3.89567 4.875V4.87492L3.89133 4.87508L3.75016 4.88008L3.75016 4.87998L3.74526 4.88035C3.18891 4.92199 2.67031 5.19234 2.29321 5.63297C1.91636 6.0733 1.70819 6.65135 1.70825 7.25C1.70825 7.25 1.70825 7.25001 1.70825 7.25001V16.75H1.7082L1.70831 16.7537L1.71289 16.9077L1.71282 16.9077L1.71308 16.9118C1.75064 17.5091 1.99471 18.0707 2.39878 18.4822C2.80316 18.8941 3.33801 19.1251 3.89575 19.125H5.37492V19.75H5.37486L5.37497 19.7537L5.37956 19.9077L5.37949 19.9077L5.37975 19.9118C5.41731 20.5091 5.66138 21.0707 6.06545 21.4822C6.46982 21.8941 7.00467 22.1251 7.56242 22.125H14.4374V22.1251L14.4418 22.1249L14.583 22.1199L14.583 22.12L14.5879 22.1197C15.1443 22.078 15.6629 21.8077 16.04 21.367C16.4168 20.9267 16.625 20.3486 16.6249 19.75V19.125H18.1041V19.1251L18.1085 19.1249L18.2497 19.1199L18.2497 19.12L18.2546 19.1197C18.8109 19.078 19.3295 18.8077 19.7066 18.367C20.0835 17.9267 20.2917 17.3486 20.2916 16.75V7.25H20.2916L20.2915 7.24628L20.2869 7.09228L20.287 7.09228M16.6201 4.08815L20.287 7.09228M20.287 7.09228L20.2868 7.08815M20.287 7.09228L20.2868 7.08815M20.2868 7.08815C20.2492 6.49086 20.0051 5.92934 19.6011 5.51779C19.1967 5.10596 18.6619 4.87495 18.1042 4.875L20.2868 7.08815ZM3.89576 6.625H3.89583L5.37492 6.62408V17.375H3.90042L3.81622 17.3687C3.55127 17.3277 3.33325 17.0739 3.33325 16.75V7.25393L3.33917 7.1599C3.35899 7.00897 3.42762 6.87279 3.53006 6.77533C3.63307 6.67733 3.7631 6.62501 3.89576 6.625ZM18.104 6.625H18.1041C18.2496 6.625 18.3916 6.68796 18.4981 6.80414C18.6049 6.92068 18.6666 7.0809 18.6666 7.25V16.7461L18.6607 16.8401C18.6408 16.991 18.5722 17.1272 18.4698 17.2247C18.3668 17.3227 18.2367 17.375 18.1041 17.375H16.6249V6.62408L18.104 6.625ZM7.56242 3.625H14.4327L14.5167 3.63129C14.6468 3.65191 14.7683 3.72302 14.8579 3.83512C14.9487 3.9487 14.9999 4.09602 14.9999 4.25V19.7461L14.994 19.8401C14.9742 19.991 14.9056 20.1272 14.8031 20.2247C14.7001 20.3227 14.5701 20.375 14.4374 20.375H7.56709L7.48288 20.3687C7.21794 20.3277 6.99992 20.0739 6.99992 19.75V4.25393L7.00583 4.1599C7.02566 4.00897 7.09429 3.87279 7.19673 3.77533C7.29973 3.67733 7.42976 3.62501 7.56242 3.625Z" fill="white" stroke="white" stroke-width="0.25"/>
<rect x="0.5" y="0.5" width="21" height="23" stroke="black"/>
</svg>
