<svg width="21" height="18" viewBox="0 0 21 18" fill="none" xmlns="http://www.w3.org/2000/svg">
<path d="M18.2421 0H2.29903C1.19996 0 0.306152 0.897 0.306152 2V4C0.306152 4.736 0.709711 5.375 1.30259 5.722V16C1.30259 17.103 2.1964 18 3.29548 18H17.2457C18.3447 18 19.2385 17.103 19.2385 16V5.722C19.8314 5.375 20.235 4.736 20.235 4V2C20.235 0.897 19.3412 0 18.2421 0ZM2.29903 2H18.2421L18.2441 4H2.29903V2ZM3.29548 16V6H17.2457L17.2476 16H3.29548Z" fill="white"/>
<path d="M6.28491 8H14.2564V10H6.28491V8Z" fill="white"/>
</svg>
