<svg width="23" height="24" viewBox="0 0 23 24" fill="none" xmlns="http://www.w3.org/2000/svg">
<path fill-rule="evenodd" clip-rule="evenodd" d="M15.3332 8C15.3332 9.06087 14.9293 10.0783 14.2104 10.8284C13.4915 11.5786 12.5165 12 11.4998 12C10.4832 12 9.50815 11.5786 8.78926 10.8284C8.07037 10.0783 7.6665 9.06087 7.6665 8C7.6665 6.93913 8.07037 5.92172 8.78926 5.17157C9.50815 4.42143 10.4832 4 11.4998 4C12.5165 4 13.4915 4.42143 14.2104 5.17157C14.9293 5.92172 15.3332 6.93913 15.3332 8ZM13.4165 8C13.4165 8.53043 13.2146 9.03914 12.8551 9.41421C12.4957 9.78929 12.0082 10 11.4998 10C10.9915 10 10.504 9.78929 10.1445 9.41421C9.7851 9.03914 9.58317 8.53043 9.58317 8C9.58317 7.46957 9.7851 6.96086 10.1445 6.58579C10.504 6.21071 10.9915 6 11.4998 6C12.0082 6 12.4957 6.21071 12.8551 6.58579C13.2146 6.96086 13.4165 7.46957 13.4165 8Z" fill="white"/>
<path fill-rule="evenodd" clip-rule="evenodd" d="M11.4999 0C5.67804 0 0.958252 4.925 0.958252 11C0.958252 17.075 5.67804 22 11.4999 22C17.3218 22 22.0416 17.075 22.0416 11C22.0416 4.925 17.3218 0 11.4999 0ZM2.87492 11C2.87492 13.09 3.55821 15.014 4.70342 16.542C5.50768 15.4399 6.54524 14.5467 7.73504 13.9323C8.92484 13.3179 10.2347 12.9988 11.5622 13C12.8726 12.9987 14.1659 13.3095 15.3437 13.9088C16.5215 14.508 17.5527 15.3799 18.3587 16.458C19.1891 15.3216 19.7481 13.9952 19.9897 12.5886C20.2312 11.182 20.1483 9.73553 19.7478 8.36898C19.3473 7.00243 18.6407 5.75505 17.6864 4.73004C16.7322 3.70503 15.5577 2.93186 14.2603 2.47451C12.9628 2.01716 11.5796 1.88877 10.2252 2.09997C8.87075 2.31117 7.58397 2.85589 6.47132 3.68905C5.35868 4.52222 4.45215 5.61987 3.82676 6.8912C3.20137 8.16252 2.87509 9.57097 2.87492 11ZM11.4999 20C9.51995 20.0031 7.59976 19.2923 6.06425 17.988C6.68231 17.0647 7.50495 16.3109 8.46219 15.7907C9.41942 15.2705 10.4829 14.9992 11.5622 15C12.628 14.9991 13.6787 15.2636 14.6269 15.7714C15.5751 16.2793 16.3935 17.0159 17.0142 17.92C15.4667 19.2667 13.5149 20.0029 11.4999 20Z" fill="white"/>
</svg>
