<svg width="20" height="18" viewBox="0 0 20 18" fill="none" xmlns="http://www.w3.org/2000/svg">
<path d="M10.0006 1.99993C5.46856 1.99993 2.00056 5.24082 2.00056 8.99968C2.00056 10.2516 2.37556 11.4296 3.04256 12.4546C3.1219 12.5763 3.17373 12.714 3.19446 12.8578C3.21518 13.0017 3.2043 13.1483 3.16256 13.2875L2.42056 15.7494L5.83556 15.1815C6.02787 15.1496 6.22529 15.1746 6.40356 15.2535C7.53756 15.7498 8.7627 16.0039 10.0006 15.9994C14.5326 15.9994 18.0006 12.7576 18.0006 8.99968C18.0006 5.24082 14.5326 1.99993 10.0006 1.99993ZM0.000560251 8.99968C0.000560251 3.92186 4.59156 0 10.0006 0C15.4096 0 20.0006 3.92186 20.0006 8.99968C20.0006 14.0775 15.4096 17.9994 10.0006 17.9994C8.53456 17.9994 7.13756 17.7154 5.87756 17.2024L1.16456 17.9864C0.99689 18.0143 0.824857 17.9991 0.664709 17.9421C0.504561 17.8851 0.361585 17.7882 0.249287 17.6606C0.136988 17.533 0.0590732 17.3789 0.0229017 17.2128C-0.0132697 17.0467 -0.00650375 16.8742 0.0425603 16.7114L1.11856 13.1395C0.387922 11.8821 0.00225768 10.454 0.000560251 8.99968V8.99968Z" fill="white"/>
</svg>
