<svg width="45" height="66" viewBox="0 0 45 66" fill="none" xmlns="http://www.w3.org/2000/svg">
<path fill-rule="evenodd" clip-rule="evenodd" d="M9.99968 11.4539C13.6998 9.00514 18.0499 7.6981 22.5 7.6981C28.4653 7.7048 34.1843 10.0549 38.4024 14.2328C42.6205 18.4108 44.9932 24.0753 45 29.9838C45 34.3915 43.6804 38.7002 41.2081 42.3651C38.7357 46.03 35.2217 48.8864 31.1104 50.5731C26.999 52.2599 22.475 52.7012 18.1105 51.8413C13.7459 50.9814 9.73678 48.8589 6.5901 45.7422C3.44343 42.6255 1.30051 38.6545 0.432341 34.3315C-0.435826 30.0085 0.00974924 25.5276 1.71272 21.4554C3.41569 17.3833 6.29957 13.9027 9.99968 11.4539ZM12.0831 45.4254C15.1665 47.466 18.7916 48.5552 22.5 48.5552C27.4711 48.5497 32.237 46.5913 35.7521 43.1097C39.2672 39.6281 41.2444 34.9076 41.25 29.9838C41.25 26.3107 40.1503 22.7201 38.0901 19.6661C36.0298 16.612 33.1014 14.2317 29.6753 12.826C26.2492 11.4204 22.4792 11.0526 18.8421 11.7692C15.2049 12.4858 11.864 14.2546 9.24176 16.8518C6.61952 19.4491 4.83375 22.7582 4.11028 26.3607C3.38681 29.9632 3.75812 33.6973 5.17727 37.0908C6.59641 40.4843 8.99965 43.3847 12.0831 45.4254ZM33.5131 20.0807C33.4189 19.8554 33.2808 19.6506 33.1066 19.4782C32.9325 19.3057 32.7258 19.1689 32.4983 19.0756C32.2708 18.9823 32.027 18.9342 31.7808 18.9342C31.5345 18.9342 31.2907 18.9823 31.0632 19.0756C30.8357 19.1689 30.629 19.3057 30.4549 19.4782L21.1741 28.6706C20.8225 29.0189 20.625 29.4913 20.625 29.9838C20.625 30.4764 20.8225 30.9488 21.1741 31.2971C21.5258 31.6453 22.0027 31.841 22.5 31.841C22.9973 31.841 23.4742 31.6453 23.8259 31.2971L33.1066 22.1047C33.2808 21.9322 33.4189 21.7275 33.5131 21.5021C33.6074 21.2768 33.6559 21.0353 33.6559 20.7914C33.6559 20.5475 33.6074 20.306 33.5131 20.0807ZM15.5492 0.813477C15.1976 1.16176 15 1.63412 15 2.12668C15 2.61922 15.1976 3.09158 15.5492 3.43987C15.9008 3.78815 16.3777 3.98381 16.875 3.98381H28.125C28.6223 3.98381 29.0992 3.78815 29.4508 3.43987C29.8025 3.09158 30 2.61922 30 2.12668C30 1.63412 29.8025 1.16176 29.4508 0.813477C29.0992 0.465195 28.6223 0.269531 28.125 0.269531H16.875C16.3777 0.269531 15.9008 0.465195 15.5492 0.813477ZM17.8957 66H13.1088V65.2046L15.5697 62.6548C16.3509 61.8274 16.7345 61.3658 16.7345 60.723C16.7345 59.9986 16.1734 59.544 15.4347 59.544C14.6499 59.544 14.1457 60.0554 14.1492 60.8366H13.1017C13.1017 59.5085 14.096 58.6278 15.4561 58.6278C16.8268 58.6278 17.7785 59.5227 17.7785 60.691C17.7785 61.5043 17.3985 62.147 16.0668 63.4929L14.6215 65.0057V65.059H17.8957V66ZM22.3808 64.5796H18.9326V63.6918L22.0754 58.7273H23.4284V63.6491H24.3907V64.5796H23.4284V66H22.3808V64.5796ZM20.0832 63.6491H22.3879V60.0341H22.3311L20.0832 63.5923V63.6491ZM30.6576 61.3942C29.9012 61.3942 29.3508 61.8913 29.3508 62.7614V66H28.289V58.7273H29.3366V61.4332H29.404C29.6597 60.8438 30.1711 60.4744 31.0198 60.4744C32.142 60.4744 32.8877 61.1704 32.8877 62.5305V66H31.8259V62.6584C31.8259 61.8594 31.3891 61.3942 30.6576 61.3942Z" fill="white"/>
</svg>
