<svg width="45" height="66" viewBox="0 0 45 66" fill="none" xmlns="http://www.w3.org/2000/svg">
<path d="M22.5 7.14286C18.0499 7.14286 13.6998 8.39962 9.99968 10.7542C6.29957 13.1088 3.41569 16.4555 1.71272 20.3711C0.00974898 24.2866 -0.435826 28.5952 0.432341 32.7519C1.30051 36.9087 3.44343 40.7269 6.59011 43.7237C9.73679 46.7205 13.7459 48.7614 18.1105 49.5882C22.475 50.4151 26.999 49.9907 31.1104 48.3688C35.2217 46.747 38.7357 44.0004 41.2081 40.4765C43.6804 36.9526 45 32.8096 45 28.5714C44.9932 22.8902 42.6205 17.4435 38.4024 13.4262C34.1843 9.40901 28.4653 7.1493 22.5 7.14286ZM22.5 46.4286C18.7916 46.4286 15.1665 45.3813 12.0831 43.4191C8.99965 41.4569 6.59641 38.668 5.17727 35.4051C3.75813 32.1421 3.38681 28.5516 4.11029 25.0877C4.83376 21.6237 6.61952 18.4419 9.24176 15.9445C11.864 13.4472 15.2049 11.7464 18.8421 11.0574C22.4792 10.3684 26.2492 10.722 29.6753 12.0736C33.1014 13.4251 36.0298 15.7139 38.0901 18.6505C40.1503 21.5871 41.25 25.0396 41.25 28.5714C41.2444 33.3058 39.2672 37.8447 35.7521 41.1925C32.237 44.5402 27.4711 46.4232 22.5 46.4286ZM33.1066 18.4699C33.2808 18.6357 33.4189 18.8325 33.5131 19.0492C33.6074 19.2659 33.6559 19.4981 33.6559 19.7326C33.6559 19.9671 33.6074 20.1993 33.5131 20.416C33.4189 20.6326 33.2808 20.8295 33.1066 20.9953L23.8259 29.8341C23.4742 30.169 22.9973 30.3572 22.5 30.3572C22.0027 30.3572 21.5258 30.169 21.1741 29.8341C20.8225 29.4993 20.625 29.045 20.625 28.5714C20.625 28.0978 20.8225 27.6436 21.1741 27.3087L30.4549 18.4699C30.629 18.304 30.8357 18.1725 31.0632 18.0827C31.2907 17.993 31.5345 17.9468 31.7808 17.9468C32.027 17.9468 32.2708 17.993 32.4983 18.0827C32.7258 18.1725 32.9325 18.304 33.1066 18.4699ZM15 1.78571C15 1.31211 15.1976 0.85791 15.5492 0.523024C15.9008 0.188137 16.3777 0 16.875 0L28.125 0C28.6223 0 29.0992 0.188137 29.4508 0.523024C29.8025 0.85791 30 1.31211 30 1.78571C30 2.25931 29.8025 2.71352 29.4508 3.0484C29.0992 3.38329 28.6223 3.57143 28.125 3.57143H16.875C16.3777 3.57143 15.9008 3.38329 15.5492 3.0484C15.1976 2.71352 15 2.25931 15 1.78571Z" fill="white"/>
<path d="M11.7294 56V56.68L8.89941 63H7.83941L10.6094 56.87H7.40941V58.12H6.44941V56H11.7294ZM15.0415 65C14.8082 65 14.5915 64.9733 14.3915 64.92C14.1915 64.8667 14.0249 64.7867 13.8915 64.68L14.2015 63.94C14.4015 64.1067 14.6615 64.19 14.9815 64.19C15.2349 64.19 15.4282 64.11 15.5615 63.95C15.7015 63.7967 15.7715 63.5667 15.7715 63.26V57.7H16.7315V63.24C16.7315 63.7867 16.5849 64.2167 16.2915 64.53C15.9982 64.8433 15.5815 65 15.0415 65ZM16.2515 56.68C16.0649 56.68 15.9082 56.62 15.7815 56.5C15.6615 56.38 15.6015 56.2333 15.6015 56.06C15.6015 55.8867 15.6615 55.74 15.7815 55.62C15.9082 55.4933 16.0649 55.43 16.2515 55.43C16.4382 55.43 16.5915 55.49 16.7115 55.61C16.8382 55.7233 16.9015 55.8667 16.9015 56.04C16.9015 56.22 16.8382 56.3733 16.7115 56.5C16.5915 56.62 16.4382 56.68 16.2515 56.68ZM20.8333 63.06C20.3067 63.06 19.8333 62.9433 19.4133 62.71C18.9933 62.4767 18.6633 62.1567 18.4233 61.75C18.19 61.3367 18.0733 60.87 18.0733 60.35C18.0733 59.83 18.19 59.3667 18.4233 58.96C18.6633 58.5467 18.9933 58.2267 19.4133 58C19.8333 57.7667 20.3067 57.65 20.8333 57.65C21.36 57.65 21.83 57.7667 22.2433 58C22.6633 58.2267 22.99 58.5467 23.2233 58.96C23.4633 59.3667 23.5833 59.83 23.5833 60.35C23.5833 60.87 23.4633 61.3367 23.2233 61.75C22.99 62.1567 22.6633 62.4767 22.2433 62.71C21.83 62.9433 21.36 63.06 20.8333 63.06ZM20.8333 62.22C21.1733 62.22 21.4767 62.1433 21.7433 61.99C22.0167 61.83 22.23 61.61 22.3833 61.33C22.5367 61.0433 22.6133 60.7167 22.6133 60.35C22.6133 59.9833 22.5367 59.66 22.3833 59.38C22.23 59.0933 22.0167 58.8733 21.7433 58.72C21.4767 58.5667 21.1733 58.49 20.8333 58.49C20.4933 58.49 20.1867 58.5667 19.9133 58.72C19.6467 58.8733 19.4333 59.0933 19.2733 59.38C19.12 59.66 19.0433 59.9833 19.0433 60.35C19.0433 60.7167 19.12 61.0433 19.2733 61.33C19.4333 61.61 19.6467 61.83 19.9133 61.99C20.1867 62.1433 20.4933 62.22 20.8333 62.22ZM29.851 57.7V63H28.941V62.2C28.7476 62.4733 28.491 62.6867 28.171 62.84C27.8576 62.9867 27.5143 63.06 27.141 63.06C26.4343 63.06 25.8776 62.8667 25.471 62.48C25.0643 62.0867 24.861 61.51 24.861 60.75V57.7H25.821V60.64C25.821 61.1533 25.9443 61.5433 26.191 61.81C26.4376 62.07 26.791 62.2 27.251 62.2C27.7576 62.2 28.1576 62.0467 28.451 61.74C28.7443 61.4333 28.891 61 28.891 60.44V57.7H29.851ZM32.5986 58.59C32.7652 58.2833 33.0119 58.05 33.3386 57.89C33.6652 57.73 34.0619 57.65 34.5286 57.65V58.58C34.4752 58.5733 34.4019 58.57 34.3086 58.57C33.7886 58.57 33.3786 58.7267 33.0786 59.04C32.7852 59.3467 32.6386 59.7867 32.6386 60.36V63H31.6786V57.7H32.5986V58.59ZM37.2708 63.06C36.8375 63.06 36.4208 63.0033 36.0208 62.89C35.6208 62.77 35.3075 62.62 35.0808 62.44L35.4808 61.68C35.7142 61.8467 35.9975 61.98 36.3308 62.08C36.6642 62.18 37.0008 62.23 37.3408 62.23C38.1808 62.23 38.6008 61.99 38.6008 61.51C38.6008 61.35 38.5442 61.2233 38.4308 61.13C38.3175 61.0367 38.1742 60.97 38.0008 60.93C37.8342 60.8833 37.5942 60.8333 37.2808 60.78C36.8542 60.7133 36.5042 60.6367 36.2308 60.55C35.9642 60.4633 35.7342 60.3167 35.5408 60.11C35.3475 59.9033 35.2508 59.6133 35.2508 59.24C35.2508 58.76 35.4508 58.3767 35.8508 58.09C36.2508 57.7967 36.7875 57.65 37.4608 57.65C37.8142 57.65 38.1675 57.6933 38.5208 57.78C38.8742 57.8667 39.1642 57.9833 39.3908 58.13L38.9808 58.89C38.5475 58.61 38.0375 58.47 37.4508 58.47C37.0442 58.47 36.7342 58.5367 36.5208 58.67C36.3075 58.8033 36.2008 58.98 36.2008 59.2C36.2008 59.3733 36.2608 59.51 36.3808 59.61C36.5008 59.71 36.6475 59.7833 36.8208 59.83C37.0008 59.8767 37.2508 59.93 37.5708 59.99C37.9975 60.0633 38.3408 60.1433 38.6008 60.23C38.8675 60.31 39.0942 60.45 39.2808 60.65C39.4675 60.85 39.5608 61.13 39.5608 61.49C39.5608 61.97 39.3542 62.3533 38.9408 62.64C38.5342 62.92 37.9775 63.06 37.2708 63.06Z" fill="white"/>
</svg>
