<svg width="375" height="451" viewBox="0 0 375 451" fill="none" xmlns="http://www.w3.org/2000/svg">
<path d="M-27.0901 70.2473C-68.004 7.88586 -125.57 0.00235288 -125.57 0.00235288C-125.57 0.00235288 -129.808 439.956 -126.427 398.062C-123.046 356.168 -82.7204 347.719 -82.7204 347.719C-82.7204 347.719 -76.9588 346.18 -62.9746 346.21L-2.9248 346.34L126.224 346.618C325.29 348.599 273.469 346.935 353.261 347.107C387.357 347.18 406.1 347.197 418.246 347.247C437.166 347.288 443.747 347.302 451.966 350.423C481.558 360.574 488.91 384.645 490.193 398.614C491.475 412.584 490.335 332.293 490.335 332.293C490.335 332.293 389.479 262.138 323.968 245.733C259.733 229.647 206.187 255.538 152.316 225.398C109.289 201.325 114.858 175.395 78.1212 146.319C38.6155 115.052 13.8239 132.609 -27.0901 70.2473Z" fill="#9E4ACE"/>
<path d="M-16.7597 148.959C-56.9497 103.682 -114.891 99.4657 -114.891 99.4657C-114.891 99.4657 -118.079 451.935 -115.548 404.225C-113.016 356.515 -71.2059 350.286 -71.2059 350.286C-71.2059 350.286 -65.5521 349.172 -51.8271 349.201L7.10983 349.328L133.864 349.601C329.242 351.148 278.381 349.913 356.694 350.081C390.158 350.154 408.553 350.176 420.475 350.219C439.044 350.259 445.503 350.273 453.572 352.543C489.306 366.279 490.378 397.703 491.645 407.842C492.912 417.98 492.247 339.279 492.247 339.279C492.247 339.279 392.194 288.441 327.888 276.5C264.835 264.791 212.296 283.55 159.407 261.648C117.164 244.155 122.615 225.342 86.5434 204.222C47.7527 181.51 23.4303 194.237 -16.7597 148.959Z" fill="#EF96C3"/>
<path d="M-14.7329 218.258C-55.0277 186.379 -114.163 183.373 -114.163 183.373C-114.163 183.373 -116.048 431.34 -113.543 397.777C-111.037 364.214 -69.1523 359.858 -69.1523 359.858C-69.1523 359.858 -63.4884 359.078 -49.7376 359.108L9.31028 359.235L136.304 359.509C332.05 360.723 281.092 359.821 359.553 359.99C393.08 360.062 411.51 360.09 423.454 360.127C442.058 360.168 448.529 360.181 456.614 361.783C492.424 371.47 493.519 393.578 494.795 400.712C496.07 407.845 528.655 370.433 494.894 354.822C488.269 351.759 473.805 344.847 463.664 341.548C420.601 325.141 363.403 317.061 330.645 308.206C274.299 292.973 214.84 313.091 161.837 297.649C119.504 285.315 124.953 272.083 88.8 257.202C49.9217 241.199 25.5618 250.137 -14.7329 218.258Z" fill="#EFB33E"/>
<path d="M-16.5156 260.115C-56.543 235.442 -115.264 233.09 -115.264 233.09C-115.264 233.09 -118.588 457.074 -114.583 415.027C-110.578 372.98 -70.4865 369.594 -70.4865 369.594C-70.4865 369.594 -64.8627 368.994 -51.2082 369.023L7.42577 369.149L133.529 369.421C327.904 370.452 277.303 369.731 355.214 369.899C388.506 369.97 406.806 370 418.667 370.035C437.141 370.075 443.336 370.752 450.581 372.361C500.487 383.439 484.227 454.716 489.874 450.156C495.521 445.597 489.804 435.773 490.768 409.017C491.356 392.702 519.533 369.544 490.868 362.63C409.3 342.956 369.313 339.59 349.188 335.572C331.624 332.065 303.328 325.417 290.422 325.389C216.617 325.23 193.535 335.935 161.098 328.293C116.067 317.684 122.217 301.806 86.3104 290.281C47.6971 277.886 23.5117 284.787 -16.5156 260.115Z" fill="#0F24B2"/>
</svg>
