<svg width="198" height="36" viewBox="0 0 198 36" fill="none" xmlns="http://www.w3.org/2000/svg">
<rect x="0.05" y="0.05" width="1.9" height="27.9" fill="#7E7E7E" stroke="white" stroke-width="0.1"/>
<rect x="2.05" y="2.05" width="1.9" height="25.9" fill="#7E7E7E" stroke="white" stroke-width="0.1"/>
<rect x="4.05" y="4.05" width="1.9" height="23.9" fill="#7E7E7E" stroke="white" stroke-width="0.1"/>
<rect x="6.05" y="6.05" width="1.9" height="21.9" fill="#7E7E7E" stroke="white" stroke-width="0.1"/>
<rect x="8.05" y="4.05" width="1.9" height="23.9" fill="#7E7E7E" stroke="white" stroke-width="0.1"/>
<rect x="10.05" y="2.05" width="1.9" height="25.9" fill="#7E7E7E" stroke="white" stroke-width="0.1"/>
<rect x="12.05" y="4.05" width="1.9" height="23.9" fill="#7E7E7E" stroke="white" stroke-width="0.1"/>
<rect x="14.05" y="2.05" width="1.9" height="25.9" fill="#7E7E7E" stroke="white" stroke-width="0.1"/>
<rect x="16.05" y="4.05" width="1.9" height="23.9" fill="#7E7E7E" stroke="white" stroke-width="0.1"/>
<rect x="18.05" y="6.05" width="1.9" height="21.9" fill="#7E7E7E" stroke="white" stroke-width="0.1"/>
<rect x="20.05" y="8.05" width="1.9" height="19.9" fill="#7E7E7E" stroke="white" stroke-width="0.1"/>
<rect x="22.05" y="6.05" width="1.9" height="21.9" fill="#7E7E7E" stroke="white" stroke-width="0.1"/>
<rect x="24.05" y="8.05" width="1.9" height="19.9" fill="#7E7E7E" stroke="white" stroke-width="0.1"/>
<rect x="26.05" y="10.05" width="1.9" height="17.9" fill="#7E7E7E" stroke="white" stroke-width="0.1"/>
<rect x="28.05" y="7.05" width="1.9" height="20.9" fill="#7E7E7E" stroke="white" stroke-width="0.1"/>
<rect x="30.05" y="6.05" width="1.9" height="21.9" fill="#7E7E7E" stroke="white" stroke-width="0.1"/>
<rect x="32.05" y="8.05" width="1.9" height="19.9" fill="#7E7E7E" stroke="white" stroke-width="0.1"/>
<rect x="34.05" y="10.05" width="1.9" height="17.9" fill="#7E7E7E" stroke="white" stroke-width="0.1"/>
<rect x="36.05" y="12.05" width="1.9" height="15.9" fill="#7E7E7E" stroke="white" stroke-width="0.1"/>
<rect x="38.05" y="10.05" width="1.9" height="17.9" fill="#7E7E7E" stroke="white" stroke-width="0.1"/>
<rect x="40.05" y="8.05" width="1.9" height="19.9" fill="#7E7E7E" stroke="white" stroke-width="0.1"/>
<rect x="42.05" y="8.05" width="1.9" height="19.9" fill="#7E7E7E" stroke="white" stroke-width="0.1"/>
<rect x="44.05" y="6.05" width="1.9" height="21.9" fill="#7E7E7E" stroke="white" stroke-width="0.1"/>
<rect x="46.05" y="4.05" width="1.9" height="23.9" fill="#7E7E7E" stroke="white" stroke-width="0.1"/>
<rect x="48.05" y="4.05" width="1.9" height="23.9" fill="#7E7E7E" stroke="white" stroke-width="0.1"/>
<rect x="50.05" y="6.05" width="1.9" height="21.9" fill="#7E7E7E" stroke="white" stroke-width="0.1"/>
<rect x="52.05" y="6.05" width="1.9" height="21.9" fill="#7E7E7E" stroke="white" stroke-width="0.1"/>
<rect x="54.05" y="4.05" width="1.9" height="23.9" fill="#7E7E7E" stroke="white" stroke-width="0.1"/>
<rect x="56.05" y="4.05" width="1.9" height="23.9" fill="#7E7E7E" stroke="white" stroke-width="0.1"/>
<rect x="58.05" y="2.05" width="1.9" height="25.9" fill="#7E7E7E" stroke="white" stroke-width="0.1"/>
<rect x="60.05" y="4.05" width="1.9" height="23.9" fill="#7E7E7E" stroke="white" stroke-width="0.1"/>
<rect x="62.05" y="6.05" width="1.9" height="21.9" fill="#7E7E7E" stroke="white" stroke-width="0.1"/>
<rect x="64.05" y="4.05" width="1.9" height="23.9" fill="#7E7E7E" stroke="white" stroke-width="0.1"/>
<rect x="66.05" y="7.05" width="1.9" height="20.9" fill="#7E7E7E" stroke="white" stroke-width="0.1"/>
<rect x="68.05" y="9.05" width="1.9" height="18.9" fill="#7E7E7E" stroke="white" stroke-width="0.1"/>
<rect x="70.05" y="4.05" width="1.9" height="23.9" fill="#7E7E7E" stroke="white" stroke-width="0.1"/>
<rect x="72.05" y="6.05" width="1.9" height="21.9" fill="#7E7E7E" stroke="white" stroke-width="0.1"/>
<rect x="74.05" y="4.05" width="1.9" height="23.9" fill="#7E7E7E" stroke="white" stroke-width="0.1"/>
<rect x="76.05" y="3.05" width="1.9" height="24.9" fill="#7E7E7E" stroke="white" stroke-width="0.1"/>
<rect x="78.05" y="5.05" width="1.9" height="22.9" fill="#7E7E7E" stroke="white" stroke-width="0.1"/>
<rect x="80.05" y="7.05" width="1.9" height="20.9" fill="#7E7E7E" stroke="white" stroke-width="0.1"/>
<rect x="82.05" y="3.05" width="1.9" height="24.9" fill="#7E7E7E" stroke="white" stroke-width="0.1"/>
<rect x="84.05" y="5.05" width="1.9" height="22.9" fill="#7E7E7E" stroke="white" stroke-width="0.1"/>
<rect x="86.05" y="6.05" width="1.9" height="21.9" fill="#7E7E7E" stroke="white" stroke-width="0.1"/>
<rect x="88.05" y="9.05" width="1.9" height="18.9" fill="#7E7E7E" stroke="white" stroke-width="0.1"/>
<rect x="90.05" y="7.05" width="1.9" height="20.9" fill="#7E7E7E" stroke="white" stroke-width="0.1"/>
<rect x="92.05" y="5.05" width="1.9" height="22.9" fill="#7E7E7E" stroke="white" stroke-width="0.1"/>
<rect x="94.05" y="7.05" width="1.9" height="20.9" fill="#7E7E7E" stroke="white" stroke-width="0.1"/>
<rect x="96.05" y="11.05" width="1.9" height="16.9" fill="#7E7E7E" stroke="white" stroke-width="0.1"/>
<rect x="98.05" y="9.05" width="1.9" height="18.9" fill="#7E7E7E" stroke="white" stroke-width="0.1"/>
<rect x="100.05" y="7.05" width="1.9" height="20.9" fill="#7E7E7E" stroke="white" stroke-width="0.1"/>
<rect x="102.05" y="9.05" width="1.9" height="18.9" fill="#7E7E7E" stroke="white" stroke-width="0.1"/>
<rect x="104.05" y="11.05" width="1.9" height="16.9" fill="#7E7E7E" stroke="white" stroke-width="0.1"/>
<rect x="106.05" y="14.05" width="1.9" height="13.9" fill="#7E7E7E" stroke="white" stroke-width="0.1"/>
<rect x="108.05" y="11.05" width="1.9" height="16.9" fill="#7E7E7E" stroke="white" stroke-width="0.1"/>
<rect x="110.05" y="13.05" width="1.9" height="14.9" fill="#7E7E7E" stroke="white" stroke-width="0.1"/>
<rect x="112.05" y="9.05" width="1.9" height="18.9" fill="#7E7E7E" stroke="white" stroke-width="0.1"/>
<rect x="114.05" y="11.05" width="1.9" height="16.9" fill="#7E7E7E" stroke="white" stroke-width="0.1"/>
<rect x="116.05" y="9.05" width="1.9" height="18.9" fill="#7E7E7E" stroke="white" stroke-width="0.1"/>
<rect x="118.05" y="7.05" width="1.9" height="20.9" fill="#7E7E7E" stroke="white" stroke-width="0.1"/>
<rect x="120.05" y="9.05" width="1.9" height="18.9" fill="#7E7E7E" stroke="white" stroke-width="0.1"/>
<rect x="122.05" y="11.05" width="1.9" height="16.9" fill="#7E7E7E" stroke="white" stroke-width="0.1"/>
<rect x="124.05" y="7.05" width="1.9" height="20.9" fill="#7E7E7E" stroke="white" stroke-width="0.1"/>
<rect x="126.05" y="9.05" width="1.9" height="18.9" fill="#7E7E7E" stroke="white" stroke-width="0.1"/>
<rect x="128.05" y="7.05" width="1.9" height="20.9" fill="#7E7E7E" stroke="white" stroke-width="0.1"/>
<rect x="130.05" y="9.05" width="1.9" height="18.9" fill="#7E7E7E" stroke="white" stroke-width="0.1"/>
<rect x="132.05" y="11.05" width="1.9" height="16.9" fill="#7E7E7E" stroke="white" stroke-width="0.1"/>
<rect x="134.05" y="13.05" width="1.9" height="14.9" fill="#7E7E7E" stroke="white" stroke-width="0.1"/>
<rect x="136.05" y="9.05" width="1.9" height="18.9" fill="#7E7E7E" stroke="white" stroke-width="0.1"/>
<rect x="138.05" y="11.05" width="1.9" height="16.9" fill="#7E7E7E" stroke="white" stroke-width="0.1"/>
<rect x="140.05" y="7.05" width="1.9" height="20.9" fill="#7E7E7E" stroke="white" stroke-width="0.1"/>
<rect x="142.05" y="9.05" width="1.9" height="18.9" fill="#7E7E7E" stroke="white" stroke-width="0.1"/>
<rect x="144.05" y="7.05" width="1.9" height="20.9" fill="#7E7E7E" stroke="white" stroke-width="0.1"/>
<rect x="146.05" y="5.05" width="1.9" height="22.9" fill="#7E7E7E" stroke="white" stroke-width="0.1"/>
<rect x="148.05" y="7.05" width="1.9" height="20.9" fill="#7E7E7E" stroke="white" stroke-width="0.1"/>
<rect x="150.05" y="9.05" width="1.9" height="18.9" fill="#7E7E7E" stroke="white" stroke-width="0.1"/>
<rect x="152.05" y="7.05" width="1.9" height="20.9" fill="#7E7E7E" stroke="white" stroke-width="0.1"/>
<rect x="154.05" y="11.05" width="1.9" height="16.9" fill="#7E7E7E" stroke="white" stroke-width="0.1"/>
<rect x="156.05" y="7.05" width="1.9" height="20.9" fill="#7E7E7E" stroke="white" stroke-width="0.1"/>
<rect x="158.05" y="9.05" width="1.9" height="18.9" fill="#7E7E7E" stroke="white" stroke-width="0.1"/>
<rect x="160.05" y="7.05" width="1.9" height="20.9" fill="#7E7E7E" stroke="white" stroke-width="0.1"/>
<rect x="162.05" y="11.05" width="1.9" height="16.9" fill="#7E7E7E" stroke="white" stroke-width="0.1"/>
<rect x="164.05" y="13.05" width="1.9" height="14.9" fill="#7E7E7E" stroke="white" stroke-width="0.1"/>
<rect x="166.05" y="11.05" width="1.9" height="16.9" fill="#7E7E7E" stroke="white" stroke-width="0.1"/>
<rect x="168.05" y="13.05" width="1.9" height="14.9" fill="#7E7E7E" stroke="white" stroke-width="0.1"/>
<rect x="170.05" y="9.05" width="1.9" height="18.9" fill="#7E7E7E" stroke="white" stroke-width="0.1"/>
<rect x="172.05" y="13.05" width="1.9" height="14.9" fill="#7E7E7E" stroke="white" stroke-width="0.1"/>
<rect x="174.05" y="15.05" width="1.9" height="12.9" fill="#7E7E7E" stroke="white" stroke-width="0.1"/>
<rect x="176.05" y="13.05" width="1.9" height="14.9" fill="#7E7E7E" stroke="white" stroke-width="0.1"/>
<rect x="178.05" y="11.05" width="1.9" height="16.9" fill="#7E7E7E" stroke="white" stroke-width="0.1"/>
<rect x="180.05" y="8.05" width="1.9" height="19.9" fill="#7E7E7E" stroke="white" stroke-width="0.1"/>
<rect x="182.05" y="11.05" width="1.9" height="16.9" fill="#7E7E7E" stroke="white" stroke-width="0.1"/>
<rect x="184.05" y="13.05" width="1.9" height="14.9" fill="#7E7E7E" stroke="white" stroke-width="0.1"/>
<rect x="186.05" y="8.05" width="1.9" height="19.9" fill="#7E7E7E" stroke="white" stroke-width="0.1"/>
<rect x="188.05" y="11.05" width="1.9" height="16.9" fill="#7E7E7E" stroke="white" stroke-width="0.1"/>
<rect x="190.05" y="13.05" width="1.9" height="14.9" fill="#7E7E7E" stroke="white" stroke-width="0.1"/>
<rect x="192.05" y="11.05" width="1.9" height="16.9" fill="#7E7E7E" stroke="white" stroke-width="0.1"/>
<rect x="194.05" y="9.05" width="1.9" height="18.9" fill="#7E7E7E" stroke="white" stroke-width="0.1"/>
<rect x="196.05" y="16.05" width="1.9" height="11.9" fill="#7E7E7E" stroke="white" stroke-width="0.1"/>
<rect x="192.05" y="28.05" width="1.9" height="5.9" fill="#C9C9C9" stroke="white" stroke-width="0.1"/>
<rect x="194.05" y="28.05" width="1.9" height="3.9" fill="#C9C9C9" stroke="white" stroke-width="0.1"/>
<rect x="196.05" y="28.05" width="1.9" height="3.9" fill="#C9C9C9" stroke="white" stroke-width="0.1"/>
<rect x="190.05" y="28.05" width="1.9" height="7.9" fill="#C9C9C9" stroke="white" stroke-width="0.1"/>
<rect x="188.05" y="28.05" width="1.9" height="6.9" fill="#C9C9C9" stroke="white" stroke-width="0.1"/>
<rect x="186.05" y="28.05" width="1.9" height="5.9" fill="#C9C9C9" stroke="white" stroke-width="0.1"/>
<rect x="184.05" y="28.05" width="1.9" height="6.9" fill="#C9C9C9" stroke="white" stroke-width="0.1"/>
<rect x="182.05" y="28.05" width="1.9" height="7.9" fill="#C9C9C9" stroke="white" stroke-width="0.1"/>
<rect x="180.05" y="28.05" width="1.9" height="7.9" fill="#C9C9C9" stroke="white" stroke-width="0.1"/>
<rect x="178.05" y="28.05" width="1.9" height="7.9" fill="#C9C9C9" stroke="white" stroke-width="0.1"/>
<rect x="176.05" y="28.05" width="1.9" height="5.9" fill="#C9C9C9" stroke="white" stroke-width="0.1"/>
<rect x="174.05" y="28.05" width="1.9" height="6.9" fill="#C9C9C9" stroke="white" stroke-width="0.1"/>
<rect x="172" y="28" width="2" height="5" fill="#C9C9C9"/>
<rect x="170.05" y="28.05" width="1.9" height="6.9" fill="#C9C9C9" stroke="white" stroke-width="0.1"/>
<rect x="168.05" y="28.05" width="1.9" height="7.9" fill="#C9C9C9" stroke="white" stroke-width="0.1"/>
<rect x="166.05" y="28.05" width="1.9" height="6.9" fill="#C9C9C9" stroke="white" stroke-width="0.1"/>
<rect x="164.05" y="28.05" width="1.9" height="7.9" fill="#C9C9C9" stroke="white" stroke-width="0.1"/>
<rect x="162.05" y="28.05" width="1.9" height="6.9" fill="#C9C9C9" stroke="white" stroke-width="0.1"/>
<rect x="160.05" y="28.05" width="1.9" height="7.9" fill="#C9C9C9" stroke="white" stroke-width="0.1"/>
<rect x="158.05" y="28.05" width="1.9" height="7.9" fill="#C9C9C9" stroke="white" stroke-width="0.1"/>
<rect x="156.05" y="28.05" width="1.9" height="7.9" fill="#C9C9C9" stroke="white" stroke-width="0.1"/>
<rect x="154.05" y="28.05" width="1.9" height="6.9" fill="#C9C9C9" stroke="white" stroke-width="0.1"/>
<rect x="152.05" y="28.05" width="1.9" height="5.9" fill="#C9C9C9" stroke="white" stroke-width="0.1"/>
<rect x="150" y="28" width="2" height="5" fill="#C9C9C9"/>
<rect x="148.05" y="28.05" width="1.9" height="5.9" fill="#C9C9C9" stroke="white" stroke-width="0.1"/>
<rect x="146.05" y="28.05" width="1.9" height="6.9" fill="#C9C9C9" stroke="white" stroke-width="0.1"/>
<rect x="144.05" y="28.05" width="1.9" height="7.9" fill="#C9C9C9" stroke="white" stroke-width="0.1"/>
<rect x="142.05" y="28.05" width="1.9" height="6.9" fill="#C9C9C9" stroke="white" stroke-width="0.1"/>
<rect x="140.05" y="28.05" width="1.9" height="7.9" fill="#C9C9C9" stroke="white" stroke-width="0.1"/>
<rect x="138.05" y="28.05" width="1.9" height="7.9" fill="#C9C9C9" stroke="white" stroke-width="0.1"/>
<rect x="136.05" y="28.05" width="1.9" height="7.9" fill="#C9C9C9" stroke="white" stroke-width="0.1"/>
<rect x="134.05" y="28.05" width="1.9" height="5.9" fill="#C9C9C9" stroke="white" stroke-width="0.1"/>
<rect x="132.05" y="28.05" width="1.9" height="6.9" fill="#C9C9C9" stroke="white" stroke-width="0.1"/>
<rect x="130.05" y="28.05" width="1.9" height="6.9" fill="#C9C9C9" stroke="white" stroke-width="0.1"/>
<rect x="128.05" y="28.05" width="1.9" height="5.9" fill="#C9C9C9" stroke="white" stroke-width="0.1"/>
<rect x="126.05" y="28.05" width="1.9" height="7.9" fill="#C9C9C9" stroke="white" stroke-width="0.1"/>
<rect x="124.05" y="28.05" width="1.9" height="6.9" fill="#C9C9C9" stroke="white" stroke-width="0.1"/>
<rect x="122.05" y="28.05" width="1.9" height="5.9" fill="#C9C9C9" stroke="white" stroke-width="0.1"/>
<rect x="120.05" y="28.05" width="1.9" height="6.9" fill="#C9C9C9" stroke="white" stroke-width="0.1"/>
<rect x="118.05" y="28.05" width="1.9" height="7.9" fill="#C9C9C9" stroke="white" stroke-width="0.1"/>
<rect x="116.05" y="28.05" width="1.9" height="7.9" fill="#C9C9C9" stroke="white" stroke-width="0.1"/>
<rect x="114.05" y="28.05" width="1.9" height="7.9" fill="#C9C9C9" stroke="white" stroke-width="0.1"/>
<rect x="112" y="28" width="2" height="5" fill="#C9C9C9"/>
<rect x="110.05" y="28.05" width="1.9" height="7.9" fill="#C9C9C9" stroke="white" stroke-width="0.1"/>
<rect x="108.05" y="28.05" width="1.9" height="7.9" fill="#C9C9C9" stroke="white" stroke-width="0.1"/>
<rect x="106.05" y="28.05" width="1.9" height="6.9" fill="#C9C9C9" stroke="white" stroke-width="0.1"/>
<rect x="104.05" y="28.05" width="1.9" height="7.9" fill="#C9C9C9" stroke="white" stroke-width="0.1"/>
<rect x="102.05" y="28.05" width="1.9" height="7.9" fill="#C9C9C9" stroke="white" stroke-width="0.1"/>
<rect x="100.05" y="28.05" width="1.9" height="5.9" fill="#C9C9C9" stroke="white" stroke-width="0.1"/>
<rect x="98.05" y="28.05" width="1.9" height="7.9" fill="#C9C9C9" stroke="white" stroke-width="0.1"/>
<rect x="96.05" y="28.05" width="1.9" height="6.9" fill="#C9C9C9" stroke="white" stroke-width="0.1"/>
<rect x="94.05" y="28.05" width="1.9" height="5.9" fill="#C9C9C9" stroke="white" stroke-width="0.1"/>
<rect x="92.05" y="28.05" width="1.9" height="6.9" fill="#C9C9C9" stroke="white" stroke-width="0.1"/>
<rect x="90" y="28" width="2" height="5" fill="#C9C9C9"/>
<rect x="88.05" y="28.05" width="1.9" height="6.9" fill="#C9C9C9" stroke="white" stroke-width="0.1"/>
<rect x="86.05" y="28.05" width="1.9" height="7.9" fill="#C9C9C9" stroke="white" stroke-width="0.1"/>
<rect x="84.05" y="28.05" width="1.9" height="6.9" fill="#C9C9C9" stroke="white" stroke-width="0.1"/>
<rect x="82.05" y="28.05" width="1.9" height="7.9" fill="#C9C9C9" stroke="white" stroke-width="0.1"/>
<rect x="80.05" y="28.05" width="1.9" height="5.9" fill="#C9C9C9" stroke="white" stroke-width="0.1"/>
<rect x="78.05" y="28.05" width="1.9" height="7.9" fill="#C9C9C9" stroke="white" stroke-width="0.1"/>
<rect x="76.05" y="28.05" width="1.9" height="7.9" fill="#C9C9C9" stroke="white" stroke-width="0.1"/>
<rect x="74.05" y="28.05" width="1.9" height="6.9" fill="#C9C9C9" stroke="white" stroke-width="0.1"/>
<rect x="72" y="28" width="2" height="5" fill="#C9C9C9"/>
<rect x="70.05" y="28.05" width="1.9" height="5.9" fill="#C9C9C9" stroke="white" stroke-width="0.1"/>
<rect x="68.05" y="28.05" width="1.9" height="6.9" fill="#C9C9C9" stroke="white" stroke-width="0.1"/>
<rect x="66.05" y="28.05" width="1.9" height="7.9" fill="#C9C9C9" stroke="white" stroke-width="0.1"/>
<rect x="64.05" y="28.05" width="1.9" height="7.9" fill="#C9C9C9" stroke="white" stroke-width="0.1"/>
<rect x="62.05" y="28.05" width="1.9" height="5.9" fill="#C9C9C9" stroke="white" stroke-width="0.1"/>
<rect x="60.05" y="28.05" width="1.9" height="7.9" fill="#C9C9C9" stroke="white" stroke-width="0.1"/>
<rect x="58.05" y="28.05" width="1.9" height="6.9" fill="#C9C9C9" stroke="white" stroke-width="0.1"/>
<rect x="56.05" y="28.05" width="1.9" height="7.9" fill="#C9C9C9" stroke="white" stroke-width="0.1"/>
<rect x="54" y="28" width="2" height="5" fill="#C9C9C9"/>
<rect x="52.05" y="28.05" width="1.9" height="5.9" fill="#C9C9C9" stroke="white" stroke-width="0.1"/>
<rect x="50.05" y="28.05" width="1.9" height="6.9" fill="#C9C9C9" stroke="white" stroke-width="0.1"/>
<rect x="48.05" y="28.05" width="1.9" height="7.9" fill="#C9C9C9" stroke="white" stroke-width="0.1"/>
<rect x="46" y="28" width="2" height="5" fill="#C9C9C9"/>
<rect x="44.05" y="28.05" width="1.9" height="6.9" fill="#C9C9C9" stroke="white" stroke-width="0.1"/>
<rect x="42.05" y="28.05" width="1.9" height="7.9" fill="#C9C9C9" stroke="white" stroke-width="0.1"/>
<rect x="40.05" y="28.05" width="1.9" height="6.9" fill="#C9C9C9" stroke="white" stroke-width="0.1"/>
<rect x="38.05" y="28.05" width="1.9" height="5.9" fill="#C9C9C9" stroke="white" stroke-width="0.1"/>
<rect x="36.05" y="28.05" width="1.9" height="4.9" fill="#C9C9C9" stroke="white" stroke-width="0.1"/>
<rect x="34.05" y="28.05" width="1.9" height="5.9" fill="#C9C9C9" stroke="white" stroke-width="0.1"/>
<rect x="32.05" y="28.05" width="1.9" height="5.9" fill="#C9C9C9" stroke="white" stroke-width="0.1"/>
<rect x="30.05" y="28.05" width="1.9" height="6.9" fill="#C9C9C9" stroke="white" stroke-width="0.1"/>
<rect x="28.05" y="28.05" width="1.9" height="7.9" fill="#C9C9C9" stroke="white" stroke-width="0.1"/>
<rect x="26.05" y="28.05" width="1.9" height="6.9" fill="#C9C9C9" stroke="white" stroke-width="0.1"/>
<rect x="24.05" y="28.05" width="1.9" height="7.9" fill="#C9C9C9" stroke="white" stroke-width="0.1"/>
<rect x="22.05" y="28.05" width="1.9" height="7.9" fill="#C9C9C9" stroke="white" stroke-width="0.1"/>
<rect x="20.05" y="28.05" width="1.9" height="7.9" fill="#C9C9C9" stroke="white" stroke-width="0.1"/>
<rect x="18.05" y="28.05" width="1.9" height="5.9" fill="#C9C9C9" stroke="white" stroke-width="0.1"/>
<rect x="16.05" y="28.05" width="1.9" height="6.9" fill="#C9C9C9" stroke="white" stroke-width="0.1"/>
<rect x="14.05" y="28.05" width="1.9" height="7.9" fill="#C9C9C9" stroke="white" stroke-width="0.1"/>
<rect x="12.05" y="28.05" width="1.9" height="6.9" fill="#C9C9C9" stroke="white" stroke-width="0.1"/>
<rect x="10.05" y="28.05" width="1.9" height="6.9" fill="#C9C9C9" stroke="white" stroke-width="0.1"/>
<rect x="8.05" y="28.05" width="1.9" height="6.9" fill="#C9C9C9" stroke="white" stroke-width="0.1"/>
<rect x="6.05" y="28.05" width="1.9" height="5.9" fill="#C9C9C9" stroke="white" stroke-width="0.1"/>
<rect x="4.05" y="28.05" width="1.9" height="7.9" fill="#C9C9C9" stroke="white" stroke-width="0.1"/>
<rect x="2.05" y="28.05" width="1.9" height="6.9" fill="#C9C9C9" stroke="white" stroke-width="0.1"/>
<rect x="0.05" y="28.05" width="1.9" height="5.9" fill="#C9C9C9" stroke="white" stroke-width="0.1"/>
</svg>
