<svg width="375" height="248" viewBox="0 0 375 248" fill="none" xmlns="http://www.w3.org/2000/svg">
<path d="M325.503 39.2039C351.679 5.05597 388.305 0.872886 388.305 0.872886C388.305 0.872886 389.876 242.531 387.833 219.512C385.791 196.493 360.169 191.749 360.169 191.749C360.169 191.749 356.509 190.889 347.617 190.87L309.431 190.787L227.306 190.611C100.716 191.19 133.672 190.409 82.9326 190.299C61.2508 190.253 49.3326 190.214 41.6083 190.21C29.5772 190.185 25.3925 190.176 20.1579 191.869C1.31467 197.369 -3.42161 210.571 -4.27294 218.241C-5.12426 225.91 -4.19438 181.813 -4.19438 181.813C-4.19438 181.813 60.1188 143.537 101.819 134.694C142.707 126.023 176.69 140.38 211.023 123.963C238.445 110.851 234.97 96.5944 258.405 80.7183C283.606 63.6455 299.327 73.3518 325.503 39.2039Z" fill="#9E4ACE"/>
<path d="M318.731 82.4115C344.403 57.6454 381.259 55.4774 381.259 55.4774C381.259 55.4774 382.386 249.081 380.898 222.87C379.41 196.659 352.839 193.13 352.839 193.13C352.839 193.13 349.246 192.504 340.519 192.485L303.041 192.404L222.437 192.231C98.1939 192.582 130.539 192.033 80.74 191.925C59.4601 191.88 47.7628 191.845 40.1817 191.838C28.3736 191.813 24.2664 191.804 19.1298 193.03C-3.62826 200.483 -4.39069 217.741 -5.22201 223.306C-6.05333 228.871 -5.42976 185.646 -5.42976 185.646C-5.42976 185.646 58.3233 157.978 99.2454 151.584C139.371 145.314 172.732 155.751 206.42 143.857C233.327 134.356 229.908 124.009 252.9 112.501C277.625 100.125 293.059 107.178 318.731 82.4115Z" fill="#EF96C3"/>
<path d="M317.267 120.468C342.972 103.061 380.583 101.561 380.583 101.561C380.583 101.561 381.149 237.763 379.641 219.322C378.134 200.881 351.51 198.382 351.51 198.382C351.51 198.382 347.911 197.939 339.167 197.92L301.618 197.839L220.863 197.665C96.3859 197.832 128.792 197.467 78.8987 197.359C57.5787 197.313 45.8594 197.281 38.264 197.272C26.4336 197.246 22.3187 197.237 17.1732 198.097C-5.62282 203.326 -6.37559 215.466 -7.2049 219.381C-8.0342 223.296 -28.6593 202.663 -7.15046 194.176C-2.93011 192.51 6.28496 188.751 12.7423 186.964C40.1677 178.062 76.5601 173.771 97.4131 168.99C133.283 160.768 171.041 171.969 204.784 163.623C231.735 156.957 228.304 149.675 251.332 141.594C276.095 132.903 291.562 137.875 317.267 120.468Z" fill="#EFB33E"/>
<path d="M318.29 143.463C343.806 130.014 381.153 128.872 381.153 128.872C381.153 128.872 382.695 251.905 380.255 228.8C377.816 205.695 352.33 203.733 352.33 203.733C352.33 203.733 348.756 203.389 340.073 203.37L302.788 203.29L222.599 203.117C98.9942 203.188 131.173 202.92 81.6293 202.814C60.4588 202.768 48.8216 202.738 41.2794 202.727C29.532 202.701 25.5906 203.058 20.9798 203.922C-10.7837 209.88 -0.626098 249.071 -4.20534 246.552C-7.78459 244.033 -4.12402 238.652 -4.66882 223.954C-5.00103 214.991 -22.8597 202.199 -4.61391 198.475C47.3049 187.877 72.7411 186.131 85.5485 183.975C96.7265 182.094 114.736 178.514 122.944 178.532C169.876 178.633 184.526 184.572 205.173 180.457C233.835 174.745 229.964 166.008 252.827 159.77C277.412 153.061 292.774 156.912 318.29 143.463Z" fill="#0F24B2"/>
</svg>
