<svg width="11" height="15" viewBox="0 0 11 15" fill="none" xmlns="http://www.w3.org/2000/svg">
<path d="M0.694658 12.8146H10.0324C10.2118 12.8147 10.3843 12.8841 10.5137 13.0083C10.6431 13.1326 10.7195 13.302 10.7269 13.4813C10.7343 13.6606 10.6721 13.8357 10.5533 13.9702C10.4346 14.1047 10.2684 14.1881 10.0896 14.2029L10.0324 14.2053H0.694658C0.515281 14.2051 0.342914 14.1356 0.213572 14.0113C0.0842288 13.8871 0.00791746 13.7176 0.000582199 13.5384C-0.00675306 13.3591 0.0554552 13.184 0.174209 13.0496C0.292963 12.9151 0.459075 12.8318 0.637837 12.817L0.694658 12.8146H10.0324H0.694658ZM5.20737 0.00238412L5.26419 0C5.43871 6.51838e-06 5.60684 0.0656309 5.73521 0.183846C5.86358 0.302062 5.94281 0.464225 5.95717 0.638146L5.95956 0.695364V9.17205L7.86406 7.26795C7.99447 7.13753 8.17135 7.06427 8.35578 7.06427C8.54021 7.06427 8.71709 7.13753 8.84751 7.26795C8.97792 7.39836 9.05118 7.57524 9.05118 7.75967C9.05118 7.9441 8.97792 8.12098 8.84751 8.25139L5.75691 11.342C5.69234 11.4066 5.61568 11.4578 5.53131 11.4927C5.44694 11.5277 5.35651 11.5457 5.26519 11.5457C5.17386 11.5457 5.08344 11.5277 4.99907 11.4927C4.9147 11.4578 4.83804 11.4066 4.77347 11.342L1.68287 8.25139C1.55246 8.12098 1.47919 7.9441 1.47919 7.75967C1.47919 7.57524 1.55246 7.39836 1.68287 7.26795C1.81328 7.13753 1.99016 7.06427 2.17459 7.06427C2.35902 7.06427 2.5359 7.13753 2.66631 7.26795L4.56883 9.17046V0.695364C4.56884 0.520789 4.63452 0.352605 4.75282 0.224222C4.87112 0.0958388 5.03338 0.0166495 5.20737 0.00238412L5.26419 0L5.20737 0.00238412Z" fill="black"/>
</svg>
