<svg width="16" height="14" viewBox="0 0 16 14" fill="none" xmlns="http://www.w3.org/2000/svg">
<path d="M15.7658 6.4501L9.3657 0.227729C9.25382 0.118985 9.11128 0.0449341 8.95612 0.0149364C8.80096 -0.0150613 8.64013 0.000341414 8.49397 0.0591973C8.34781 0.118053 8.22287 0.21772 8.13496 0.345597C8.04706 0.473474 8.00012 0.623821 8.00009 0.777631V3.53492C5.81469 3.73154 3.78342 4.71395 2.30378 6.28989C0.824132 7.86584 0.00261741 9.92189 0 12.0557V13.2224C0.000126286 13.3838 0.0519283 13.5412 0.148221 13.6728C0.244513 13.8043 0.380524 13.9035 0.537386 13.9565C0.694249 14.0095 0.864189 14.0137 1.02363 13.9686C1.18308 13.9234 1.32413 13.8312 1.42722 13.7046C2.21098 12.7984 3.17264 12.0532 4.256 11.5125C5.33936 10.9718 6.5227 10.6464 7.73688 10.5553C7.77688 10.5506 7.87688 10.5429 8.00009 10.5351V13.2224C8.00012 13.3762 8.04706 13.5265 8.13496 13.6544C8.22287 13.7823 8.34781 13.8819 8.49397 13.9408C8.64013 13.9997 8.80096 14.0151 8.95612 13.9851C9.11128 13.9551 9.25382 13.881 9.3657 13.7723L15.7658 7.5499C15.9157 7.40404 16 7.20624 16 7C16 6.79376 15.9157 6.59596 15.7658 6.4501ZM9.6001 11.3448V9.72229C9.6001 9.516 9.51582 9.31817 9.36579 9.1723C9.21575 9.02644 9.01227 8.94449 8.80009 8.94449C8.59609 8.94449 7.76328 8.98338 7.55048 9.0106C5.39435 9.20375 3.34197 10.0002 1.64162 11.3035C1.83461 9.58807 2.67166 8.00207 3.99249 6.84923C5.31331 5.69639 7.0251 5.05772 8.80009 5.05551C9.01227 5.05551 9.21575 4.97356 9.36579 4.8277C9.51582 4.68183 9.6001 4.484 9.6001 4.27771V2.65523L14.069 7L9.6001 11.3448Z" fill="black"/>
</svg>
