<svg width="50" height="50" viewBox="0 0 50 50" fill="none" xmlns="http://www.w3.org/2000/svg">
<path d="M34.2813 15.531C34.7215 15.1119 35.3073 14.8802 35.9151 14.8848C36.5229 14.8894 37.1051 15.13 37.539 15.5557C37.9728 15.9814 38.2243 16.559 38.2403 17.1666C38.2564 17.7742 38.0358 18.3642 37.6251 18.8123L25.1563 34.406C24.9419 34.637 24.6831 34.8223 24.3955 34.9509C24.1078 35.0796 23.7972 35.1489 23.4821 35.1547C23.167 35.1605 22.854 35.1028 22.5618 34.9849C22.2696 34.867 22.0041 34.6914 21.7813 34.4685L13.5126 26.1998C13.2823 25.9852 13.0976 25.7265 12.9695 25.439C12.8414 25.1515 12.7725 24.8411 12.767 24.5264C12.7614 24.2117 12.8193 23.8991 12.9372 23.6073C13.0551 23.3154 13.2305 23.0503 13.4531 22.8278C13.6756 22.6052 13.9407 22.4298 14.2326 22.3119C14.5244 22.194 14.837 22.1361 15.1517 22.1417C15.4664 22.1472 15.7767 22.2161 16.0642 22.3442C16.3517 22.4723 16.6105 22.657 16.8251 22.8873L23.3688 29.4279L34.2219 15.5998C34.2415 15.5757 34.2623 15.5528 34.2844 15.531H34.2813Z" fill="#2BDE1C"/>
</svg>
