<svg width="375" height="451" viewBox="0 0 375 451" fill="none" xmlns="http://www.w3.org/2000/svg">
<path d="M-128.757 71.1916C-169.939 9.00699 -227.539 1.3716 -227.539 1.3716C-227.539 1.3716 -229.881 441.339 -226.681 399.431C-223.48 357.523 -183.191 348.901 -183.191 348.901C-183.191 348.901 -177.436 347.337 -163.452 347.306L-103.402 347.177L25.7471 346.899C224.821 348.022 172.993 346.582 252.786 346.41C286.882 346.336 305.625 346.272 317.772 346.27C336.692 346.229 343.272 346.215 351.505 349.301C381.141 359.324 388.596 383.363 389.939 397.327C391.282 411.291 389.796 331.006 389.796 331.006C389.796 331.006 288.637 261.285 223.056 245.163C158.752 229.354 105.318 255.475 51.3174 225.567C8.1867 201.68 13.6437 175.727 -23.218 146.81C-62.8583 115.713 -87.5742 133.376 -128.757 71.1916Z" fill="#9E4ACE"/>
<path d="M-118.085 149.859C-158.47 104.756 -216.43 100.789 -216.43 100.789C-216.43 100.789 -218.099 453.268 -215.773 405.548C-213.447 357.828 -171.664 351.418 -171.664 351.418C-171.664 351.418 -166.015 350.28 -152.29 350.25L-93.3525 350.123L33.4028 349.85C228.786 350.555 177.92 349.539 256.234 349.37C289.698 349.298 308.093 349.241 320.015 349.233C338.584 349.193 345.043 349.179 353.122 351.414C388.914 364.996 390.123 396.416 391.433 406.549C392.743 416.681 391.739 337.984 391.739 337.984C391.739 337.984 291.468 287.577 227.111 275.913C164.007 264.477 111.549 283.462 58.566 261.788C16.2479 244.477 21.6181 225.64 -14.5445 204.676C-53.4329 182.131 -77.7004 194.963 -118.085 149.859Z" fill="#EF96C3"/>
<path d="M-115.763 219.146C-156.195 187.441 -215.343 184.69 -215.343 184.69C-215.343 184.69 -216.16 432.663 -213.799 399.089C-211.438 365.516 -169.572 360.98 -169.572 360.98C-169.572 360.98 -163.912 360.176 -150.161 360.146L-91.1127 360.019L35.8812 359.745C231.632 360.116 180.671 359.433 259.132 359.264C292.659 359.192 311.089 359.14 323.033 359.126C341.637 359.086 348.108 359.072 356.201 360.64C392.052 370.172 393.242 392.275 394.549 399.403C395.855 406.531 428.279 368.978 394.45 353.514C387.812 350.479 373.318 343.63 363.163 340.374C320.029 324.152 262.797 316.319 230.001 307.605C173.589 292.616 114.217 312.99 61.1483 297.776C18.7617 285.625 24.1541 272.369 -12.063 257.644C-51.0101 241.808 -75.3314 250.851 -115.763 219.146Z" fill="#EFB33E"/>
<path d="M-117.36 261.014C-157.494 236.514 -216.225 234.415 -216.225 234.415C-216.225 234.415 -218.584 458.411 -214.76 416.347C-210.936 374.283 -170.859 370.725 -170.859 370.725C-170.859 370.725 -165.238 370.1 -151.584 370.071L-92.9494 369.944L33.1545 369.673C227.533 369.867 176.929 369.363 254.84 369.195C288.133 369.123 306.433 369.074 318.294 369.058C336.768 369.019 342.966 369.669 350.217 371.246C400.171 382.109 384.219 453.455 389.846 448.872C395.473 444.289 389.714 434.489 390.563 407.729C391.08 391.411 419.158 368.132 390.463 361.342C308.81 342.02 268.809 338.826 248.667 334.895C231.088 331.463 202.764 324.937 189.857 324.965C116.052 325.124 93.0164 335.928 60.5462 328.426C15.4697 318.011 21.5514 302.107 -14.4049 290.736C-53.0715 278.509 -77.227 285.513 -117.36 261.014Z" fill="#0F24B2"/>
</svg>
