<svg width="375" height="443" viewBox="0 0 375 443" fill="none" xmlns="http://www.w3.org/2000/svg">
<path opacity="0.1" d="M-78.7549 69.9211C-119.937 8.84613 -177.537 1.34698 -177.537 1.34698C-177.537 1.34698 -179.879 433.464 -176.679 392.304C-173.479 351.144 -133.189 342.675 -133.189 342.675C-133.189 342.675 -127.435 341.139 -113.45 341.109L-53.4001 340.982L75.7489 340.709C274.823 341.812 222.995 340.397 302.788 340.229C336.884 340.156 355.626 340.093 367.773 340.091L367.774 340.091C386.693 340.051 393.274 340.037 401.507 343.068C431.142 352.913 438.598 376.522 439.94 390.237C441.283 403.952 439.797 325.099 439.797 325.099C439.797 325.099 338.639 256.623 273.058 240.788C208.754 225.262 155.32 250.916 101.319 221.542C58.1884 198.081 63.6455 172.591 26.7838 144.19C-12.8565 113.648 -37.5724 130.996 -78.7549 69.9211Z" fill="#595959"/>
<path opacity="0.1" d="M-68.0834 147.184C-108.468 102.886 -166.428 98.9894 -166.428 98.9894C-166.428 98.9894 -168.097 445.179 -165.771 398.311C-163.445 351.442 -121.662 345.147 -121.662 345.147C-121.662 345.147 -116.013 344.029 -102.288 344L-43.3506 343.875L83.4048 343.607C278.788 344.3 227.922 343.301 306.236 343.135C339.7 343.065 358.095 343.009 370.017 343.001C388.586 342.961 395.045 342.948 403.123 345.143C438.916 358.482 440.125 389.342 441.435 399.294C442.745 409.246 441.741 331.952 441.741 331.952C441.741 331.952 341.47 282.445 277.113 270.989C214.009 259.757 161.551 278.403 108.568 257.116C66.2499 240.114 71.62 221.613 35.4575 201.023C-3.43093 178.881 -27.6985 191.483 -68.0834 147.184Z" fill="#595959"/>
<path opacity="0.1" d="M-65.7611 215.236C-106.193 184.096 -165.341 181.394 -165.341 181.394C-165.341 181.394 -166.158 424.942 -163.797 391.968C-161.436 358.994 -119.57 354.539 -119.57 354.539C-119.57 354.539 -113.91 353.749 -100.159 353.719L-41.1105 353.595L85.8834 353.326C281.634 353.69 230.673 353.019 309.134 352.853C342.661 352.782 361.091 352.732 373.035 352.718C391.64 352.679 398.111 352.665 406.203 354.204C442.054 363.566 443.245 385.276 444.551 392.276C445.857 399.277 478.281 362.394 444.452 347.206C437.814 344.225 423.32 337.498 413.165 334.3C370.031 318.368 312.799 310.675 280.003 302.116C223.591 287.394 164.22 307.405 111.15 292.462C68.7639 280.528 74.1563 267.509 37.9392 253.046C-1.00789 237.494 -25.3292 246.375 -65.7611 215.236Z" fill="#595959"/>
<path d="M-67.3588 256.355C-107.492 232.292 -166.223 230.23 -166.223 230.23C-166.223 230.23 -168.582 450.23 -164.758 408.917C-160.934 367.604 -120.858 364.108 -120.858 364.108C-120.858 364.108 -115.237 363.495 -101.582 363.466L-42.9477 363.342L83.1562 363.075C277.535 363.265 226.931 362.771 304.842 362.606C338.134 362.535 356.435 362.487 368.296 362.472C386.769 362.433 392.968 363.072 400.219 364.62C450.173 375.29 434.22 445.363 439.848 440.861C445.475 436.36 439.715 426.735 440.564 400.452C441.082 384.426 469.159 361.562 440.464 354.893C358.812 335.916 318.811 332.779 298.669 328.918C281.089 325.547 252.765 319.138 239.858 319.165C166.054 319.321 143.018 329.933 110.548 322.564C65.4715 312.335 71.5531 296.715 35.5969 285.547C-3.06968 273.538 -27.2253 280.417 -67.3588 256.355Z" fill="#0F24B2"/>
</svg>
