<svg width="22" height="21" viewBox="0 0 22 21" fill="none" xmlns="http://www.w3.org/2000/svg">
<path d="M3.78076 20.0767L3.7807 20.0767C3.48177 20.1371 3.18185 20.1923 2.8811 20.2424L2.88019 20.2426C2.41223 20.3188 2.10345 19.8334 2.26803 19.4389C2.37615 19.1793 2.47531 18.916 2.56531 18.6493L2.5677 18.6412L2.5705 18.6317L2.57069 18.6317C2.86385 17.7653 3.10365 16.7769 3.20216 15.8514C1.67584 14.2551 0.75 12.1785 0.75 9.90747C0.75 4.82352 5.36741 0.75 11 0.75C16.6326 0.75 21.25 4.82352 21.25 9.90747C21.25 14.9913 16.6328 19.0648 11.0003 19.0649C11.0002 19.0649 11.0001 19.0649 11 19.0649V18.8149C10.0096 18.8163 9.02323 18.6854 8.06625 18.4256L3.78076 20.0767ZM3.78076 20.0767C5.99484 19.6294 7.39203 19.0435 8.09416 18.6918L3.78076 20.0767ZM4.52618 14.6877L4.52609 14.6876C3.24107 13.3758 2.5 11.7039 2.5 9.90747C2.5 6.00878 6.11663 2.5225 11 2.5225C15.8834 2.5225 19.5 6.00878 19.5 9.90747C19.5 13.8074 15.8834 17.2924 11 17.2924H10.9996C10.1404 17.2938 9.28467 17.1804 8.45437 16.9551C8.09674 16.8578 7.71648 16.8982 7.38669 17.0683C6.95924 17.2887 6.04336 17.7016 4.56342 18.082C4.74919 17.3687 4.88013 16.6416 4.95496 15.9072L4.95497 15.9072L4.95515 15.9052C4.97604 15.683 4.94853 15.4588 4.8745 15.2484C4.80046 15.0381 4.68163 14.8466 4.52618 14.6877Z" fill="white" stroke="white" stroke-width="0.5"/>
</svg>
