<svg width="192" height="72" viewBox="0 0 192 72" fill="none" xmlns="http://www.w3.org/2000/svg">
<rect x="0.20166" width="191.368" height="72" rx="20" fill="#0F24B2"/>
<path d="M46.4426 41L46.5207 36.7617H45.9543L45.3879 38.5977C45.1144 39.4701 44.7238 40.0299 44.216 40.2773C43.9165 40.4076 43.5715 40.4727 43.1808 40.4727H41.1691V29.8086H42.8293V29.2812H36.8722V29.8086H38.4347V40.4727H36.8722V41H46.4426ZM54.0988 41.1953C55.0493 41.1953 55.6418 40.8503 55.8761 40.1602C55.9543 39.8997 56.0129 39.5677 56.0519 39.1641L55.5441 39.1445C55.466 40.043 55.2381 40.4987 54.8605 40.5117C54.5741 40.4857 54.4308 40.1602 54.4308 39.5352V35.4531C54.4308 33.8255 53.6756 32.8229 52.1652 32.4453C51.7746 32.3542 51.3514 32.3086 50.8957 32.3086C49.1248 32.3086 48.0116 32.6927 47.5558 33.4609C47.4386 33.6562 47.3801 33.8646 47.3801 34.0859C47.3801 34.5938 47.6209 34.9128 48.1027 35.043C48.2199 35.082 48.3436 35.1016 48.4738 35.1016C49.0337 35.1016 49.4113 34.8281 49.6066 34.2812C49.6327 34.2031 49.6717 34.0729 49.7238 33.8906C49.867 33.3698 50.0493 33.0443 50.2707 32.9141C50.4139 32.849 50.5767 32.8164 50.759 32.8164C51.3709 32.8164 51.742 33.1875 51.8722 33.9297C51.9243 34.2031 51.9504 34.5286 51.9504 34.9062V36.1758C48.604 36.2409 46.9243 37.1263 46.9113 38.832C46.9113 39.9909 47.4191 40.7331 48.4347 41.0586C48.7342 41.1497 49.0662 41.1953 49.4308 41.1953C50.5376 41.1953 51.3514 40.7786 51.8722 39.9453C51.9764 39.776 52.061 39.6003 52.1261 39.418C52.3996 40.5378 53.0571 41.1302 54.0988 41.1953ZM50.4465 40.3555C49.7954 40.3294 49.4634 39.75 49.4504 38.6172C49.4504 37.7578 49.8019 37.1979 50.5051 36.9375C50.8827 36.8203 51.3644 36.7487 51.9504 36.7227V38.6172C51.703 39.5286 51.3058 40.0885 50.759 40.2969C50.6418 40.3359 50.5376 40.3555 50.4465 40.3555ZM60.6418 40.4922H60.1535L60.173 35.4922C60.2642 34.4635 60.6418 33.7865 61.3058 33.4609C61.4881 33.3698 61.6769 33.3242 61.8722 33.3242C62.6144 33.3242 63.0506 33.7604 63.1808 34.6328C63.2069 34.8021 63.2199 34.9779 63.2199 35.1602V39.4766C63.2199 40.0234 63.0767 40.3424 62.7902 40.4336C62.66 40.4727 62.5037 40.4922 62.3215 40.4922V41H66.8332C66.8332 40.7005 66.7485 40.5378 66.5793 40.5117C66.5011 40.4987 66.423 40.4922 66.3449 40.4922H65.7004V35.4922C65.7004 33.8776 65.1274 32.8685 63.9816 32.4648C63.6691 32.3607 63.3436 32.3086 63.0051 32.3086C62.0545 32.3086 61.2472 32.6862 60.5832 33.4414C60.3879 33.6628 60.2316 33.8906 60.1144 34.125L60.0168 32.6016H56.5402V33.1094H57.673V39.4766C57.673 40.0755 57.3931 40.4076 56.8332 40.4727C56.742 40.4857 56.6444 40.4922 56.5402 40.4922V41H61.1105C61.1105 40.7005 61.0259 40.5378 60.8566 40.5117C60.7915 40.4987 60.7199 40.4922 60.6418 40.4922ZM67.7121 36.7812C67.7121 38.6823 68.4347 39.9909 69.8801 40.707C70.5571 41.0326 71.3319 41.1953 72.2043 41.1953C73.5584 41.1953 74.6001 40.7852 75.3293 39.9648C75.5767 39.6784 75.7655 39.3659 75.8957 39.0273L75.3879 38.8906C75.0233 39.6719 74.4048 40.1992 73.5324 40.4727C73.1939 40.5768 72.8553 40.6289 72.5168 40.6289C71.6183 40.6289 71.0194 40.2253 70.7199 39.418C70.4985 38.819 70.3879 37.9727 70.3879 36.8789C70.3879 34.6914 70.7329 33.3893 71.423 32.9727C71.6314 32.8555 71.8787 32.7969 72.1652 32.7969C72.7381 32.7969 73.0897 33.0638 73.2199 33.5977C73.2459 33.7018 73.2785 33.8776 73.3176 34.125C73.3957 34.724 73.5519 35.1081 73.7863 35.2773C73.9686 35.4076 74.216 35.4727 74.5285 35.4727C75.1926 35.4727 75.6027 35.2253 75.759 34.7305C75.785 34.6263 75.798 34.5221 75.798 34.418C75.798 33.8451 75.453 33.3438 74.7629 32.9141C74.0858 32.5104 73.2394 32.3086 72.2238 32.3086C70.8436 32.3086 69.7238 32.7578 68.8644 33.6562C68.0962 34.4635 67.7121 35.5052 67.7121 36.7812ZM80.9543 32.8164C81.7876 32.8424 82.2108 33.5521 82.2238 34.9453C82.2238 35.5573 82.0415 35.9349 81.6769 36.0781C81.4165 36.1693 81.0259 36.2018 80.5051 36.1758L79.2551 36.1172C79.3462 33.9557 79.9126 32.8555 80.9543 32.8164ZM84.6066 38.9883L84.1379 38.832C83.7733 39.6263 83.2004 40.1667 82.4191 40.4531C82.1066 40.5703 81.7876 40.6289 81.4621 40.6289C80.4204 40.6289 79.7498 39.9648 79.4504 38.6367C79.3332 38.0898 79.2681 37.4388 79.2551 36.6836L81.0519 36.7422C83.1483 36.8073 84.3657 36.4753 84.7043 35.7461C84.7824 35.5638 84.8215 35.362 84.8215 35.1406C84.8215 34.0339 84.2551 33.2266 83.1222 32.7188C82.4842 32.4453 81.7616 32.3086 80.9543 32.3086C79.4829 32.3086 78.3371 32.8099 77.5168 33.8125C76.8918 34.5938 76.5793 35.5638 76.5793 36.7227C76.5793 38.6107 77.2889 39.9258 78.7082 40.668C79.3853 41.0195 80.1535 41.1953 81.0129 41.1953C82.5363 41.1953 83.6301 40.6615 84.2941 39.5938C84.4243 39.3984 84.5285 39.1966 84.6066 38.9883ZM90.7394 40.4922H89.2941V36.2734C89.3853 34.9062 89.7173 34.0729 90.2902 33.7734C90.3814 33.7344 90.466 33.7148 90.5441 33.7148C90.6873 33.7148 90.8436 33.8646 91.0129 34.1641C91.2472 34.5807 91.5011 34.8411 91.7746 34.9453C91.9048 34.9844 92.048 35.0039 92.2043 35.0039C92.7251 35.0039 93.0962 34.7565 93.3176 34.2617C93.3957 34.0924 93.4347 33.9167 93.4347 33.7344C93.4347 33.0833 93.1157 32.6732 92.4777 32.5039C92.3215 32.4648 92.1587 32.4453 91.9894 32.4453C91.1821 32.4453 90.4725 32.7643 89.8605 33.4023C89.5871 33.7148 89.3787 34.0534 89.2355 34.418L89.0988 32.6016H85.6808V33.1094H86.8136V39.4766C86.8136 40.0495 86.5858 40.375 86.1301 40.4531C85.9998 40.4792 85.8501 40.4922 85.6808 40.4922V41H91.2082C91.2082 40.7005 91.1235 40.5378 90.9543 40.5117C90.8892 40.4987 90.8176 40.4922 90.7394 40.4922ZM107.458 40.4922H106.794V32.6016H103.357V33.1094H104.314L104.294 38.0312C104.203 39.0469 103.832 39.7174 103.181 40.043C102.986 40.1341 102.79 40.1797 102.595 40.1797C101.853 40.1797 101.417 39.7435 101.286 38.8711C101.26 38.7018 101.247 38.526 101.247 38.3438V32.6016H97.634V33.1094H98.7668V38.0117C98.7928 40.1211 99.7238 41.1823 101.56 41.1953C102.732 41.1953 103.624 40.6745 104.236 39.6328C104.275 39.5547 104.314 39.4766 104.353 39.3984L104.45 41H107.927C107.927 40.7135 107.849 40.5508 107.693 40.5117C107.627 40.4987 107.549 40.4922 107.458 40.4922ZM112.81 40.4922H112.321L112.341 35.4922C112.432 34.4635 112.81 33.7865 113.474 33.4609C113.656 33.3698 113.845 33.3242 114.04 33.3242C114.782 33.3242 115.219 33.7604 115.349 34.6328C115.375 34.8021 115.388 34.9779 115.388 35.1602V39.4766C115.388 40.0234 115.245 40.3424 114.958 40.4336C114.828 40.4727 114.672 40.4922 114.489 40.4922V41H119.001C119.001 40.7005 118.917 40.5378 118.747 40.5117C118.669 40.4987 118.591 40.4922 118.513 40.4922H117.868V35.4922C117.868 33.8776 117.295 32.8685 116.15 32.4648C115.837 32.3607 115.512 32.3086 115.173 32.3086C114.222 32.3086 113.415 32.6862 112.751 33.4414C112.556 33.6628 112.4 33.8906 112.282 34.125L112.185 32.6016H108.708V33.1094H109.841V39.4766C109.841 40.0755 109.561 40.4076 109.001 40.4727C108.91 40.4857 108.812 40.4922 108.708 40.4922V41H113.278C113.278 40.7005 113.194 40.5378 113.025 40.5117C112.959 40.4987 112.888 40.4922 112.81 40.4922ZM130.466 41H133.962C133.962 40.7005 133.884 40.5312 133.728 40.4922C133.663 40.4792 133.584 40.4727 133.493 40.4727H132.595V28.3047H128.337V28.8125H130.114V33.1484C129.45 32.5755 128.656 32.2891 127.732 32.2891C126.495 32.2891 125.486 32.7643 124.704 33.7148C124.027 34.5742 123.689 35.6549 123.689 36.957C123.689 38.5716 124.216 39.763 125.271 40.5312C125.87 40.974 126.534 41.1953 127.263 41.1953C128.474 41.1953 129.372 40.681 129.958 39.6523C130.049 39.4961 130.127 39.3333 130.193 39.1641L130.466 41ZM126.364 36.7227C126.364 34.8216 126.775 33.6237 127.595 33.1289C127.829 32.9987 128.077 32.9336 128.337 32.9336C129.275 32.9336 129.854 33.6562 130.075 35.1016C130.127 35.4922 130.153 35.9089 130.153 36.3516C130.153 38.3047 129.743 39.5482 128.923 40.082C128.689 40.2253 128.435 40.2969 128.161 40.2969C127.25 40.2969 126.683 39.5547 126.462 38.0703C126.397 37.6667 126.364 37.2174 126.364 36.7227ZM139.216 32.8164C140.049 32.8424 140.472 33.5521 140.486 34.9453C140.486 35.5573 140.303 35.9349 139.939 36.0781C139.678 36.1693 139.288 36.2018 138.767 36.1758L137.517 36.1172C137.608 33.9557 138.174 32.8555 139.216 32.8164ZM142.868 38.9883L142.4 38.832C142.035 39.6263 141.462 40.1667 140.681 40.4531C140.368 40.5703 140.049 40.6289 139.724 40.6289C138.682 40.6289 138.012 39.9648 137.712 38.6367C137.595 38.0898 137.53 37.4388 137.517 36.6836L139.314 36.7422C141.41 36.8073 142.627 36.4753 142.966 35.7461C143.044 35.5638 143.083 35.362 143.083 35.1406C143.083 34.0339 142.517 33.2266 141.384 32.7188C140.746 32.4453 140.023 32.3086 139.216 32.3086C137.745 32.3086 136.599 32.8099 135.778 33.8125C135.153 34.5938 134.841 35.5638 134.841 36.7227C134.841 38.6107 135.551 39.9258 136.97 40.668C137.647 41.0195 138.415 41.1953 139.275 41.1953C140.798 41.1953 141.892 40.6615 142.556 39.5938C142.686 39.3984 142.79 39.1966 142.868 38.9883ZM140.915 30.2188C141.189 30.0104 141.332 29.737 141.345 29.3984C141.345 28.9557 141.156 28.6172 140.778 28.3828C140.609 28.2786 140.433 28.2266 140.251 28.2266C140.043 28.2396 139.841 28.3112 139.646 28.4414C139.476 28.5716 139.125 28.9492 138.591 29.5742C138.083 30.1602 137.556 30.694 137.009 31.1758L137.302 31.6055C137.68 31.4232 138.532 31.1172 139.861 30.6875C140.368 30.5052 140.72 30.349 140.915 30.2188ZM148.806 40.4922H148.005V33.1094H151.325V39.4766C151.325 40.0234 151.156 40.3424 150.818 40.4336C150.674 40.4727 150.505 40.4922 150.31 40.4922V41H154.997C154.997 40.7005 154.913 40.5378 154.743 40.5117C154.678 40.4987 154.607 40.4922 154.528 40.4922H153.806V32.6016H148.005V32.5039C148.005 30.7201 148.194 29.5938 148.571 29.125C148.845 28.8125 149.255 28.6562 149.802 28.6562C150.271 28.6562 150.622 28.9232 150.857 29.457C150.896 29.5352 150.954 29.6654 151.032 29.8477C151.267 30.4727 151.521 30.8763 151.794 31.0586C152.042 31.2018 152.328 31.2734 152.653 31.2734C153.213 31.2734 153.591 31.0456 153.786 30.5898C153.851 30.4596 153.884 30.3164 153.884 30.1602C153.884 29.5612 153.467 29.0664 152.634 28.6758C151.931 28.3633 151.091 28.207 150.114 28.207C147.992 28.207 146.599 28.9167 145.935 30.3359C145.661 30.9089 145.525 31.5794 145.525 32.3477V32.6016H143.943V33.1094H145.525V39.4766C145.499 40.1536 145.004 40.4922 144.04 40.4922V41H149.275C149.275 40.7005 149.19 40.5378 149.021 40.5117C148.956 40.4987 148.884 40.4922 148.806 40.4922Z" fill="white"/>
</svg>
