<svg width="10" height="10" viewBox="0 0 10 10" fill="none" xmlns="http://www.w3.org/2000/svg">
<path d="M7.60417 8.5417C7.68705 8.5417 7.76653 8.57462 7.82514 8.63323C7.88374 8.69183 7.91667 8.77132 7.91667 8.8542C7.91667 8.93708 7.88374 9.01656 7.82514 9.07517C7.76653 9.13377 7.68705 9.1667 7.60417 9.1667L2.1875 9.16837C2.10462 9.16837 2.02513 9.13544 1.96653 9.07684C1.90792 9.01823 1.875 8.93875 1.875 8.85587C1.875 8.77298 1.90792 8.6935 1.96653 8.63489C2.02513 8.57629 2.10462 8.54337 2.1875 8.54337L7.60417 8.5417ZM4.85333 0.838366L4.89583 0.835449C4.97135 0.835452 5.04431 0.8628 5.10122 0.912435C5.15813 0.962071 5.19515 1.03064 5.20542 1.10545L5.20833 1.14795L5.20792 6.85003L6.75875 5.30003C6.81166 5.24711 6.88181 5.21493 6.95644 5.20935C7.03107 5.20377 7.10522 5.22515 7.16542 5.26962L7.20083 5.30003C7.2537 5.353 7.2858 5.42317 7.2913 5.4978C7.29681 5.57243 7.27535 5.64655 7.23083 5.7067L7.20042 5.7417L5.11833 7.82378C5.06542 7.87671 4.99527 7.90888 4.92065 7.91447C4.84602 7.92005 4.77186 7.89866 4.71167 7.8542L4.67625 7.82378L2.59167 5.74212C2.53561 5.68643 2.50273 5.61157 2.49965 5.53261C2.49657 5.45365 2.52351 5.37646 2.57506 5.31657C2.6266 5.25667 2.69892 5.21853 2.77746 5.20982C2.85599 5.20111 2.93492 5.22248 2.99833 5.26962L3.03333 5.29962L4.58292 6.84712L4.58333 1.14795C4.58334 1.07243 4.61068 0.999473 4.66032 0.942561C4.70995 0.88565 4.77852 0.848636 4.85333 0.838366L4.89583 0.835449L4.85333 0.838366Z" fill="black"/>
</svg>
