<svg width="18" height="11" viewBox="0 0 18 11" fill="none" xmlns="http://www.w3.org/2000/svg">
<path fill-rule="evenodd" clip-rule="evenodd" d="M1.45062 6.17009C0.814024 5.77483 0.822112 4.84575 1.4655 4.46172L7.54194 0.834768C8.21185 0.434987 9.06123 0.922048 9.05444 1.7022L9.02561 5.01336C9.09548 4.79387 9.24224 4.59502 9.4655 4.46172L15.5419 0.834768C16.2119 0.434987 17.0612 0.922048 17.0544 1.7022L16.9904 9.06133C16.9836 9.84148 16.1258 10.3138 15.463 9.90227L9.45062 6.17009C9.22972 6.03289 9.08645 5.83147 9.02041 5.61089L8.99036 9.06133C8.98357 9.84148 8.12584 10.3138 7.463 9.90227L1.45062 6.17009Z" fill="black"/>
</svg>
