<svg width="86" height="37" viewBox="0 0 86 37" fill="none" xmlns="http://www.w3.org/2000/svg">
<rect y="0.561523" width="86" height="36.2392" rx="10" fill="#1A1A1A"/>
<path d="M35.8418 13.3584H32.9023L30.4551 19.2373L27.584 13.3584H25.1367V13.7275H26.2305V21.1924H25.1367V21.5615H27.8984C27.8438 21.3337 27.7207 21.2106 27.5293 21.1924H26.8047V16.0381L29.7168 21.6982H29.9629L32.9023 14.6982V21.1924H31.8086V21.5615H35.8418C35.7871 21.3337 35.6641 21.2106 35.4727 21.1924H34.748V13.7275H35.8418V13.3584ZM41.2832 21.6982C41.9486 21.6982 42.3633 21.4567 42.5273 20.9736C42.582 20.7913 42.623 20.5589 42.6504 20.2764L42.2949 20.2627C42.2402 20.8916 42.0807 21.2106 41.8164 21.2197C41.6159 21.2015 41.5156 20.9736 41.5156 20.5361V17.6787C41.5156 16.5394 40.987 15.8376 39.9297 15.5732C39.6562 15.5094 39.36 15.4775 39.041 15.4775C37.8014 15.4775 37.0221 15.7464 36.7031 16.2842C36.6211 16.4209 36.5801 16.5667 36.5801 16.7217C36.5801 17.0771 36.7487 17.3005 37.0859 17.3916C37.168 17.4189 37.2546 17.4326 37.3457 17.4326C37.7376 17.4326 38.002 17.2412 38.1387 16.8584C38.1569 16.8037 38.1842 16.7126 38.2207 16.585C38.321 16.2204 38.4486 15.9925 38.6035 15.9014C38.7038 15.8558 38.8177 15.833 38.9453 15.833C39.3737 15.833 39.6335 16.0928 39.7246 16.6123C39.7611 16.8037 39.7793 17.0316 39.7793 17.2959V18.1846C37.4368 18.2301 36.2611 18.8499 36.252 20.0439C36.252 20.8551 36.6074 21.3747 37.3184 21.6025C37.528 21.6663 37.7604 21.6982 38.0156 21.6982C38.7904 21.6982 39.36 21.4066 39.7246 20.8232C39.7975 20.7048 39.8568 20.5817 39.9023 20.4541C40.0938 21.238 40.554 21.6527 41.2832 21.6982ZM38.7266 21.1104C38.2708 21.0921 38.0384 20.6865 38.0293 19.8936C38.0293 19.292 38.2754 18.9001 38.7676 18.7178C39.0319 18.6357 39.3691 18.5856 39.7793 18.5674V19.8936C39.6061 20.5316 39.3281 20.9235 38.9453 21.0693C38.8633 21.0967 38.7904 21.1104 38.7266 21.1104ZM42.9238 16.1064H43.8672V19.5244C43.8672 20.846 44.4141 21.5706 45.5078 21.6982C45.6172 21.7074 45.7266 21.7119 45.8359 21.7119C46.5378 21.7119 47.0208 21.484 47.2852 21.0283C47.4128 20.8005 47.513 20.4997 47.5859 20.126L47.2168 20.0713C47.0345 20.8096 46.7656 21.2152 46.4102 21.2881C46.3555 21.2972 46.3008 21.3018 46.2461 21.3018C45.9089 21.3018 45.7038 21.0648 45.6309 20.5908C45.6126 20.4814 45.6035 20.3675 45.6035 20.249V16.1064H47.4082V15.751H45.6035V14.165L43.8672 14.4521V15.751H42.9238V16.1064ZM48.0645 18.6084C48.0645 19.9391 48.5703 20.8551 49.582 21.3564C50.056 21.5843 50.5983 21.6982 51.209 21.6982C52.1569 21.6982 52.8861 21.4111 53.3965 20.8369C53.5697 20.6364 53.7018 20.4176 53.793 20.1807L53.4375 20.085C53.1823 20.6318 52.7493 21.001 52.1387 21.1924C51.9017 21.2653 51.6647 21.3018 51.4277 21.3018C50.7988 21.3018 50.3796 21.0192 50.1699 20.4541C50.015 20.0348 49.9375 19.4424 49.9375 18.6768C49.9375 17.1455 50.179 16.234 50.6621 15.9424C50.8079 15.8604 50.9811 15.8193 51.1816 15.8193C51.5827 15.8193 51.8288 16.0062 51.9199 16.3799C51.9382 16.4528 51.9609 16.5758 51.9883 16.749C52.043 17.1683 52.1523 17.4372 52.3164 17.5557C52.444 17.6468 52.6172 17.6924 52.8359 17.6924C53.3008 17.6924 53.5879 17.5192 53.6973 17.1729C53.7155 17.0999 53.7246 17.027 53.7246 16.9541C53.7246 16.5531 53.4831 16.2021 53 15.9014C52.526 15.6188 51.9336 15.4775 51.2227 15.4775C50.2565 15.4775 49.4727 15.792 48.8711 16.4209C48.3333 16.986 48.0645 17.7152 48.0645 18.6084ZM57.0195 21.2061H56.6777V17.9248C56.6777 17.1227 56.9238 16.5895 57.416 16.3252C57.571 16.2432 57.7214 16.2021 57.8672 16.2021C58.4232 16.2021 58.7331 16.5439 58.7969 17.2275C58.806 17.3005 58.8105 17.3825 58.8105 17.4736V20.4951C58.8105 20.8597 58.7559 21.0739 58.6465 21.1377C58.5553 21.1833 58.4323 21.2061 58.2773 21.2061V21.5615H61.3398C61.3398 21.3519 61.2806 21.238 61.1621 21.2197C61.1074 21.2106 61.0527 21.2061 60.998 21.2061H60.5469V17.7061C60.5469 16.5667 60.1413 15.8604 59.3301 15.5869C59.1296 15.514 58.9108 15.4775 58.6738 15.4775C57.9355 15.4775 57.3477 15.7601 56.9102 16.3252C56.819 16.4528 56.7415 16.5804 56.6777 16.708V12.6748H54.1348V13.0303H54.9414V20.4951C54.9414 20.9235 54.7363 21.1559 54.3262 21.1924C54.2624 21.2015 54.1986 21.2061 54.1348 21.2061V21.5615H57.3477C57.3477 21.3519 57.2884 21.238 57.1699 21.2197C57.1243 21.2106 57.0742 21.2061 57.0195 21.2061Z" fill="white"/>
</svg>
