<svg width="17" height="11" viewBox="0 0 17 11" fill="none" xmlns="http://www.w3.org/2000/svg">
<path fill-rule="evenodd" clip-rule="evenodd" d="M8.04057 5.01323C7.97068 4.79375 7.82395 4.59502 7.60069 4.46172L1.52424 0.834768C0.85435 0.434987 0.00496904 0.922048 0.0117592 1.7022L0.0758309 9.06133C0.082621 9.84148 0.940363 10.3138 1.60319 9.90227L7.61558 6.17009C7.83647 6.03289 7.97975 5.83147 8.04579 5.61089L8.07582 9.06133C8.08262 9.84148 8.94035 10.3138 9.60319 9.90227L15.6156 6.17009C16.2522 5.77483 16.2441 4.84575 15.6007 4.46172L9.52424 0.834768C8.85435 0.434987 8.00495 0.922048 8.01176 1.7022L8.04057 5.01323Z" fill="black"/>
</svg>
