<svg width="10" height="9" viewBox="0 0 10 9" fill="none" xmlns="http://www.w3.org/2000/svg">
<path fill-rule="evenodd" clip-rule="evenodd" d="M1 6.99984H3.54286L5.17345 8.15047C5.83587 8.61788 6.75 8.14412 6.75 7.33345V1.66622C6.75 0.855548 5.83587 0.381794 5.17345 0.849201L3.54286 1.99984H1C0.447716 1.99984 0 2.44759 0 2.99984V5.99984C0 6.55208 0.447716 6.99984 1 6.99984ZM7.82322 3.17676C8.50213 3.85566 8.61898 4.68366 8.50322 5.39746C8.44516 5.75552 8.32887 6.0795 8.19955 6.33095C8.06511 6.59238 7.93279 6.74432 7.86132 6.79197L8.13867 7.20799C8.31721 7.08897 8.49739 6.84508 8.6442 6.55963C8.79613 6.26421 8.92984 5.89027 8.99678 5.4775C9.13102 4.64963 8.99787 3.64429 8.17678 2.8232L7.82322 3.17676Z" fill="#7E7E7E"/>
</svg>
