<svg width="13" height="9" viewBox="0 0 13 9" fill="none" xmlns="http://www.w3.org/2000/svg">
<path fill-rule="evenodd" clip-rule="evenodd" d="M1 6.99992H3.54285L5.17343 8.15055C5.83588 8.61796 6.75 8.1442 6.75 7.33353V1.6663C6.75 0.855628 5.83588 0.381873 5.17343 0.84928L3.54285 1.99992H1C0.447723 1.99992 0 2.44767 0 2.99992V5.99992C0 6.55216 0.447723 6.99992 1 6.99992ZM7.82322 3.17684C8.50213 3.85574 8.61898 4.68374 8.50322 5.39754C8.44516 5.7556 8.32887 6.07958 8.19955 6.33103C8.06511 6.59246 7.93279 6.7444 7.86132 6.79205L8.13867 7.20807C8.31721 7.08905 8.49739 6.84516 8.6442 6.55971C8.79613 6.26429 8.92984 5.89035 8.99678 5.47758C9.13102 4.64971 8.99787 3.64437 8.17678 2.82328L7.82322 3.17684ZM10.1905 5.58675C10.3726 4.41315 10.2414 3.095 9.32322 2.17686L9.67678 1.8233C10.7586 2.90516 10.8774 4.42034 10.6845 5.66341C10.5874 6.2893 10.4095 6.86137 10.2222 7.30117C10.1286 7.52097 10.031 7.71144 9.93764 7.861C9.85019 8.00105 9.74862 8.1348 9.63867 8.20809L9.36133 7.79207C9.36127 7.7921 9.36164 7.79186 9.36241 7.79128C9.36307 7.79078 9.36403 7.79003 9.36529 7.78899C9.368 7.78676 9.3717 7.78352 9.37637 7.77903C9.38583 7.76993 9.39781 7.75713 9.41215 7.73989C9.44101 7.70518 9.47525 7.6575 9.51353 7.59619C9.59006 7.47362 9.67611 7.30731 9.76218 7.10524C9.93423 6.70129 10.1001 6.16919 10.1905 5.58675ZM10.8048 1.15627C11.7794 2.37457 12.25 3.57116 12.25 4.7501C12.25 5.92904 11.7794 7.12563 10.8048 8.34393L11.1952 8.65627C12.2206 7.37457 12.75 6.07117 12.75 4.7501C12.75 3.42904 12.2206 2.12563 11.1952 0.843927L10.8048 1.15627Z" fill="#7E7E7E"/>
</svg>
