<svg width="375" height="484" viewBox="0 0 375 484" fill="none" xmlns="http://www.w3.org/2000/svg">
<path d="M474.916 76.5021C519.324 9.76096 581.435 1.56665 581.435 1.56665C581.435 1.56665 583.965 473.776 580.514 428.797C577.063 383.818 533.618 374.563 533.618 374.563C533.618 374.563 527.412 372.884 512.332 372.852L447.578 372.712L308.313 372.412C93.646 373.615 149.533 372.07 63.4907 371.885C26.7236 371.806 6.51321 371.737 -6.58535 371.734C-26.9872 371.69 -34.0836 371.675 -42.9611 374.987C-74.9178 385.744 -82.9568 411.544 -84.4047 426.532C-85.8526 441.519 -84.2512 355.35 -84.2512 355.35C-84.2512 355.35 24.8299 280.522 95.548 263.219C164.889 246.252 222.509 274.288 280.739 242.189C327.248 216.552 321.363 188.696 361.112 157.661C403.857 124.286 430.509 143.243 474.916 76.5021Z" fill="#9E4ACE"/>
<path d="M463.41 160.935C506.957 112.527 569.457 108.27 569.457 108.27C569.457 108.27 571.261 486.58 568.752 435.362C566.243 384.145 521.187 377.265 521.187 377.265C521.187 377.265 515.096 376.044 500.296 376.012L436.742 375.875L300.058 375.58C89.3702 376.335 144.221 375.245 59.7729 375.063C23.6872 374.985 3.85137 374.924 -9.0044 374.915C-29.0282 374.871 -35.9929 374.856 -44.7041 377.255C-83.3005 391.832 -84.603 425.554 -86.0158 436.43C-87.4286 447.305 -86.3471 362.84 -86.3471 362.84C-86.3471 362.84 21.7783 308.741 91.1761 296.223C159.222 283.949 215.79 304.326 272.923 281.064C318.555 262.485 312.764 242.268 351.759 219.768C393.694 195.572 419.862 209.344 463.41 160.935Z" fill="#EF96C3"/>
<path d="M460.908 235.297C504.507 201.269 568.288 198.317 568.288 198.317C568.288 198.317 569.172 464.461 566.625 428.428C564.079 392.394 518.934 387.525 518.934 387.525C518.934 387.525 512.83 386.662 498.002 386.63L434.329 386.492L297.387 386.197C86.3036 386.593 141.257 385.861 56.6497 385.679C20.4961 385.601 0.622874 385.545 -12.2571 385.53C-32.3186 385.487 -39.2964 385.472 -48.0225 387.154C-86.6821 397.384 -87.9654 421.108 -89.3739 428.758C-90.7824 436.408 -125.746 396.103 -89.2675 379.505C-82.1099 376.249 -66.4812 368.897 -55.5301 365.403C-9.01824 347.993 52.697 339.587 88.0614 330.234C148.892 314.147 212.915 336.015 270.14 319.687C315.847 306.646 310.032 292.419 349.086 276.614C391.083 259.619 417.31 269.325 460.908 235.297Z" fill="#EFB33E"/>
<path d="M462.631 280.232C505.908 253.938 569.239 251.685 569.239 251.685C569.239 251.685 571.785 492.096 567.661 446.95C563.537 401.804 520.321 397.984 520.321 397.984C520.321 397.984 514.26 397.313 499.536 397.281L436.309 397.145L300.327 396.852C90.7235 397.058 145.291 396.518 61.277 396.337C25.3768 396.26 5.64289 396.207 -7.1468 396.19C-27.0677 396.147 -33.7515 396.845 -41.5708 398.537C-95.4375 410.196 -78.2344 486.771 -84.3026 481.852C-90.3707 476.932 -84.1603 466.415 -85.0759 437.694C-85.6343 420.18 -115.911 395.194 -84.9687 387.907C3.07919 367.17 46.214 363.743 67.9334 359.523C86.8898 355.841 117.432 348.836 131.35 348.866C210.936 349.038 235.776 360.634 270.79 352.583C319.397 341.405 312.838 324.335 351.611 312.132C393.306 299.009 419.354 306.527 462.631 280.232Z" fill="#0F24B2"/>
</svg>
