<svg width="29" height="29" viewBox="0 0 29 29" fill="none" xmlns="http://www.w3.org/2000/svg">
<path d="M25.9821 24.7153L19.216 17.9491C20.8419 15.9972 21.6527 13.4935 21.4797 10.959C21.3067 8.4244 20.1632 6.05413 18.2871 4.34121C16.411 2.62829 13.9468 1.70461 11.407 1.76232C8.86718 1.82002 6.44741 2.85468 4.65105 4.65105C2.85468 6.44741 1.82002 8.86718 1.76232 11.407C1.70461 13.9468 2.62829 16.411 4.34121 18.2871C6.05413 20.1632 8.4244 21.3067 10.959 21.4797C13.4935 21.6527 15.9972 20.8419 17.9491 19.216L24.7153 25.9821L25.9821 24.7153ZM3.58368 11.6471C3.58368 10.0523 4.05659 8.49334 4.94261 7.16731C5.82864 5.84129 7.08797 4.80777 8.56137 4.19747C10.0348 3.58717 11.6561 3.42749 13.2202 3.73862C14.7844 4.04975 16.2211 4.81771 17.3488 5.94541C18.4765 7.0731 19.2445 8.50986 19.5556 10.074C19.8667 11.6382 19.7071 13.2595 19.0968 14.7329C18.4865 16.2063 17.4529 17.4656 16.1269 18.3516C14.8009 19.2376 13.2419 19.7106 11.6471 19.7106C9.50929 19.7082 7.4597 18.8579 5.94802 17.3462C4.43635 15.8345 3.58605 13.7849 3.58368 11.6471Z" fill="white"/>
</svg>
