<svg width="337" height="251" viewBox="0 0 337 251" fill="none" xmlns="http://www.w3.org/2000/svg">
<path d="M56.8157 39.7706C34.6734 5.15065 0.91888 0.996567 0.91888 0.996567C0.91888 0.996567 1.08321 245.828 2.8019 222.498C4.52059 199.167 27.563 194.37 27.563 194.37C27.563 194.37 30.6568 193.499 38.1748 193.483L70.4579 193.413L139.889 193.264C246.912 193.897 219.049 193.093 261.945 193.001C280.276 192.961 290.352 192.926 296.882 192.926L296.882 192.926C307.053 192.904 310.591 192.896 315.017 194.614C330.95 200.196 334.959 213.578 335.681 221.352C336.404 229.126 336 184.5 336 184.5C336 184.5 281.216 145.613 245.958 136.635C211.388 127.832 182.663 142.371 153.63 125.719C130.442 112.42 133.375 97.9715 113.557 81.8718C92.2448 64.5586 78.9581 74.3906 56.8157 39.7706Z" fill="#9E4ACE"/>
<path d="M62.5277 83.5687C40.893 58.4581 1.00772 56.0004 1.00772 56.0004C1.00772 56.0004 1.25177 252.563 2.49557 225.997C3.73936 199.432 33.8368 195.773 33.8368 195.773C33.8368 195.773 36.8627 195.139 44.2147 195.123L75.7852 195.055L143.683 194.909C248.343 195.31 221.096 194.742 263.045 194.652C280.971 194.613 290.824 194.582 297.21 194.578C307.157 194.557 310.617 194.549 314.944 195.794C334.118 203.357 334.767 220.848 335.469 226.489C336.171 232.13 335.999 188.5 335.999 188.5C335.999 188.5 281.916 160.254 247.442 153.758C213.639 147.388 185.54 157.954 157.158 145.887C134.489 136.248 137.365 125.762 117.993 114.089C97.161 101.537 84.1624 108.679 62.5277 83.5687Z" fill="#EF96C3"/>
<path d="M61.6985 121.722C40.6288 103.999 1.12518 102 1.12518 102C1.12518 102 0.87147 246.255 2.09896 227.491C3.32646 208.728 33.6728 200.987 33.6728 200.987C33.6728 200.987 36.6221 200.538 43.7871 200.522L74.5542 200.456L140.724 200.313C242.721 200.537 216.167 200.151 257.049 200.063C274.519 200.025 284.122 199.998 290.345 199.991C300.039 199.97 303.411 199.963 307.627 200.839C326.309 206.17 328.319 202.017 329 206C329.681 209.984 345.184 205.506 327.557 196.86C324.098 195.164 316.545 191.334 311.253 189.514C288.777 180.444 258.956 176.062 241.867 171.189C212.472 162.807 181.538 174.189 153.885 165.682C131.798 158.887 134.607 151.479 115.735 143.246C95.44 134.393 82.7682 139.445 61.6985 121.722Z" fill="#EFB33E"/>
<path d="M61.7294 145.447C40.663 131.805 1.06607 130.497 1.06607 130.497C1.06607 130.497 0.495899 257.417 2.50008 234C4.50427 210.583 33.6572 206.52 33.6572 206.52C33.6572 206.52 36.6075 206.172 43.7743 206.157L74.5494 206.091L140.737 205.948C242.76 206.069 216.199 205.786 257.092 205.697C274.566 205.66 284.172 205.634 290.397 205.626C300.093 205.605 303.346 205.967 307.153 206.846C333.372 212.897 329.047 252.551 332 250C334.953 247.449 336 223.5 336 223.5L336 205C336 205 264.422 188.792 253.85 186.602C244.623 184.691 229.756 181.055 222.982 181.07C184.244 181.153 172.154 187.167 155.111 182.988C131.452 177.187 134.642 168.333 115.769 162.001C95.4739 155.191 82.7958 159.089 61.7294 145.447Z" fill="#0F24B2"/>
</svg>
