<svg width="23" height="22" viewBox="0 0 23 22" fill="none" xmlns="http://www.w3.org/2000/svg">
<path d="M1.82967 8.34146C1.34441 8.34146 0.879026 8.14869 0.535897 7.80556C0.192768 7.46244 0 6.99705 0 6.5118C0 6.02654 0.192768 5.56115 0.535897 5.21803C0.879026 4.8749 1.34441 4.68213 1.82967 4.68213C2.31492 4.68213 2.78031 4.8749 3.12344 5.21803C3.46657 5.56115 3.65933 6.02654 3.65933 6.5118C3.65933 6.99705 3.46657 7.46244 3.12344 7.80556C2.78031 8.14869 2.31492 8.34146 1.82967 8.34146Z" fill="white"/>
<path d="M1.23392 2.89667C1.88854 2.78983 2.55986 2.8614 3.17725 3.10383C3.42579 2.71412 3.7686 2.39338 4.17398 2.1713C4.57936 1.94923 5.0342 1.83298 5.49642 1.83333H18.3298C19.0591 1.83333 19.7586 2.12306 20.2743 2.63879C20.79 3.15451 21.0798 3.85399 21.0798 4.58333V17.4167C21.0798 18.146 20.79 18.8455 20.2743 19.3612C19.7586 19.8769 19.0591 20.1667 18.3298 20.1667H5.49642C4.76707 20.1667 4.0676 19.8769 3.55188 19.3612C3.03615 18.8455 2.74642 18.146 2.74642 17.4167V10.0595C2.14515 10.2146 1.51436 10.2146 0.913086 10.0595V17.4167C0.913086 18.6322 1.39597 19.798 2.25551 20.6576C3.11506 21.5171 4.28084 22 5.49642 22H18.3298C19.5453 22 20.7111 21.5171 21.5707 20.6576C22.4302 19.798 22.9131 18.6322 22.9131 17.4167V4.58333C22.9131 3.36776 22.4302 2.20197 21.5707 1.34243C20.7111 0.482886 19.5453 6.95791e-08 18.3298 6.95791e-08H5.49642C4.57741 -0.000160025 3.67958 0.275953 2.91948 0.792496C2.15938 1.30904 1.57211 2.04215 1.23392 2.89667Z" fill="white"/>
<path d="M8.24674 7.3335C8.00363 7.3335 7.77047 7.43007 7.59856 7.60198C7.42666 7.77389 7.33008 8.00705 7.33008 8.25016C7.33008 8.49328 7.42666 8.72644 7.59856 8.89834C7.77047 9.07025 8.00363 9.16683 8.24674 9.16683H15.5801C15.8232 9.16683 16.0564 9.07025 16.2283 8.89834C16.4002 8.72644 16.4967 8.49328 16.4967 8.25016C16.4967 8.00705 16.4002 7.77389 16.2283 7.60198C16.0564 7.43007 15.8232 7.3335 15.5801 7.3335H8.24674Z" fill="white"/>
<path d="M8.24674 12.8335C8.00363 12.8335 7.77047 12.9301 7.59856 13.102C7.42666 13.2739 7.33008 13.507 7.33008 13.7502C7.33008 13.9933 7.42666 14.2264 7.59856 14.3983C7.77047 14.5703 8.00363 14.6668 8.24674 14.6668H13.0391C13.2822 14.6668 13.5154 14.5703 13.6873 14.3983C13.8592 14.2264 13.9557 13.9933 13.9557 13.7502C13.9557 13.507 13.8592 13.2739 13.6873 13.102C13.5154 12.9301 13.2822 12.8335 13.0391 12.8335H8.24674Z" fill="white"/>
</svg>
