<svg width="16" height="16" viewBox="0 0 16 16" fill="none" xmlns="http://www.w3.org/2000/svg">
<g clip-path="url(#clip0)">
<path d="M15.7508 5.81264C15.651 5.50572 15.3788 5.28842 15.058 5.25939L10.6824 4.86215L8.95317 0.81363C8.8255 0.51619 8.535 0.324219 8.21165 0.324219C7.88831 0.324219 7.59769 0.51619 7.47082 0.81363L5.74158 4.86215L1.36532 5.25939C1.04452 5.289 0.772868 5.50629 0.672488 5.81264C0.572686 6.11956 0.664855 6.45621 0.90748 6.66899L4.21506 9.56927L3.23982 13.8646C3.16847 14.1804 3.29105 14.507 3.5531 14.6964C3.69396 14.7988 3.85945 14.8499 4.02551 14.8499C4.16822 14.8499 4.31104 14.8119 4.4386 14.7356L8.21165 12.4796L11.984 14.7356C12.2607 14.901 12.6087 14.8858 12.8702 14.6964C13.1323 14.507 13.2548 14.1804 13.1835 13.8646L12.2082 9.56927L15.5158 6.66899C15.7583 6.45621 15.8506 6.12026 15.7508 5.81264Z" fill="#C4C4C4"/>
</g>
<defs>
<clipPath id="clip0">
<rect width="15.1576" height="15.1576" fill="white" transform="translate(0.632812)"/>
</clipPath>
</defs>
</svg>
