<svg width="194" height="239" viewBox="0 0 194 239" fill="none" xmlns="http://www.w3.org/2000/svg">
<path d="M72.25 12C38.98 12 12 38.7028 12 71.6475C12 98.2418 22.5437 161.36 126.33 225.164C128.189 226.296 130.324 226.894 132.5 226.894C134.676 226.894 136.811 226.296 138.67 225.164C242.456 161.36 253 98.2418 253 71.6475C253 38.7028 226.02 12 192.75 12C159.48 12 132.5 48.15 132.5 48.15C132.5 48.15 105.52 12 72.25 12Z" fill="#EFB33E" stroke="#EFB33E" stroke-width="23" stroke-linecap="round" stroke-linejoin="round"/>
<path d="M223.273 41.2936L223.263 41.2847C217.57 35.7278 210.855 31.3094 203.482 28.2719L203.475 28.2688L203.467 28.2658C195.817 25.1015 187.61 23.4812 179.323 23.5002L179.31 23.5002H179.297C167.637 23.5002 156.286 26.6783 146.435 32.662L146.434 32.6622C144.077 34.0937 141.847 35.6606 139.739 37.3629L132.514 43.1984L125.288 37.3629C123.18 35.6606 120.95 34.0937 118.593 32.6622L118.593 32.662C108.742 26.6783 97.3907 23.5002 85.731 23.5002C77.3148 23.5002 69.2135 25.1003 61.5601 28.2658L61.5477 28.2709C54.1451 31.3225 47.4881 35.7026 41.7606 41.2881L41.7528 41.2958L41.7449 41.3034C36.0731 46.8136 31.5449 53.3758 28.4146 60.6166L223.273 41.2936ZM223.273 41.2936C228.94 46.8133 233.471 53.377 236.613 60.6166L223.273 41.2936ZM76.2456 171.972L76.2469 171.974C88.792 183.509 101.321 193.3 110.868 200.298C115.633 203.791 119.633 206.572 122.49 208.509C123.918 209.477 125.058 210.232 125.862 210.758C126.712 211.315 127.107 211.562 127.084 211.549L127.176 211.604L127.266 211.662L132.5 215.004L137.734 211.662L137.736 211.66C138.597 211.111 163.56 195.114 188.754 171.972C203.901 158.049 215.828 144.557 224.349 131.91C229.737 123.902 233.837 116.178 236.591 108.955L236.596 108.942L236.601 108.929C239.927 100.269 241.5 92.027 241.5 84.3588V84.3425L241.5 84.3261C241.523 76.1181 239.87 68.154 236.614 60.6179L76.2456 171.972ZM76.2456 171.972C61.0969 158.047 49.1681 144.553 40.647 131.904M76.2456 171.972L40.647 131.904M40.647 131.904C35.2761 123.92 31.1917 116.188 28.3984 108.929L40.647 131.904ZM23.5 84.3588C23.5 76.1285 25.1573 68.1535 28.4142 60.6175L28.3962 108.923C25.0716 100.265 23.5 92.0253 23.5 84.3588Z" fill="#EFB33E" stroke="#EFB33E" stroke-width="23"/>
</svg>
