<svg width="16" height="16" viewBox="0 0 16 16" fill="none" xmlns="http://www.w3.org/2000/svg">
<g clip-path="url(#clip0)">
<path d="M15.4344 5.81264C15.3346 5.50572 15.0624 5.28842 14.7416 5.25939L10.366 4.86215L8.63676 0.81363C8.50909 0.51619 8.21859 0.324219 7.89524 0.324219C7.5719 0.324219 7.28128 0.51619 7.15442 0.81363L5.42517 4.86215L1.04891 5.25939C0.728113 5.289 0.456462 5.50629 0.356082 5.81264C0.25628 6.11956 0.348449 6.45621 0.591074 6.66899L3.89865 9.56927L2.92341 13.8646C2.85206 14.1804 2.97464 14.507 3.2367 14.6964C3.37755 14.7988 3.54304 14.8499 3.70911 14.8499C3.85181 14.8499 3.99464 14.8119 4.12219 14.7356L7.89524 12.4796L11.6676 14.7356C11.9443 14.901 12.2923 14.8858 12.5538 14.6964C12.8158 14.507 12.9384 14.1804 12.8671 13.8646L11.8918 9.56927L15.1994 6.66899C15.4419 6.45621 15.5342 6.12026 15.4344 5.81264Z" fill="#EFB33E"/>
</g>
<defs>
<clipPath id="clip0">
<rect width="15.1576" height="15.1576" fill="white" transform="translate(0.316406)"/>
</clipPath>
</defs>
</svg>
