<svg width="18" height="17" viewBox="0 0 18 17" fill="none" xmlns="http://www.w3.org/2000/svg">
<path d="M6.92396 13.7383C6.67431 13.6713 6.40883 13.6991 6.17833 13.8164C5.80262 14.0075 4.98068 14.3708 3.63906 14.6897C3.82135 14.057 3.94708 13.4092 4.01474 12.754L4.01477 12.7536C4.02948 12.5992 4.0101 12.4435 3.95804 12.2975C3.90597 12.1515 3.82248 12.0188 3.7135 11.9089L3.71349 11.9089C2.66079 10.8484 2.05 9.49242 2.05 8.03222C2.05 4.85873 5.02567 2.0546 9 2.0546C12.9743 2.0546 15.95 4.85873 15.95 8.03222C15.95 11.2067 12.9743 14.0098 9 14.0098H8.99992C8.29909 14.0109 7.60115 13.9196 6.92396 13.7383ZM6.92396 13.7383L6.911 13.7866M6.92396 13.7383C6.92395 13.7383 6.92394 13.7383 6.92393 13.7383L6.911 13.7866M6.911 13.7866C6.67329 13.7228 6.4205 13.7492 6.201 13.8609C5.81921 14.0552 4.98484 14.4235 3.62301 14.7449L3.678 11.9441C2.617 10.8752 2 9.50697 2 8.03222C2 4.82553 5.004 2.0046 9 2.0046C12.996 2.0046 16 4.82553 16 8.03222C16 11.2399 12.996 14.0598 9 14.0598C8.29477 14.0609 7.59243 13.9691 6.911 13.7866ZM3.19478 15.9161L3.19477 15.9161C2.95729 15.9634 2.71904 16.0067 2.48011 16.046L2.47994 16.0461C2.23757 16.085 2.0601 15.8332 2.15294 15.6136C2.24115 15.4046 2.32201 15.1926 2.39537 14.9779L2.39809 14.9688L2.39866 14.9668L2.3987 14.9668C2.64324 14.2536 2.84263 13.4351 2.91797 12.6719C1.69253 11.43 0.95 9.80689 0.95 8.03222C0.95 4.11495 4.56064 0.95 9 0.95C13.4394 0.95 17.05 4.11495 17.05 8.03222C17.05 11.9495 13.4394 15.1144 9.00007 15.1144C9.00004 15.1144 9.00002 15.1144 9 15.1144V15.0644C8.20765 15.0655 7.41859 14.9622 6.653 14.757L3.19478 15.9161ZM3.19478 15.9161C5.00859 15.5545 6.12739 15.0782 6.65855 14.8103L3.19478 15.9161Z" fill="black" stroke="black" stroke-width="0.1"/>
</svg>
